<?xml version="1.0" encoding="UTF-8"?>
<svg xmlns="http://www.w3.org/2000/svg" width="980" height="620" viewBox="0 0 980 620" role="img" aria-label="MDT chart snapshot">
  <defs>
    <linearGradient id="bg" x1="0%" x2="100%" y1="0%" y2="100%">
      <stop offset="0%" stop-color="#f8fbfe" />
      <stop offset="100%" stop-color="#eef4f8" />
    </linearGradient>
  </defs>
  <rect width="980" height="620" rx="24" fill="url(#bg)" />
  <rect x="18" y="18" width="944" height="584" rx="20" fill="#ffffff" stroke="#d7e0e8" />
  <text x="68" y="44" font-size="28" font-weight="700" font-family="Avenir Next, Segoe UI, sans-serif" fill="#17212b">MDT Candlestick Snapshot</text>
  <text x="68" y="66" font-size="15" font-family="Avenir Next, Segoe UI, sans-serif" fill="#5e6a78">Needs More Confirmation | No major pattern | Close 73.75</text>
  <text x="946" y="44" text-anchor="end" font-size="14" font-family="Avenir Next, Segoe UI, sans-serif" fill="#4d6478">Trend: Downtrend</text>
  <text x="946" y="64" text-anchor="end" font-size="14" font-family="Avenir Next, Segoe UI, sans-serif" fill="#4d6478">Scores B 18 / P 15 / RS 0</text>

  <g>
    <g>
        <line x1="68" y1="74" x2="946" y2="74" stroke="#e6edf4" stroke-width="1" />
        <text x="56" y="78" text-anchor="end" font-size="12" font-family="Avenir Next, Segoe UI, sans-serif" fill="#6d7887">91.54</text>
      </g><g>
        <line x1="68" y1="193.5" x2="946" y2="193.5" stroke="#e6edf4" stroke-width="1" />
        <text x="56" y="197.5" text-anchor="end" font-size="12" font-family="Avenir Next, Segoe UI, sans-serif" fill="#6d7887">86.98</text>
      </g><g>
        <line x1="68" y1="313" x2="946" y2="313" stroke="#e6edf4" stroke-width="1" />
        <text x="56" y="317" text-anchor="end" font-size="12" font-family="Avenir Next, Segoe UI, sans-serif" fill="#6d7887">82.43</text>
      </g><g>
        <line x1="68" y1="432.5" x2="946" y2="432.5" stroke="#e6edf4" stroke-width="1" />
        <text x="56" y="436.5" text-anchor="end" font-size="12" font-family="Avenir Next, Segoe UI, sans-serif" fill="#6d7887">77.87</text>
      </g><g>
        <line x1="68" y1="552" x2="946" y2="552" stroke="#e6edf4" stroke-width="1" />
        <text x="56" y="556" text-anchor="end" font-size="12" font-family="Avenir Next, Segoe UI, sans-serif" fill="#6d7887">73.31</text>
      </g>
  </g>

  <line x1="68" y1="396.25" x2="946" y2="396.25" stroke="#d9a441" stroke-width="1.6" stroke-dasharray="8 6" />
         <text x="946" y="388.25" text-anchor="end" font-size="12" font-family="Avenir Next, Segoe UI, sans-serif" fill="#a87416">Resistance 79.25</text>
  <line x1="68" y1="542.56" x2="946" y2="542.56" stroke="#0f766e" stroke-width="1.6" stroke-dasharray="8 6" opacity="0.8" />
         <text x="946" y="534.56" text-anchor="end" font-size="12" font-family="Avenir Next, Segoe UI, sans-serif" fill="#0f766e">Support 73.67</text>

  <g>
        <line x1="75.32" y1="74" x2="75.32" y2="140.34" stroke="#0f766e" stroke-width="1.4" stroke-linecap="round" />
        <rect x="71.07" y="79.24" width="8.49" height="35.14" rx="1.4" fill="#0f766e" opacity="0.9" />
      </g><g>
        <line x1="89.95" y1="77.41" x2="89.95" y2="136.65" stroke="#c65b3d" stroke-width="1.4" stroke-linecap="round" />
        <rect x="85.71" y="82.65" width="8.49" height="34.61" rx="1.4" fill="#c65b3d" opacity="0.82" />
      </g><g>
        <line x1="104.58" y1="105.2" x2="104.58" y2="167.08" stroke="#c65b3d" stroke-width="1.4" stroke-linecap="round" />
        <rect x="100.34" y="114.38" width="8.49" height="27.01" rx="1.4" fill="#c65b3d" opacity="0.82" />
      </g><g>
        <line x1="119.22" y1="109.92" x2="119.22" y2="184.91" stroke="#c65b3d" stroke-width="1.4" stroke-linecap="round" />
        <rect x="114.97" y="130.64" width="8.49" height="52.44" rx="1.4" fill="#c65b3d" opacity="0.82" />
      </g><g>
        <line x1="133.85" y1="152.14" x2="133.85" y2="200.38" stroke="#c65b3d" stroke-width="1.4" stroke-linecap="round" />
        <rect x="129.61" y="175.74" width="8.49" height="13.63" rx="1.4" fill="#c65b3d" opacity="0.82" />
      </g><g>
        <line x1="148.48" y1="147.16" x2="148.48" y2="186.49" stroke="#0f766e" stroke-width="1.4" stroke-linecap="round" />
        <rect x="144.24" y="160.53" width="8.49" height="21.76" rx="1.4" fill="#0f766e" opacity="0.9" />
      </g><g>
        <line x1="163.12" y1="131.03" x2="163.12" y2="162.63" stroke="#c65b3d" stroke-width="1.4" stroke-linecap="round" />
        <rect x="158.87" y="154.76" width="8.49" height="1.5" rx="1.4" fill="#c65b3d" opacity="0.82" />
      </g><g>
        <line x1="177.75" y1="147.76" x2="177.75" y2="191.47" stroke="#c65b3d" stroke-width="1.4" stroke-linecap="round" />
        <rect x="173.51" y="165.51" width="8.49" height="22.03" rx="1.4" fill="#c65b3d" opacity="0.82" />
      </g><g>
        <line x1="192.38" y1="174.17" x2="192.38" y2="205.89" stroke="#c65b3d" stroke-width="1.4" stroke-linecap="round" />
        <rect x="188.14" y="186.49" width="8.49" height="9.96" rx="1.4" fill="#c65b3d" opacity="0.82" />
      </g><g>
        <line x1="207.02" y1="185.83" x2="207.02" y2="225.03" stroke="#c65b3d" stroke-width="1.4" stroke-linecap="round" />
        <rect x="202.77" y="197.5" width="8.49" height="17.57" rx="1.4" fill="#c65b3d" opacity="0.82" />
      </g><g>
        <line x1="221.65" y1="175.21" x2="221.65" y2="209.82" stroke="#c65b3d" stroke-width="1.4" stroke-linecap="round" />
        <rect x="217.41" y="186.75" width="8.49" height="1.84" rx="1.4" fill="#c65b3d" opacity="0.82" />
      </g><g>
        <line x1="236.28" y1="185.17" x2="236.28" y2="215.06" stroke="#0f766e" stroke-width="1.4" stroke-linecap="round" />
        <rect x="232.04" y="204.05" width="8.49" height="2.36" rx="1.4" fill="#0f766e" opacity="0.9" />
      </g><g>
        <line x1="250.92" y1="164.99" x2="250.92" y2="210.34" stroke="#0f766e" stroke-width="1.4" stroke-linecap="round" />
        <rect x="246.67" y="169.7" width="8.49" height="25.96" rx="1.4" fill="#0f766e" opacity="0.9" />
      </g><g>
        <line x1="265.55" y1="135.88" x2="265.55" y2="185.17" stroke="#0f766e" stroke-width="1.4" stroke-linecap="round" />
        <rect x="261.31" y="175.47" width="8.49" height="9.7" rx="1.4" fill="#0f766e" opacity="0.9" />
      </g><g>
        <line x1="280.18" y1="179.14" x2="280.18" y2="210.08" stroke="#c65b3d" stroke-width="1.4" stroke-linecap="round" />
        <rect x="275.94" y="184.65" width="8.49" height="4.72" rx="1.4" fill="#c65b3d" opacity="0.82" />
      </g><g>
        <line x1="294.82" y1="179.14" x2="294.82" y2="228.44" stroke="#c65b3d" stroke-width="1.4" stroke-linecap="round" />
        <rect x="290.57" y="181.24" width="8.49" height="44.84" rx="1.4" fill="#c65b3d" opacity="0.82" />
      </g><g>
        <line x1="309.45" y1="198.81" x2="309.45" y2="247.58" stroke="#c65b3d" stroke-width="1.4" stroke-linecap="round" />
        <rect x="305.21" y="200.38" width="8.49" height="1.84" rx="1.4" fill="#c65b3d" opacity="0.82" />
      </g><g>
        <line x1="324.08" y1="194.09" x2="324.08" y2="234.99" stroke="#c65b3d" stroke-width="1.4" stroke-linecap="round" />
        <rect x="319.84" y="204.05" width="8.49" height="13.63" rx="1.4" fill="#c65b3d" opacity="0.82" />
      </g><g>
        <line x1="338.72" y1="193.96" x2="338.72" y2="239.97" stroke="#0f766e" stroke-width="1.4" stroke-linecap="round" />
        <rect x="334.47" y="202.74" width="8.49" height="20.19" rx="1.4" fill="#0f766e" opacity="0.9" />
      </g><g>
        <line x1="353.35" y1="185.17" x2="353.35" y2="217.43" stroke="#c65b3d" stroke-width="1.4" stroke-linecap="round" />
        <rect x="349.11" y="207.99" width="8.49" height="3.93" rx="1.4" fill="#c65b3d" opacity="0.82" />
      </g><g>
        <line x1="367.98" y1="193.83" x2="367.98" y2="237.35" stroke="#0f766e" stroke-width="1.4" stroke-linecap="round" />
        <rect x="363.74" y="208.25" width="8.49" height="11.27" rx="1.4" fill="#0f766e" opacity="0.9" />
      </g><g>
        <line x1="382.62" y1="144.8" x2="382.62" y2="195.4" stroke="#0f766e" stroke-width="1.4" stroke-linecap="round" />
        <rect x="378.37" y="149.78" width="8.49" height="20.58" rx="1.4" fill="#0f766e" opacity="0.9" />
      </g><g>
        <line x1="397.25" y1="152.4" x2="397.25" y2="185.17" stroke="#0f766e" stroke-width="1.4" stroke-linecap="round" />
        <rect x="393.01" y="169.18" width="8.49" height="1.5" rx="1.4" fill="#0f766e" opacity="0.9" />
      </g><g>
        <line x1="411.88" y1="157.64" x2="411.88" y2="191.21" stroke="#c65b3d" stroke-width="1.4" stroke-linecap="round" />
        <rect x="407.64" y="157.64" width="8.49" height="29.89" rx="1.4" fill="#c65b3d" opacity="0.82" />
      </g><g>
        <line x1="426.52" y1="162.63" x2="426.52" y2="208.51" stroke="#0f766e" stroke-width="1.4" stroke-linecap="round" />
        <rect x="422.27" y="166.82" width="8.49" height="26.22" rx="1.4" fill="#0f766e" opacity="0.9" />
      </g><g>
        <line x1="441.15" y1="149.25" x2="441.15" y2="181.77" stroke="#0f766e" stroke-width="1.4" stroke-linecap="round" />
        <rect x="436.91" y="163.67" width="8.49" height="3.15" rx="1.4" fill="#0f766e" opacity="0.9" />
      </g><g>
        <line x1="455.78" y1="169.31" x2="455.78" y2="207.46" stroke="#c65b3d" stroke-width="1.4" stroke-linecap="round" />
        <rect x="451.54" y="170.49" width="8.49" height="19.93" rx="1.4" fill="#c65b3d" opacity="0.82" />
      </g><g>
        <line x1="470.42" y1="177.83" x2="470.42" y2="232.24" stroke="#c65b3d" stroke-width="1.4" stroke-linecap="round" />
        <rect x="466.17" y="197.76" width="8.49" height="30.68" rx="1.4" fill="#c65b3d" opacity="0.82" />
      </g><g>
        <line x1="485.05" y1="191.73" x2="485.05" y2="231.06" stroke="#0f766e" stroke-width="1.4" stroke-linecap="round" />
        <rect x="480.81" y="214.28" width="8.49" height="12.32" rx="1.4" fill="#0f766e" opacity="0.9" />
      </g><g>
        <line x1="499.68" y1="191.73" x2="499.68" y2="245.74" stroke="#c65b3d" stroke-width="1.4" stroke-linecap="round" />
        <rect x="495.44" y="219.52" width="8.49" height="25.96" rx="1.4" fill="#c65b3d" opacity="0.82" />
      </g><g>
        <line x1="514.32" y1="236.3" x2="514.32" y2="325.19" stroke="#c65b3d" stroke-width="1.4" stroke-linecap="round" />
        <rect x="510.07" y="238.93" width="8.49" height="85.22" rx="1.4" fill="#c65b3d" opacity="0.82" />
      </g><g>
        <line x1="528.95" y1="264.62" x2="528.95" y2="306.84" stroke="#0f766e" stroke-width="1.4" stroke-linecap="round" />
        <rect x="524.71" y="292.15" width="8.49" height="8.39" rx="1.4" fill="#0f766e" opacity="0.9" />
      </g><g>
        <line x1="543.58" y1="265.15" x2="543.58" y2="301.33" stroke="#c65b3d" stroke-width="1.4" stroke-linecap="round" />
        <rect x="539.34" y="275.64" width="8.49" height="1.57" rx="1.4" fill="#c65b3d" opacity="0.82" />
      </g><g>
        <line x1="558.22" y1="277.73" x2="558.22" y2="303.82" stroke="#c65b3d" stroke-width="1.4" stroke-linecap="round" />
        <rect x="553.97" y="284.55" width="8.49" height="4.98" rx="1.4" fill="#c65b3d" opacity="0.82" />
      </g><g>
        <line x1="572.85" y1="270.39" x2="572.85" y2="301.51" stroke="#c65b3d" stroke-width="1.4" stroke-linecap="round" />
        <rect x="568.61" y="294.78" width="8.49" height="5.24" rx="1.4" fill="#c65b3d" opacity="0.82" />
      </g><g>
        <line x1="587.48" y1="271.7" x2="587.48" y2="343.81" stroke="#c65b3d" stroke-width="1.4" stroke-linecap="round" />
        <rect x="583.24" y="278.78" width="8.49" height="47.98" rx="1.4" fill="#c65b3d" opacity="0.82" />
      </g><g>
        <line x1="602.12" y1="338.57" x2="602.12" y2="405.17" stroke="#c65b3d" stroke-width="1.4" stroke-linecap="round" />
        <rect x="597.87" y="338.83" width="8.49" height="54.28" rx="1.4" fill="#c65b3d" opacity="0.82" />
      </g><g>
        <line x1="616.75" y1="347.48" x2="616.75" y2="403.33" stroke="#0f766e" stroke-width="1.4" stroke-linecap="round" />
        <rect x="612.51" y="351.15" width="8.49" height="38.54" rx="1.4" fill="#0f766e" opacity="0.9" />
      </g><g>
        <line x1="631.38" y1="345.91" x2="631.38" y2="377.37" stroke="#c65b3d" stroke-width="1.4" stroke-linecap="round" />
        <rect x="627.14" y="351.68" width="8.49" height="24.91" rx="1.4" fill="#c65b3d" opacity="0.82" />
      </g><g>
        <line x1="646.02" y1="387.21" x2="646.02" y2="421.42" stroke="#c65b3d" stroke-width="1.4" stroke-linecap="round" />
        <rect x="641.77" y="390.48" width="8.49" height="30.68" rx="1.4" fill="#c65b3d" opacity="0.82" />
      </g><g>
        <line x1="660.65" y1="414.6" x2="660.65" y2="444.99" stroke="#c65b3d" stroke-width="1.4" stroke-linecap="round" />
        <rect x="656.41" y="415.92" width="8.49" height="18.62" rx="1.4" fill="#c65b3d" opacity="0.82" />
      </g><g>
        <line x1="675.28" y1="416.97" x2="675.28" y2="451.05" stroke="#c65b3d" stroke-width="1.4" stroke-linecap="round" />
        <rect x="671.04" y="424.31" width="8.49" height="15.21" rx="1.4" fill="#c65b3d" opacity="0.82" />
      </g><g>
        <line x1="689.92" y1="399.79" x2="689.92" y2="438.47" stroke="#c65b3d" stroke-width="1.4" stroke-linecap="round" />
        <rect x="685.67" y="429.29" width="8.49" height="1.5" rx="1.4" fill="#c65b3d" opacity="0.82" />
      </g><g>
        <line x1="704.55" y1="420.11" x2="704.55" y2="483.83" stroke="#c65b3d" stroke-width="1.4" stroke-linecap="round" />
        <rect x="700.31" y="420.11" width="8.49" height="57.42" rx="1.4" fill="#c65b3d" opacity="0.82" />
      </g><g>
        <line x1="719.18" y1="468.36" x2="719.18" y2="523.42" stroke="#c65b3d" stroke-width="1.4" stroke-linecap="round" />
        <rect x="714.94" y="474.91" width="8.49" height="44.84" rx="1.4" fill="#c65b3d" opacity="0.82" />
      </g><g>
        <line x1="733.82" y1="451.97" x2="733.82" y2="518.18" stroke="#0f766e" stroke-width="1.4" stroke-linecap="round" />
        <rect x="729.57" y="459.97" width="8.49" height="48.51" rx="1.4" fill="#0f766e" opacity="0.9" />
      </g><g>
        <line x1="748.45" y1="468.88" x2="748.45" y2="497.2" stroke="#0f766e" stroke-width="1.4" stroke-linecap="round" />
        <rect x="744.21" y="475.96" width="8.49" height="7.34" rx="1.4" fill="#0f766e" opacity="0.9" />
      </g><g>
        <line x1="763.08" y1="452.67" x2="763.08" y2="483.17" stroke="#0f766e" stroke-width="1.4" stroke-linecap="round" />
        <rect x="758.84" y="456.03" width="8.49" height="16.13" rx="1.4" fill="#0f766e" opacity="0.9" />
      </g><g>
        <line x1="777.72" y1="445.28" x2="777.72" y2="485.4" stroke="#c65b3d" stroke-width="1.4" stroke-linecap="round" />
        <rect x="773.47" y="455.25" width="8.49" height="22.29" rx="1.4" fill="#c65b3d" opacity="0.82" />
      </g><g>
        <line x1="792.35" y1="440.83" x2="792.35" y2="480.68" stroke="#0f766e" stroke-width="1.4" stroke-linecap="round" />
        <rect x="788.11" y="446.86" width="8.49" height="26.74" rx="1.4" fill="#0f766e" opacity="0.9" />
      </g><g>
        <line x1="806.98" y1="403.07" x2="806.98" y2="462.06" stroke="#0f766e" stroke-width="1.4" stroke-linecap="round" />
        <rect x="802.74" y="413.82" width="8.49" height="32.25" rx="1.4" fill="#0f766e" opacity="0.9" />
      </g><g>
        <line x1="821.62" y1="413.29" x2="821.62" y2="446.07" stroke="#c65b3d" stroke-width="1.4" stroke-linecap="round" />
        <rect x="817.37" y="424.57" width="8.49" height="1.5" rx="1.4" fill="#c65b3d" opacity="0.82" />
      </g><g>
        <line x1="836.25" y1="424.57" x2="836.25" y2="455.77" stroke="#0f766e" stroke-width="1.4" stroke-linecap="round" />
        <rect x="832.01" y="425.09" width="8.49" height="17.31" rx="1.4" fill="#0f766e" opacity="0.9" />
      </g><g>
        <line x1="850.88" y1="396.25" x2="850.88" y2="423.6" stroke="#0f766e" stroke-width="1.4" stroke-linecap="round" />
        <rect x="846.64" y="413.29" width="8.49" height="5.24" rx="1.4" fill="#0f766e" opacity="0.9" />
      </g><g>
        <line x1="865.52" y1="414.6" x2="865.52" y2="442.92" stroke="#c65b3d" stroke-width="1.4" stroke-linecap="round" />
        <rect x="861.27" y="414.6" width="8.49" height="24.91" rx="1.4" fill="#c65b3d" opacity="0.82" />
      </g><g>
        <line x1="880.15" y1="423.26" x2="880.15" y2="485.66" stroke="#c65b3d" stroke-width="1.4" stroke-linecap="round" />
        <rect x="875.91" y="437.42" width="8.49" height="44.57" rx="1.4" fill="#c65b3d" opacity="0.82" />
      </g><g>
        <line x1="894.78" y1="474.65" x2="894.78" y2="499.95" stroke="#0f766e" stroke-width="1.4" stroke-linecap="round" />
        <rect x="890.54" y="492.74" width="8.49" height="1.5" rx="1.4" fill="#0f766e" opacity="0.9" />
      </g><g>
        <line x1="909.42" y1="485.4" x2="909.42" y2="542.56" stroke="#c65b3d" stroke-width="1.4" stroke-linecap="round" />
        <rect x="905.17" y="485.4" width="8.49" height="53.49" rx="1.4" fill="#c65b3d" opacity="0.82" />
      </g><g>
        <line x1="924.05" y1="506.9" x2="924.05" y2="540.07" stroke="#c65b3d" stroke-width="1.4" stroke-linecap="round" />
        <rect x="919.81" y="533.91" width="8.49" height="1.5" rx="1.4" fill="#c65b3d" opacity="0.82" />
      </g><g>
        <line x1="938.68" y1="521.32" x2="938.68" y2="552" stroke="#c65b3d" stroke-width="1.4" stroke-linecap="round" />
        <rect x="934.44" y="538.89" width="8.49" height="1.57" rx="1.4" fill="#c65b3d" opacity="0.82" />
      </g>
  <polyline fill="none" stroke="#113b52" stroke-width="2.2" stroke-linejoin="round" stroke-linecap="round" points="353.35,180.65 367.98,187.1 382.62,188.73 397.25,190.12 411.88,190.34 426.52,189.21 441.15,189.37 455.78,191.13 470.42,193.17 485.05,194.06 499.68,195.58 514.32,202.36 528.95,206.77 543.58,212.14 558.22,217.85 572.85,223.38 587.48,228.41 602.12,237.96 616.75,244.63 631.38,253.32 646.02,263.78 660.65,275.1 675.28,289.59 689.92,302.63 704.55,317.13 719.18,334.78 733.82,349.59 748.45,363.87 763.08,375.25 777.72,388.41 792.35,398.48 806.98,402.96 821.62,409.61 836.25,417 850.88,423.19 865.52,430.17 880.15,437.93 894.78,442.91 909.42,452.3 924.05,460.19 938.68,466.15" />
  <polyline fill="none" stroke="#7a8f27" stroke-width="2.2" stroke-linejoin="round" stroke-linecap="round" points="792.35,270.13 806.98,276.82 821.62,282.98 836.25,288.65 850.88,293.26 865.52,298.26 880.15,304.69 894.78,311.44 909.42,318.46 924.05,325.22 938.68,331.73" />

  <g>
    <text x="75.32" y="576" text-anchor="middle" font-size="12" font-family="Avenir Next, Segoe UI, sans-serif" fill="#6d7887">Mar 9</text><text x="353.35" y="576" text-anchor="middle" font-size="12" font-family="Avenir Next, Segoe UI, sans-serif" fill="#6d7887">Apr 6</text><text x="646.02" y="576" text-anchor="middle" font-size="12" font-family="Avenir Next, Segoe UI, sans-serif" fill="#6d7887">May 4</text><text x="938.68" y="576" text-anchor="middle" font-size="12" font-family="Avenir Next, Segoe UI, sans-serif" fill="#6d7887">Jun 2</text>
  </g>

  <g transform="translate(68, 586)">
    <rect x="0" y="-14" width="12" height="3" rx="2" fill="#113b52" />
    <text x="18" y="-8" font-size="12" font-family="Avenir Next, Segoe UI, sans-serif" fill="#506274">SMA20</text>
    <rect x="88" y="-14" width="12" height="3" rx="2" fill="#7a8f27" />
    <text x="106" y="-8" font-size="12" font-family="Avenir Next, Segoe UI, sans-serif" fill="#506274">SMA50</text>
    <text x="878" y="-8" text-anchor="end" font-size="12" font-family="Avenir Next, Segoe UI, sans-serif" fill="#506274">Last 60 sessions</text>
  </g>
</svg>