<?xml version="1.0" encoding="UTF-8"?>
<svg xmlns="http://www.w3.org/2000/svg" width="980" height="620" viewBox="0 0 980 620" role="img" aria-label="LEN chart snapshot">
  <defs>
    <linearGradient id="bg" x1="0%" x2="100%" y1="0%" y2="100%">
      <stop offset="0%" stop-color="#f8fbfe" />
      <stop offset="100%" stop-color="#eef4f8" />
    </linearGradient>
  </defs>
  <rect width="980" height="620" rx="24" fill="url(#bg)" />
  <rect x="18" y="18" width="944" height="584" rx="20" fill="#ffffff" stroke="#d7e0e8" />
  <text x="68" y="44" font-size="28" font-weight="700" font-family="Avenir Next, Segoe UI, sans-serif" fill="#17212b">LEN Candlestick Snapshot</text>
  <text x="68" y="66" font-size="15" font-family="Avenir Next, Segoe UI, sans-serif" fill="#5e6a78">Catalyst Continuation Watch | 20-Day Breakout Close | Close 94.95</text>
  <text x="946" y="44" text-anchor="end" font-size="14" font-family="Avenir Next, Segoe UI, sans-serif" fill="#4d6478">Trend: Mixed</text>
  <text x="946" y="64" text-anchor="end" font-size="14" font-family="Avenir Next, Segoe UI, sans-serif" fill="#4d6478">Scores B 67 / P 36 / RS 54</text>

  <g>
    <g>
        <line x1="68" y1="74" x2="946" y2="74" stroke="#e6edf4" stroke-width="1" />
        <text x="56" y="78" text-anchor="end" font-size="12" font-family="Avenir Next, Segoe UI, sans-serif" fill="#6d7887">97.94</text>
      </g><g>
        <line x1="68" y1="193.5" x2="946" y2="193.5" stroke="#e6edf4" stroke-width="1" />
        <text x="56" y="197.5" text-anchor="end" font-size="12" font-family="Avenir Next, Segoe UI, sans-serif" fill="#6d7887">93.75</text>
      </g><g>
        <line x1="68" y1="313" x2="946" y2="313" stroke="#e6edf4" stroke-width="1" />
        <text x="56" y="317" text-anchor="end" font-size="12" font-family="Avenir Next, Segoe UI, sans-serif" fill="#6d7887">89.56</text>
      </g><g>
        <line x1="68" y1="432.5" x2="946" y2="432.5" stroke="#e6edf4" stroke-width="1" />
        <text x="56" y="436.5" text-anchor="end" font-size="12" font-family="Avenir Next, Segoe UI, sans-serif" fill="#6d7887">85.37</text>
      </g><g>
        <line x1="68" y1="552" x2="946" y2="552" stroke="#e6edf4" stroke-width="1" />
        <text x="56" y="556" text-anchor="end" font-size="12" font-family="Avenir Next, Segoe UI, sans-serif" fill="#6d7887">81.18</text>
      </g>
  </g>

  <line x1="68" y1="180.38" x2="946" y2="180.38" stroke="#d9a441" stroke-width="1.6" stroke-dasharray="8 6" />
         <text x="946" y="172.38" text-anchor="end" font-size="12" font-family="Avenir Next, Segoe UI, sans-serif" fill="#a87416">Resistance 94.21</text>
  <line x1="68" y1="552" x2="946" y2="552" stroke="#0f766e" stroke-width="1.6" stroke-dasharray="8 6" opacity="0.8" />
         <text x="946" y="544" text-anchor="end" font-size="12" font-family="Avenir Next, Segoe UI, sans-serif" fill="#0f766e">Support 81.18</text>

  <g>
        <line x1="75.32" y1="85.41" x2="75.32" y2="180.1" stroke="#c65b3d" stroke-width="1.4" stroke-linecap="round" />
        <rect x="71.07" y="129.9" width="8.49" height="35.08" rx="1.4" fill="#c65b3d" opacity="0.82" />
      </g><g>
        <line x1="89.95" y1="178.1" x2="89.95" y2="238.28" stroke="#c65b3d" stroke-width="1.4" stroke-linecap="round" />
        <rect x="85.71" y="186.37" width="8.49" height="7.99" rx="1.4" fill="#c65b3d" opacity="0.82" />
      </g><g>
        <line x1="104.58" y1="192.64" x2="104.58" y2="310.89" stroke="#c65b3d" stroke-width="1.4" stroke-linecap="round" />
        <rect x="100.34" y="206.33" width="8.49" height="78.43" rx="1.4" fill="#c65b3d" opacity="0.82" />
      </g><g>
        <line x1="119.22" y1="162.98" x2="119.22" y2="245.98" stroke="#0f766e" stroke-width="1.4" stroke-linecap="round" />
        <rect x="114.97" y="201.77" width="8.49" height="30.23" rx="1.4" fill="#0f766e" opacity="0.9" />
      </g><g>
        <line x1="133.85" y1="204.62" x2="133.85" y2="263.8" stroke="#0f766e" stroke-width="1.4" stroke-linecap="round" />
        <rect x="129.61" y="232.57" width="8.49" height="12.83" rx="1.4" fill="#0f766e" opacity="0.9" />
      </g><g>
        <line x1="148.48" y1="183.81" x2="148.48" y2="310.72" stroke="#c65b3d" stroke-width="1.4" stroke-linecap="round" />
        <rect x="144.24" y="194.07" width="8.49" height="43.92" rx="1.4" fill="#c65b3d" opacity="0.82" />
      </g><g>
        <line x1="163.12" y1="204.05" x2="163.12" y2="278.21" stroke="#c65b3d" stroke-width="1.4" stroke-linecap="round" />
        <rect x="158.87" y="268.51" width="8.49" height="1.5" rx="1.4" fill="#c65b3d" opacity="0.82" />
      </g><g>
        <line x1="177.75" y1="251.68" x2="177.75" y2="303.87" stroke="#c65b3d" stroke-width="1.4" stroke-linecap="round" />
        <rect x="173.51" y="283.34" width="8.49" height="9.98" rx="1.4" fill="#c65b3d" opacity="0.82" />
      </g><g>
        <line x1="192.38" y1="246.55" x2="192.38" y2="451.32" stroke="#c65b3d" stroke-width="1.4" stroke-linecap="round" />
        <rect x="188.14" y="254.82" width="8.49" height="191.66" rx="1.4" fill="#c65b3d" opacity="0.82" />
      </g><g>
        <line x1="207.02" y1="305.01" x2="207.02" y2="460.74" stroke="#0f766e" stroke-width="1.4" stroke-linecap="round" />
        <rect x="202.77" y="390.58" width="8.49" height="6.84" rx="1.4" fill="#0f766e" opacity="0.9" />
      </g><g>
        <line x1="221.65" y1="368.47" x2="221.65" y2="434.32" stroke="#c65b3d" stroke-width="1.4" stroke-linecap="round" />
        <rect x="217.41" y="389.43" width="8.49" height="41.07" rx="1.4" fill="#c65b3d" opacity="0.82" />
      </g><g>
        <line x1="236.28" y1="383.16" x2="236.28" y2="499.24" stroke="#0f766e" stroke-width="1.4" stroke-linecap="round" />
        <rect x="232.04" y="400.56" width="8.49" height="70.45" rx="1.4" fill="#0f766e" opacity="0.9" />
      </g><g>
        <line x1="250.92" y1="339.24" x2="250.92" y2="426.51" stroke="#0f766e" stroke-width="1.4" stroke-linecap="round" />
        <rect x="246.67" y="341.24" width="8.49" height="84.71" rx="1.4" fill="#0f766e" opacity="0.9" />
      </g><g>
        <line x1="265.55" y1="376.89" x2="265.55" y2="455.32" stroke="#c65b3d" stroke-width="1.4" stroke-linecap="round" />
        <rect x="261.31" y="401.7" width="8.49" height="23.67" rx="1.4" fill="#c65b3d" opacity="0.82" />
      </g><g>
        <line x1="280.18" y1="261.38" x2="280.18" y2="346.65" stroke="#c65b3d" stroke-width="1.4" stroke-linecap="round" />
        <rect x="275.94" y="330.11" width="8.49" height="9.41" rx="1.4" fill="#c65b3d" opacity="0.82" />
      </g><g>
        <line x1="294.82" y1="292.75" x2="294.82" y2="377.74" stroke="#0f766e" stroke-width="1.4" stroke-linecap="round" />
        <rect x="290.57" y="330.97" width="8.49" height="38.79" rx="1.4" fill="#0f766e" opacity="0.9" />
      </g><g>
        <line x1="309.45" y1="326.55" x2="309.45" y2="400.27" stroke="#c65b3d" stroke-width="1.4" stroke-linecap="round" />
        <rect x="305.21" y="327.26" width="8.49" height="2.57" rx="1.4" fill="#c65b3d" opacity="0.82" />
      </g><g>
        <line x1="324.08" y1="303.87" x2="324.08" y2="382.45" stroke="#0f766e" stroke-width="1.4" stroke-linecap="round" />
        <rect x="319.84" y="306.44" width="8.49" height="39.93" rx="1.4" fill="#0f766e" opacity="0.9" />
      </g><g>
        <line x1="338.72" y1="274.21" x2="338.72" y2="337.53" stroke="#c65b3d" stroke-width="1.4" stroke-linecap="round" />
        <rect x="334.47" y="306.16" width="8.49" height="27.66" rx="1.4" fill="#c65b3d" opacity="0.82" />
      </g><g>
        <line x1="353.35" y1="310.15" x2="353.35" y2="368.9" stroke="#c65b3d" stroke-width="1.4" stroke-linecap="round" />
        <rect x="349.11" y="310.15" width="8.49" height="34.79" rx="1.4" fill="#c65b3d" opacity="0.82" />
      </g><g>
        <line x1="367.98" y1="298.74" x2="367.98" y2="336.1" stroke="#c65b3d" stroke-width="1.4" stroke-linecap="round" />
        <rect x="363.74" y="324.69" width="8.49" height="9.98" rx="1.4" fill="#c65b3d" opacity="0.82" />
      </g><g>
        <line x1="382.62" y1="151.58" x2="382.62" y2="279.77" stroke="#0f766e" stroke-width="1.4" stroke-linecap="round" />
        <rect x="378.37" y="220.88" width="8.49" height="52.48" rx="1.4" fill="#0f766e" opacity="0.9" />
      </g><g>
        <line x1="397.25" y1="182.09" x2="397.25" y2="257.67" stroke="#0f766e" stroke-width="1.4" stroke-linecap="round" />
        <rect x="393.01" y="182.95" width="8.49" height="52.19" rx="1.4" fill="#0f766e" opacity="0.9" />
      </g><g>
        <line x1="411.88" y1="74" x2="411.88" y2="172.11" stroke="#c65b3d" stroke-width="1.4" stroke-linecap="round" />
        <rect x="407.64" y="86.55" width="8.49" height="76.72" rx="1.4" fill="#c65b3d" opacity="0.82" />
      </g><g>
        <line x1="426.52" y1="142.59" x2="426.52" y2="192.07" stroke="#c65b3d" stroke-width="1.4" stroke-linecap="round" />
        <rect x="422.27" y="152.43" width="8.49" height="21.11" rx="1.4" fill="#c65b3d" opacity="0.82" />
      </g><g>
        <line x1="441.15" y1="146.44" x2="441.15" y2="205.19" stroke="#c65b3d" stroke-width="1.4" stroke-linecap="round" />
        <rect x="436.91" y="169.26" width="8.49" height="11.98" rx="1.4" fill="#c65b3d" opacity="0.82" />
      </g><g>
        <line x1="455.78" y1="144.16" x2="455.78" y2="206.62" stroke="#0f766e" stroke-width="1.4" stroke-linecap="round" />
        <rect x="451.54" y="184.94" width="8.49" height="3.42" rx="1.4" fill="#0f766e" opacity="0.9" />
      </g><g>
        <line x1="470.42" y1="162.13" x2="470.42" y2="211.75" stroke="#c65b3d" stroke-width="1.4" stroke-linecap="round" />
        <rect x="466.17" y="165.26" width="8.49" height="42.5" rx="1.4" fill="#c65b3d" opacity="0.82" />
      </g><g>
        <line x1="485.05" y1="172.39" x2="485.05" y2="247.12" stroke="#c65b3d" stroke-width="1.4" stroke-linecap="round" />
        <rect x="480.81" y="186.66" width="8.49" height="47.63" rx="1.4" fill="#c65b3d" opacity="0.82" />
      </g><g>
        <line x1="499.68" y1="230.86" x2="499.68" y2="352.22" stroke="#c65b3d" stroke-width="1.4" stroke-linecap="round" />
        <rect x="495.44" y="251.11" width="8.49" height="86.13" rx="1.4" fill="#c65b3d" opacity="0.82" />
      </g><g>
        <line x1="514.32" y1="286.19" x2="514.32" y2="329.68" stroke="#0f766e" stroke-width="1.4" stroke-linecap="round" />
        <rect x="510.07" y="291.89" width="8.49" height="37.65" rx="1.4" fill="#0f766e" opacity="0.9" />
      </g><g>
        <line x1="528.95" y1="268.51" x2="528.95" y2="349.65" stroke="#c65b3d" stroke-width="1.4" stroke-linecap="round" />
        <rect x="524.71" y="277.35" width="8.49" height="67.31" rx="1.4" fill="#c65b3d" opacity="0.82" />
      </g><g>
        <line x1="543.58" y1="361.77" x2="543.58" y2="463.87" stroke="#c65b3d" stroke-width="1.4" stroke-linecap="round" />
        <rect x="539.34" y="376.89" width="8.49" height="84.42" rx="1.4" fill="#c65b3d" opacity="0.82" />
      </g><g>
        <line x1="558.22" y1="371.47" x2="558.22" y2="453.32" stroke="#0f766e" stroke-width="1.4" stroke-linecap="round" />
        <rect x="553.97" y="408.83" width="8.49" height="35.08" rx="1.4" fill="#0f766e" opacity="0.9" />
      </g><g>
        <line x1="572.85" y1="270.79" x2="572.85" y2="357.21" stroke="#0f766e" stroke-width="1.4" stroke-linecap="round" />
        <rect x="568.61" y="285.05" width="8.49" height="52.76" rx="1.4" fill="#0f766e" opacity="0.9" />
      </g><g>
        <line x1="587.48" y1="259.1" x2="587.48" y2="380.02" stroke="#c65b3d" stroke-width="1.4" stroke-linecap="round" />
        <rect x="583.24" y="290.47" width="8.49" height="74.44" rx="1.4" fill="#c65b3d" opacity="0.82" />
      </g><g>
        <line x1="602.12" y1="334.96" x2="602.12" y2="384.84" stroke="#0f766e" stroke-width="1.4" stroke-linecap="round" />
        <rect x="597.87" y="346.65" width="8.49" height="7.13" rx="1.4" fill="#0f766e" opacity="0.9" />
      </g><g>
        <line x1="616.75" y1="350.36" x2="616.75" y2="392.71" stroke="#c65b3d" stroke-width="1.4" stroke-linecap="round" />
        <rect x="612.51" y="358.35" width="8.49" height="25.1" rx="1.4" fill="#c65b3d" opacity="0.82" />
      </g><g>
        <line x1="631.38" y1="363.77" x2="631.38" y2="442.77" stroke="#c65b3d" stroke-width="1.4" stroke-linecap="round" />
        <rect x="627.14" y="372.32" width="8.49" height="46.2" rx="1.4" fill="#c65b3d" opacity="0.82" />
      </g><g>
        <line x1="646.02" y1="416.81" x2="646.02" y2="458.74" stroke="#c65b3d" stroke-width="1.4" stroke-linecap="round" />
        <rect x="641.77" y="437.63" width="8.49" height="6.27" rx="1.4" fill="#c65b3d" opacity="0.82" />
      </g><g>
        <line x1="660.65" y1="407.12" x2="660.65" y2="454.18" stroke="#c65b3d" stroke-width="1.4" stroke-linecap="round" />
        <rect x="656.41" y="429.08" width="8.49" height="6.84" rx="1.4" fill="#c65b3d" opacity="0.82" />
      </g><g>
        <line x1="675.28" y1="426.23" x2="675.28" y2="526.9" stroke="#c65b3d" stroke-width="1.4" stroke-linecap="round" />
        <rect x="671.04" y="440.49" width="8.49" height="79.57" rx="1.4" fill="#c65b3d" opacity="0.82" />
      </g><g>
        <line x1="689.92" y1="431.07" x2="689.92" y2="507.79" stroke="#0f766e" stroke-width="1.4" stroke-linecap="round" />
        <rect x="685.67" y="476.71" width="8.49" height="23.39" rx="1.4" fill="#0f766e" opacity="0.9" />
      </g><g>
        <line x1="704.55" y1="490.54" x2="704.55" y2="552" stroke="#0f766e" stroke-width="1.4" stroke-linecap="round" />
        <rect x="700.31" y="500.09" width="8.49" height="1.5" rx="1.4" fill="#0f766e" opacity="0.9" />
      </g><g>
        <line x1="719.18" y1="374.89" x2="719.18" y2="507.22" stroke="#0f766e" stroke-width="1.4" stroke-linecap="round" />
        <rect x="714.94" y="377.17" width="8.49" height="100.11" rx="1.4" fill="#0f766e" opacity="0.9" />
      </g><g>
        <line x1="733.82" y1="328.12" x2="733.82" y2="447.62" stroke="#0f766e" stroke-width="1.4" stroke-linecap="round" />
        <rect x="729.57" y="333.82" width="8.49" height="85.85" rx="1.4" fill="#0f766e" opacity="0.9" />
      </g><g>
        <line x1="748.45" y1="313.86" x2="748.45" y2="375.32" stroke="#0f766e" stroke-width="1.4" stroke-linecap="round" />
        <rect x="744.21" y="332.96" width="8.49" height="2.28" rx="1.4" fill="#0f766e" opacity="0.9" />
      </g><g>
        <line x1="763.08" y1="286.48" x2="763.08" y2="341.52" stroke="#c65b3d" stroke-width="1.4" stroke-linecap="round" />
        <rect x="758.84" y="301.59" width="8.49" height="19.11" rx="1.4" fill="#c65b3d" opacity="0.82" />
      </g><g>
        <line x1="777.72" y1="192.64" x2="777.72" y2="299.31" stroke="#0f766e" stroke-width="1.4" stroke-linecap="round" />
        <rect x="773.47" y="273.07" width="8.49" height="10.27" rx="1.4" fill="#0f766e" opacity="0.9" />
      </g><g>
        <line x1="792.35" y1="284.91" x2="792.35" y2="331.56" stroke="#0f766e" stroke-width="1.4" stroke-linecap="round" />
        <rect x="788.11" y="307.58" width="8.49" height="4.28" rx="1.4" fill="#0f766e" opacity="0.9" />
      </g><g>
        <line x1="806.98" y1="261.66" x2="806.98" y2="315.85" stroke="#c65b3d" stroke-width="1.4" stroke-linecap="round" />
        <rect x="802.74" y="294.75" width="8.49" height="11.98" rx="1.4" fill="#c65b3d" opacity="0.82" />
      </g><g>
        <line x1="821.62" y1="247.63" x2="821.62" y2="322.98" stroke="#c65b3d" stroke-width="1.4" stroke-linecap="round" />
        <rect x="817.37" y="265.37" width="8.49" height="31.94" rx="1.4" fill="#c65b3d" opacity="0.82" />
      </g><g>
        <line x1="836.25" y1="273.78" x2="836.25" y2="333.53" stroke="#0f766e" stroke-width="1.4" stroke-linecap="round" />
        <rect x="832.01" y="274.78" width="8.49" height="21.68" rx="1.4" fill="#0f766e" opacity="0.9" />
      </g><g>
        <line x1="850.88" y1="283.62" x2="850.88" y2="334.11" stroke="#0f766e" stroke-width="1.4" stroke-linecap="round" />
        <rect x="846.64" y="315.85" width="8.49" height="5.13" rx="1.4" fill="#0f766e" opacity="0.9" />
      </g><g>
        <line x1="865.52" y1="226.3" x2="865.52" y2="297.31" stroke="#0f766e" stroke-width="1.4" stroke-linecap="round" />
        <rect x="861.27" y="246.83" width="8.49" height="17.97" rx="1.4" fill="#0f766e" opacity="0.9" />
      </g><g>
        <line x1="880.15" y1="237.71" x2="880.15" y2="293.04" stroke="#c65b3d" stroke-width="1.4" stroke-linecap="round" />
        <rect x="875.91" y="285.91" width="8.49" height="1.5" rx="1.4" fill="#c65b3d" opacity="0.82" />
      </g><g>
        <line x1="894.78" y1="259.1" x2="894.78" y2="330.68" stroke="#0f766e" stroke-width="1.4" stroke-linecap="round" />
        <rect x="890.54" y="279.35" width="8.49" height="35.65" rx="1.4" fill="#0f766e" opacity="0.9" />
      </g><g>
        <line x1="909.42" y1="180.38" x2="909.42" y2="275.64" stroke="#0f766e" stroke-width="1.4" stroke-linecap="round" />
        <rect x="905.17" y="227.44" width="8.49" height="39.36" rx="1.4" fill="#0f766e" opacity="0.9" />
      </g><g>
        <line x1="924.05" y1="243.41" x2="924.05" y2="319.27" stroke="#c65b3d" stroke-width="1.4" stroke-linecap="round" />
        <rect x="919.81" y="253.39" width="8.49" height="51.34" rx="1.4" fill="#c65b3d" opacity="0.82" />
      </g><g>
        <line x1="938.68" y1="151.58" x2="938.68" y2="299.6" stroke="#0f766e" stroke-width="1.4" stroke-linecap="round" />
        <rect x="934.44" y="159.28" width="8.49" height="140.32" rx="1.4" fill="#0f766e" opacity="0.9" />
      </g>
  <polyline fill="none" stroke="#113b52" stroke-width="2.2" stroke-linejoin="round" stroke-linecap="round" points="353.35,314.94 367.98,323.42 382.62,324.75 397.25,319.66 411.88,317.73 426.52,314.78 441.15,311.94 455.78,307.75 470.42,303.47 485.05,292.86 499.68,290.2 514.32,283.27 528.95,280.47 543.58,286.48 558.22,285.65 572.85,282.93 587.48,284.62 602.12,285.46 616.75,289.31 631.38,293.55 646.02,298.5 660.65,303.56 675.28,318.52 689.92,333.21 704.55,350.05 719.18,360.23 733.82,367.86 748.45,375.26 763.08,380.91 777.72,382.85 792.35,381.36 806.98,382.1 821.62,379.74 836.25,370.41 850.88,365.76 865.52,363.85 880.15,359.93 894.78,356.56 909.42,348.76 924.05,343.07 938.68,328.84" />
  <polyline fill="none" stroke="#7a8f27" stroke-width="2.2" stroke-linejoin="round" stroke-linecap="round" points="792.35,322.94 806.98,325.77 821.62,327.83 836.25,327.63 850.88,329.91 865.52,330.2 880.15,331.17 894.78,331.38 909.42,330.06 924.05,327.23 938.68,322.6" />

  <g>
    <text x="75.32" y="576" text-anchor="middle" font-size="12" font-family="Avenir Next, Segoe UI, sans-serif" fill="#6d7887">Mar 18</text><text x="353.35" y="576" text-anchor="middle" font-size="12" font-family="Avenir Next, Segoe UI, sans-serif" fill="#6d7887">Apr 15</text><text x="646.02" y="576" text-anchor="middle" font-size="12" font-family="Avenir Next, Segoe UI, sans-serif" fill="#6d7887">May 13</text><text x="938.68" y="576" text-anchor="middle" font-size="12" font-family="Avenir Next, Segoe UI, sans-serif" fill="#6d7887">Jun 11</text>
  </g>

  <g transform="translate(68, 586)">
    <rect x="0" y="-14" width="12" height="3" rx="2" fill="#113b52" />
    <text x="18" y="-8" font-size="12" font-family="Avenir Next, Segoe UI, sans-serif" fill="#506274">SMA20</text>
    <rect x="88" y="-14" width="12" height="3" rx="2" fill="#7a8f27" />
    <text x="106" y="-8" font-size="12" font-family="Avenir Next, Segoe UI, sans-serif" fill="#506274">SMA50</text>
    <text x="878" y="-8" text-anchor="end" font-size="12" font-family="Avenir Next, Segoe UI, sans-serif" fill="#506274">Last 60 sessions</text>
  </g>
</svg>