<?xml version="1.0" encoding="UTF-8"?>
<svg xmlns="http://www.w3.org/2000/svg" width="980" height="620" viewBox="0 0 980 620" role="img" aria-label="GOOGL chart snapshot">
  <defs>
    <linearGradient id="bg" x1="0%" x2="100%" y1="0%" y2="100%">
      <stop offset="0%" stop-color="#f8fbfe" />
      <stop offset="100%" stop-color="#eef4f8" />
    </linearGradient>
  </defs>
  <rect width="980" height="620" rx="24" fill="url(#bg)" />
  <rect x="18" y="18" width="944" height="584" rx="20" fill="#ffffff" stroke="#d7e0e8" />
  <text x="68" y="44" font-size="28" font-weight="700" font-family="Avenir Next, Segoe UI, sans-serif" fill="#17212b">GOOGL Candlestick Snapshot</text>
  <text x="68" y="66" font-size="15" font-family="Avenir Next, Segoe UI, sans-serif" fill="#5e6a78">Risk / Avoid | 20-Day Breakdown Close | Close 317.69</text>
  <text x="946" y="44" text-anchor="end" font-size="14" font-family="Avenir Next, Segoe UI, sans-serif" fill="#4d6478">Trend: Downtrend</text>
  <text x="946" y="64" text-anchor="end" font-size="14" font-family="Avenir Next, Segoe UI, sans-serif" fill="#4d6478">Scores B 24 / P 4 / RS 14</text>

  <g>
    <g>
        <line x1="68" y1="74" x2="946" y2="74" stroke="#e6edf4" stroke-width="1" />
        <text x="56" y="78" text-anchor="end" font-size="12" font-family="Avenir Next, Segoe UI, sans-serif" fill="#6d7887">408.61</text>
      </g><g>
        <line x1="68" y1="193.5" x2="946" y2="193.5" stroke="#e6edf4" stroke-width="1" />
        <text x="56" y="197.5" text-anchor="end" font-size="12" font-family="Avenir Next, Segoe UI, sans-serif" fill="#6d7887">385.18</text>
      </g><g>
        <line x1="68" y1="313" x2="946" y2="313" stroke="#e6edf4" stroke-width="1" />
        <text x="56" y="317" text-anchor="end" font-size="12" font-family="Avenir Next, Segoe UI, sans-serif" fill="#6d7887">361.75</text>
      </g><g>
        <line x1="68" y1="432.5" x2="946" y2="432.5" stroke="#e6edf4" stroke-width="1" />
        <text x="56" y="436.5" text-anchor="end" font-size="12" font-family="Avenir Next, Segoe UI, sans-serif" fill="#6d7887">338.33</text>
      </g><g>
        <line x1="68" y1="552" x2="946" y2="552" stroke="#e6edf4" stroke-width="1" />
        <text x="56" y="556" text-anchor="end" font-size="12" font-family="Avenir Next, Segoe UI, sans-serif" fill="#6d7887">314.90</text>
      </g>
  </g>

  <line x1="68" y1="244.06" x2="946" y2="244.06" stroke="#d9a441" stroke-width="1.6" stroke-dasharray="8 6" />
         <text x="946" y="236.06" text-anchor="end" font-size="12" font-family="Avenir Next, Segoe UI, sans-serif" fill="#a87416">Resistance 375.27</text>
  <line x1="68" y1="473.96" x2="946" y2="473.96" stroke="#0f766e" stroke-width="1.6" stroke-dasharray="8 6" opacity="0.8" />
         <text x="946" y="465.96" text-anchor="end" font-size="12" font-family="Avenir Next, Segoe UI, sans-serif" fill="#0f766e">Support 330.20</text>

  <g>
        <line x1="75.32" y1="360.62" x2="75.32" y2="392.75" stroke="#0f766e" stroke-width="1.4" stroke-linecap="round" />
        <rect x="71.07" y="374.08" width="8.49" height="6.27" rx="1.4" fill="#0f766e" opacity="0.9" />
      </g><g>
        <line x1="89.95" y1="343.43" x2="89.95" y2="402.49" stroke="#0f766e" stroke-width="1.4" stroke-linecap="round" />
        <rect x="85.71" y="373.27" width="8.49" height="12.11" rx="1.4" fill="#0f766e" opacity="0.9" />
      </g><g>
        <line x1="104.58" y1="190.15" x2="104.58" y2="292.27" stroke="#0f766e" stroke-width="1.4" stroke-linecap="round" />
        <rect x="100.34" y="195.45" width="8.49" height="54.73" rx="1.4" fill="#0f766e" opacity="0.9" />
      </g><g>
        <line x1="119.22" y1="185.45" x2="119.22" y2="224.78" stroke="#0f766e" stroke-width="1.4" stroke-linecap="round" />
        <rect x="114.97" y="190.91" width="8.49" height="20.71" rx="1.4" fill="#0f766e" opacity="0.9" />
      </g><g>
        <line x1="133.85" y1="182.29" x2="133.85" y2="221.01" stroke="#c65b3d" stroke-width="1.4" stroke-linecap="round" />
        <rect x="129.61" y="191.22" width="8.49" height="12.14" rx="1.4" fill="#c65b3d" opacity="0.82" />
      </g><g>
        <line x1="148.48" y1="154.54" x2="148.48" y2="199.43" stroke="#0f766e" stroke-width="1.4" stroke-linecap="round" />
        <rect x="144.24" y="176.94" width="8.49" height="11.22" rx="1.4" fill="#0f766e" opacity="0.9" />
      </g><g>
        <line x1="163.12" y1="118.68" x2="163.12" y2="154.85" stroke="#0f766e" stroke-width="1.4" stroke-linecap="round" />
        <rect x="158.87" y="127.92" width="8.49" height="19.36" rx="1.4" fill="#0f766e" opacity="0.9" />
      </g><g>
        <line x1="177.75" y1="117.41" x2="177.75" y2="155.26" stroke="#c65b3d" stroke-width="1.4" stroke-linecap="round" />
        <rect x="173.51" y="118.33" width="8.49" height="9.84" rx="1.4" fill="#c65b3d" opacity="0.82" />
      </g><g>
        <line x1="192.38" y1="107.72" x2="192.38" y2="136.49" stroke="#0f766e" stroke-width="1.4" stroke-linecap="round" />
        <rect x="188.14" y="113.84" width="8.49" height="19.38" rx="1.4" fill="#0f766e" opacity="0.9" />
      </g><g>
        <line x1="207.02" y1="130.98" x2="207.02" y2="176.73" stroke="#c65b3d" stroke-width="1.4" stroke-linecap="round" />
        <rect x="202.77" y="150.33" width="8.49" height="25.53" rx="1.4" fill="#c65b3d" opacity="0.82" />
      </g><g>
        <line x1="221.65" y1="176.48" x2="221.65" y2="205.81" stroke="#0f766e" stroke-width="1.4" stroke-linecap="round" />
        <rect x="217.41" y="182.44" width="8.49" height="1.5" rx="1.4" fill="#0f766e" opacity="0.9" />
      </g><g>
        <line x1="236.28" y1="99.05" x2="236.28" y2="194.43" stroke="#0f766e" stroke-width="1.4" stroke-linecap="round" />
        <rect x="232.04" y="104.55" width="8.49" height="86.84" rx="1.4" fill="#0f766e" opacity="0.9" />
      </g><g>
        <line x1="250.92" y1="102.97" x2="250.92" y2="139.14" stroke="#0f766e" stroke-width="1.4" stroke-linecap="round" />
        <rect x="246.67" y="112.46" width="8.49" height="19.33" rx="1.4" fill="#0f766e" opacity="0.9" />
      </g><g>
        <line x1="265.55" y1="120.27" x2="265.55" y2="152.71" stroke="#0f766e" stroke-width="1.4" stroke-linecap="round" />
        <rect x="261.31" y="134.34" width="8.49" height="2.37" rx="1.4" fill="#0f766e" opacity="0.9" />
      </g><g>
        <line x1="280.18" y1="74" x2="280.18" y2="145.82" stroke="#0f766e" stroke-width="1.4" stroke-linecap="round" />
        <rect x="275.94" y="133.53" width="8.49" height="6.4" rx="1.4" fill="#0f766e" opacity="0.9" />
      </g><g>
        <line x1="294.82" y1="132.46" x2="294.82" y2="188.77" stroke="#c65b3d" stroke-width="1.4" stroke-linecap="round" />
        <rect x="290.57" y="133.42" width="8.49" height="47.44" rx="1.4" fill="#c65b3d" opacity="0.82" />
      </g><g>
        <line x1="309.45" y1="149.24" x2="309.45" y2="205.14" stroke="#0f766e" stroke-width="1.4" stroke-linecap="round" />
        <rect x="305.21" y="174.49" width="8.49" height="6.17" rx="1.4" fill="#0f766e" opacity="0.9" />
      </g><g>
        <line x1="324.08" y1="156.17" x2="324.08" y2="204.53" stroke="#0f766e" stroke-width="1.4" stroke-linecap="round" />
        <rect x="319.84" y="180.86" width="8.49" height="10" rx="1.4" fill="#0f766e" opacity="0.9" />
      </g><g>
        <line x1="338.72" y1="175.35" x2="338.72" y2="210.9" stroke="#c65b3d" stroke-width="1.4" stroke-linecap="round" />
        <rect x="334.47" y="182.47" width="8.49" height="22.32" rx="1.4" fill="#c65b3d" opacity="0.82" />
      </g><g>
        <line x1="353.35" y1="172.7" x2="353.35" y2="206.67" stroke="#0f766e" stroke-width="1.4" stroke-linecap="round" />
        <rect x="349.11" y="174.64" width="8.49" height="22.29" rx="1.4" fill="#0f766e" opacity="0.9" />
      </g><g>
        <line x1="367.98" y1="149.14" x2="367.98" y2="189.84" stroke="#0f766e" stroke-width="1.4" stroke-linecap="round" />
        <rect x="363.74" y="174.89" width="8.49" height="11.04" rx="1.4" fill="#0f766e" opacity="0.9" />
      </g><g>
        <line x1="382.62" y1="159.39" x2="382.62" y2="193.61" stroke="#0f766e" stroke-width="1.4" stroke-linecap="round" />
        <rect x="378.37" y="168.26" width="8.49" height="10.86" rx="1.4" fill="#0f766e" opacity="0.9" />
      </g><g>
        <line x1="397.25" y1="193.21" x2="397.25" y2="227.79" stroke="#c65b3d" stroke-width="1.4" stroke-linecap="round" />
        <rect x="393.01" y="193.21" width="8.49" height="24.99" rx="1.4" fill="#c65b3d" opacity="0.82" />
      </g><g>
        <line x1="411.88" y1="227.28" x2="411.88" y2="252.99" stroke="#c65b3d" stroke-width="1.4" stroke-linecap="round" />
        <rect x="407.64" y="237.69" width="8.49" height="1.5" rx="1.4" fill="#c65b3d" opacity="0.82" />
      </g><g>
        <line x1="426.52" y1="252.89" x2="426.52" y2="329.91" stroke="#c65b3d" stroke-width="1.4" stroke-linecap="round" />
        <rect x="422.27" y="288.34" width="8.49" height="24.18" rx="1.4" fill="#c65b3d" opacity="0.82" />
      </g><g>
        <line x1="441.15" y1="289.05" x2="441.15" y2="331.75" stroke="#c65b3d" stroke-width="1.4" stroke-linecap="round" />
        <rect x="436.91" y="311.6" width="8.49" height="15.51" rx="1.4" fill="#c65b3d" opacity="0.82" />
      </g><g>
        <line x1="455.78" y1="254.37" x2="455.78" y2="331.08" stroke="#0f766e" stroke-width="1.4" stroke-linecap="round" />
        <rect x="451.54" y="259.77" width="8.49" height="67.79" rx="1.4" fill="#0f766e" opacity="0.9" />
      </g><g>
        <line x1="470.42" y1="260.33" x2="470.42" y2="300.93" stroke="#0f766e" stroke-width="1.4" stroke-linecap="round" />
        <rect x="466.17" y="278.44" width="8.49" height="11.17" rx="1.4" fill="#0f766e" opacity="0.9" />
      </g><g>
        <line x1="485.05" y1="290.33" x2="485.05" y2="319.24" stroke="#c65b3d" stroke-width="1.4" stroke-linecap="round" />
        <rect x="480.81" y="295.53" width="8.49" height="9.54" rx="1.4" fill="#c65b3d" opacity="0.82" />
      </g><g>
        <line x1="499.68" y1="260.33" x2="499.68" y2="335.72" stroke="#c65b3d" stroke-width="1.4" stroke-linecap="round" />
        <rect x="495.44" y="285.79" width="8.49" height="14.44" rx="1.4" fill="#c65b3d" opacity="0.82" />
      </g><g>
        <line x1="514.32" y1="278.31" x2="514.32" y2="346.44" stroke="#c65b3d" stroke-width="1.4" stroke-linecap="round" />
        <rect x="510.07" y="305.68" width="8.49" height="34.74" rx="1.4" fill="#c65b3d" opacity="0.82" />
      </g><g>
        <line x1="528.95" y1="328.07" x2="528.95" y2="391.53" stroke="#0f766e" stroke-width="1.4" stroke-linecap="round" />
        <rect x="524.71" y="333.33" width="8.49" height="9.41" rx="1.4" fill="#0f766e" opacity="0.9" />
      </g><g>
        <line x1="543.58" y1="288.44" x2="543.58" y2="347.76" stroke="#c65b3d" stroke-width="1.4" stroke-linecap="round" />
        <rect x="539.34" y="308.59" width="8.49" height="15" rx="1.4" fill="#c65b3d" opacity="0.82" />
      </g><g>
        <line x1="558.22" y1="255.69" x2="558.22" y2="288.54" stroke="#0f766e" stroke-width="1.4" stroke-linecap="round" />
        <rect x="553.97" y="274.26" width="8.49" height="7.24" rx="1.4" fill="#0f766e" opacity="0.9" />
      </g><g>
        <line x1="572.85" y1="240.34" x2="572.85" y2="285.94" stroke="#0f766e" stroke-width="1.4" stroke-linecap="round" />
        <rect x="568.61" y="254.37" width="8.49" height="18.62" rx="1.4" fill="#0f766e" opacity="0.9" />
      </g><g>
        <line x1="587.48" y1="259.06" x2="587.48" y2="311.65" stroke="#c65b3d" stroke-width="1.4" stroke-linecap="round" />
        <rect x="583.24" y="275.41" width="8.49" height="27.21" rx="1.4" fill="#c65b3d" opacity="0.82" />
      </g><g>
        <line x1="602.12" y1="273.6" x2="602.12" y2="328.74" stroke="#0f766e" stroke-width="1.4" stroke-linecap="round" />
        <rect x="597.87" y="280.99" width="8.49" height="11.63" rx="1.4" fill="#0f766e" opacity="0.9" />
      </g><g>
        <line x1="616.75" y1="327.46" x2="616.75" y2="415.19" stroke="#c65b3d" stroke-width="1.4" stroke-linecap="round" />
        <rect x="612.51" y="332.43" width="8.49" height="42.16" rx="1.4" fill="#c65b3d" opacity="0.82" />
      </g><g>
        <line x1="631.38" y1="376.58" x2="631.38" y2="422.95" stroke="#0f766e" stroke-width="1.4" stroke-linecap="round" />
        <rect x="627.14" y="392.7" width="8.49" height="27.75" rx="1.4" fill="#0f766e" opacity="0.9" />
      </g><g>
        <line x1="646.02" y1="355.23" x2="646.02" y2="414.12" stroke="#c65b3d" stroke-width="1.4" stroke-linecap="round" />
        <rect x="641.77" y="377.88" width="8.49" height="19.1" rx="1.4" fill="#c65b3d" opacity="0.82" />
      </g><g>
        <line x1="660.65" y1="395.56" x2="660.65" y2="445.19" stroke="#0f766e" stroke-width="1.4" stroke-linecap="round" />
        <rect x="656.41" y="405.04" width="8.49" height="35.6" rx="1.4" fill="#0f766e" opacity="0.9" />
      </g><g>
        <line x1="675.28" y1="391.53" x2="675.28" y2="473.96" stroke="#c65b3d" stroke-width="1.4" stroke-linecap="round" />
        <rect x="671.04" y="410.96" width="8.49" height="26.32" rx="1.4" fill="#c65b3d" opacity="0.82" />
      </g><g>
        <line x1="689.92" y1="350.77" x2="689.92" y2="420.55" stroke="#0f766e" stroke-width="1.4" stroke-linecap="round" />
        <rect x="685.67" y="354.34" width="8.49" height="60.32" rx="1.4" fill="#0f766e" opacity="0.9" />
      </g><g>
        <line x1="704.55" y1="328.99" x2="704.55" y2="370.92" stroke="#0f766e" stroke-width="1.4" stroke-linecap="round" />
        <rect x="700.31" y="335.37" width="8.49" height="17.88" rx="1.4" fill="#0f766e" opacity="0.9" />
      </g><g>
        <line x1="719.18" y1="306.8" x2="719.18" y2="340.16" stroke="#0f766e" stroke-width="1.4" stroke-linecap="round" />
        <rect x="714.94" y="315.78" width="8.49" height="14.49" rx="1.4" fill="#0f766e" opacity="0.9" />
      </g><g>
        <line x1="733.82" y1="300.5" x2="733.82" y2="355.52" stroke="#0f766e" stroke-width="1.4" stroke-linecap="round" />
        <rect x="729.57" y="322.41" width="8.49" height="2.19" rx="1.4" fill="#0f766e" opacity="0.9" />
      </g><g>
        <line x1="748.45" y1="281.5" x2="748.45" y2="335.31" stroke="#0f766e" stroke-width="1.4" stroke-linecap="round" />
        <rect x="744.21" y="289" width="8.49" height="25.05" rx="1.4" fill="#0f766e" opacity="0.9" />
      </g><g>
        <line x1="763.08" y1="254.82" x2="763.08" y2="293.9" stroke="#c65b3d" stroke-width="1.4" stroke-linecap="round" />
        <rect x="758.84" y="275.69" width="8.49" height="10.41" rx="1.4" fill="#c65b3d" opacity="0.82" />
      </g><g>
        <line x1="777.72" y1="281.96" x2="777.72" y2="332.05" stroke="#c65b3d" stroke-width="1.4" stroke-linecap="round" />
        <rect x="773.47" y="297.67" width="8.49" height="14.49" rx="1.4" fill="#c65b3d" opacity="0.82" />
      </g><g>
        <line x1="792.35" y1="323.74" x2="792.35" y2="367.45" stroke="#0f766e" stroke-width="1.4" stroke-linecap="round" />
        <rect x="788.11" y="327.61" width="8.49" height="23.36" rx="1.4" fill="#0f766e" opacity="0.9" />
      </g><g>
        <line x1="806.98" y1="333.07" x2="806.98" y2="358.93" stroke="#c65b3d" stroke-width="1.4" stroke-linecap="round" />
        <rect x="802.74" y="334.58" width="8.49" height="1.76" rx="1.4" fill="#c65b3d" opacity="0.82" />
      </g><g>
        <line x1="821.62" y1="331.49" x2="821.62" y2="364.03" stroke="#c65b3d" stroke-width="1.4" stroke-linecap="round" />
        <rect x="817.37" y="341.39" width="8.49" height="18.77" rx="1.4" fill="#c65b3d" opacity="0.82" />
      </g><g>
        <line x1="836.25" y1="321.14" x2="836.25" y2="367.4" stroke="#0f766e" stroke-width="1.4" stroke-linecap="round" />
        <rect x="832.01" y="324.45" width="8.49" height="42.41" rx="1.4" fill="#0f766e" opacity="0.9" />
      </g><g>
        <line x1="850.88" y1="252.33" x2="850.88" y2="333.38" stroke="#0f766e" stroke-width="1.4" stroke-linecap="round" />
        <rect x="846.64" y="266.25" width="8.49" height="66.06" rx="1.4" fill="#0f766e" opacity="0.9" />
      </g><g>
        <line x1="865.52" y1="244.06" x2="865.52" y2="361.23" stroke="#c65b3d" stroke-width="1.4" stroke-linecap="round" />
        <rect x="861.27" y="255.33" width="8.49" height="94.88" rx="1.4" fill="#c65b3d" opacity="0.82" />
      </g><g>
        <line x1="880.15" y1="380.51" x2="880.15" y2="417.03" stroke="#0f766e" stroke-width="1.4" stroke-linecap="round" />
        <rect x="875.91" y="389.44" width="8.49" height="3.93" rx="1.4" fill="#0f766e" opacity="0.9" />
      </g><g>
        <line x1="894.78" y1="323.58" x2="894.78" y2="370.31" stroke="#0f766e" stroke-width="1.4" stroke-linecap="round" />
        <rect x="890.54" y="362.81" width="8.49" height="5.66" rx="1.4" fill="#0f766e" opacity="0.9" />
      </g><g>
        <line x1="909.42" y1="366.23" x2="909.42" y2="388.26" stroke="#c65b3d" stroke-width="1.4" stroke-linecap="round" />
        <rect x="905.17" y="366.23" width="8.49" height="21.27" rx="1.4" fill="#c65b3d" opacity="0.82" />
      </g><g>
        <line x1="924.05" y1="373.27" x2="924.05" y2="415.14" stroke="#c65b3d" stroke-width="1.4" stroke-linecap="round" />
        <rect x="919.81" y="382.37" width="8.49" height="30.94" rx="1.4" fill="#c65b3d" opacity="0.82" />
      </g><g>
        <line x1="938.68" y1="503.08" x2="938.68" y2="552" stroke="#c65b3d" stroke-width="1.4" stroke-linecap="round" />
        <rect x="934.44" y="520.22" width="8.49" height="17.55" rx="1.4" fill="#c65b3d" opacity="0.82" />
      </g>
  <polyline fill="none" stroke="#113b52" stroke-width="2.2" stroke-linejoin="round" stroke-linecap="round" points="353.35,182.14 367.98,172.18 382.62,161.93 397.25,163.07 411.88,165.44 426.52,170.9 441.15,178.41 455.78,185 470.42,192.52 485.05,202.08 499.68,208.29 514.32,216.19 528.95,227.63 543.58,238.19 558.22,245.18 572.85,251.23 587.48,257.31 602.12,262.64 616.75,272.33 631.38,281.72 646.02,292.84 660.65,304.35 675.28,317.8 689.92,324.6 704.55,329.45 719.18,329.61 733.82,329.38 748.45,330.84 763.08,331.22 777.72,331.58 792.35,332.95 806.98,332.74 821.62,334.08 836.25,334.13 850.88,333.73 865.52,338.52 880.15,342.86 894.78,346.95 909.42,347.6 924.05,348.63 938.68,355.67" />
  <polyline fill="none" stroke="#7a8f27" stroke-width="2.2" stroke-linejoin="round" stroke-linecap="round" points="792.35,257.69 806.98,256.94 821.62,256.68 836.25,259.26 850.88,260.76 865.52,263.7 880.15,267.95 894.78,272.65 909.42,277.83 924.05,283.82 938.68,291.06" />

  <g>
    <text x="75.32" y="576" text-anchor="middle" font-size="12" font-family="Avenir Next, Segoe UI, sans-serif" fill="#6d7887">Apr 28</text><text x="353.35" y="576" text-anchor="middle" font-size="12" font-family="Avenir Next, Segoe UI, sans-serif" fill="#6d7887">May 26</text><text x="646.02" y="576" text-anchor="middle" font-size="12" font-family="Avenir Next, Segoe UI, sans-serif" fill="#6d7887">Jun 24</text><text x="938.68" y="576" text-anchor="middle" font-size="12" font-family="Avenir Next, Segoe UI, sans-serif" fill="#6d7887">Jul 23</text>
  </g>

  <g transform="translate(68, 586)">
    <rect x="0" y="-14" width="12" height="3" rx="2" fill="#113b52" />
    <text x="18" y="-8" font-size="12" font-family="Avenir Next, Segoe UI, sans-serif" fill="#506274">SMA20</text>
    <rect x="88" y="-14" width="12" height="3" rx="2" fill="#7a8f27" />
    <text x="106" y="-8" font-size="12" font-family="Avenir Next, Segoe UI, sans-serif" fill="#506274">SMA50</text>
    <text x="878" y="-8" text-anchor="end" font-size="12" font-family="Avenir Next, Segoe UI, sans-serif" fill="#506274">Last 60 sessions</text>
  </g>
</svg>