<?xml version="1.0" encoding="UTF-8"?>
<svg xmlns="http://www.w3.org/2000/svg" width="980" height="620" viewBox="0 0 980 620" role="img" aria-label="KNSL chart snapshot">
  <defs>
    <linearGradient id="bg" x1="0%" x2="100%" y1="0%" y2="100%">
      <stop offset="0%" stop-color="#f8fbfe" />
      <stop offset="100%" stop-color="#eef4f8" />
    </linearGradient>
  </defs>
  <rect width="980" height="620" rx="24" fill="url(#bg)" />
  <rect x="18" y="18" width="944" height="584" rx="20" fill="#ffffff" stroke="#d7e0e8" />
  <text x="68" y="44" font-size="28" font-weight="700" font-family="Avenir Next, Segoe UI, sans-serif" fill="#17212b">KNSL Candlestick Snapshot</text>
  <text x="68" y="66" font-size="15" font-family="Avenir Next, Segoe UI, sans-serif" fill="#5e6a78">Needs More Confirmation | No major pattern | Close 325.64</text>
  <text x="946" y="44" text-anchor="end" font-size="14" font-family="Avenir Next, Segoe UI, sans-serif" fill="#4d6478">Trend: Mixed</text>
  <text x="946" y="64" text-anchor="end" font-size="14" font-family="Avenir Next, Segoe UI, sans-serif" fill="#4d6478">Scores B 18 / P 45 / RS 70</text>

  <g>
    <g>
        <line x1="68" y1="74" x2="946" y2="74" stroke="#e6edf4" stroke-width="1" />
        <text x="56" y="78" text-anchor="end" font-size="12" font-family="Avenir Next, Segoe UI, sans-serif" fill="#6d7887">356.67</text>
      </g><g>
        <line x1="68" y1="193.5" x2="946" y2="193.5" stroke="#e6edf4" stroke-width="1" />
        <text x="56" y="197.5" text-anchor="end" font-size="12" font-family="Avenir Next, Segoe UI, sans-serif" fill="#6d7887">339.30</text>
      </g><g>
        <line x1="68" y1="313" x2="946" y2="313" stroke="#e6edf4" stroke-width="1" />
        <text x="56" y="317" text-anchor="end" font-size="12" font-family="Avenir Next, Segoe UI, sans-serif" fill="#6d7887">321.94</text>
      </g><g>
        <line x1="68" y1="432.5" x2="946" y2="432.5" stroke="#e6edf4" stroke-width="1" />
        <text x="56" y="436.5" text-anchor="end" font-size="12" font-family="Avenir Next, Segoe UI, sans-serif" fill="#6d7887">304.57</text>
      </g><g>
        <line x1="68" y1="552" x2="946" y2="552" stroke="#e6edf4" stroke-width="1" />
        <text x="56" y="556" text-anchor="end" font-size="12" font-family="Avenir Next, Segoe UI, sans-serif" fill="#6d7887">287.20</text>
      </g>
  </g>

  <line x1="68" y1="74" x2="946" y2="74" stroke="#d9a441" stroke-width="1.6" stroke-dasharray="8 6" />
         <text x="946" y="66" text-anchor="end" font-size="12" font-family="Avenir Next, Segoe UI, sans-serif" fill="#a87416">Resistance 356.67</text>
  <line x1="68" y1="422.64" x2="946" y2="422.64" stroke="#0f766e" stroke-width="1.6" stroke-dasharray="8 6" opacity="0.8" />
         <text x="946" y="414.64" text-anchor="end" font-size="12" font-family="Avenir Next, Segoe UI, sans-serif" fill="#0f766e">Support 306.00</text>

  <g>
        <line x1="75.32" y1="172.12" x2="75.32" y2="279.53" stroke="#c65b3d" stroke-width="1.4" stroke-linecap="round" />
        <rect x="71.07" y="172.12" width="8.49" height="100.87" rx="1.4" fill="#c65b3d" opacity="0.82" />
      </g><g>
        <line x1="89.95" y1="236.25" x2="89.95" y2="298.79" stroke="#c65b3d" stroke-width="1.4" stroke-linecap="round" />
        <rect x="85.71" y="253.45" width="8.49" height="10.39" rx="1.4" fill="#c65b3d" opacity="0.82" />
      </g><g>
        <line x1="104.58" y1="240.99" x2="104.58" y2="305.6" stroke="#0f766e" stroke-width="1.4" stroke-linecap="round" />
        <rect x="100.34" y="250.42" width="8.49" height="32.48" rx="1.4" fill="#0f766e" opacity="0.9" />
      </g><g>
        <line x1="119.22" y1="249.94" x2="119.22" y2="315.86" stroke="#c65b3d" stroke-width="1.4" stroke-linecap="round" />
        <rect x="114.97" y="277.25" width="8.49" height="24.22" rx="1.4" fill="#c65b3d" opacity="0.82" />
      </g><g>
        <line x1="133.85" y1="268.17" x2="133.85" y2="404.68" stroke="#c65b3d" stroke-width="1.4" stroke-linecap="round" />
        <rect x="129.61" y="283.86" width="8.49" height="99.29" rx="1.4" fill="#c65b3d" opacity="0.82" />
      </g><g>
        <line x1="148.48" y1="340.63" x2="148.48" y2="442.73" stroke="#c65b3d" stroke-width="1.4" stroke-linecap="round" />
        <rect x="144.24" y="399.52" width="8.49" height="35.78" rx="1.4" fill="#c65b3d" opacity="0.82" />
      </g><g>
        <line x1="163.12" y1="405.58" x2="163.12" y2="462.34" stroke="#0f766e" stroke-width="1.4" stroke-linecap="round" />
        <rect x="158.87" y="429.46" width="8.49" height="5.85" rx="1.4" fill="#0f766e" opacity="0.9" />
      </g><g>
        <line x1="177.75" y1="373.37" x2="177.75" y2="439.78" stroke="#c65b3d" stroke-width="1.4" stroke-linecap="round" />
        <rect x="173.51" y="419.13" width="8.49" height="19.95" rx="1.4" fill="#c65b3d" opacity="0.82" />
      </g><g>
        <line x1="192.38" y1="388.24" x2="192.38" y2="506.73" stroke="#0f766e" stroke-width="1.4" stroke-linecap="round" />
        <rect x="188.14" y="403.17" width="8.49" height="39.63" rx="1.4" fill="#0f766e" opacity="0.9" />
      </g><g>
        <line x1="207.02" y1="381.39" x2="207.02" y2="440.32" stroke="#c65b3d" stroke-width="1.4" stroke-linecap="round" />
        <rect x="202.77" y="401.31" width="8.49" height="29.11" rx="1.4" fill="#c65b3d" opacity="0.82" />
      </g><g>
        <line x1="221.65" y1="431.59" x2="221.65" y2="483.88" stroke="#c65b3d" stroke-width="1.4" stroke-linecap="round" />
        <rect x="217.41" y="431.59" width="8.49" height="34.27" rx="1.4" fill="#c65b3d" opacity="0.82" />
      </g><g>
        <line x1="236.28" y1="410.26" x2="236.28" y2="467.4" stroke="#0f766e" stroke-width="1.4" stroke-linecap="round" />
        <rect x="232.04" y="441.98" width="8.49" height="3.23" rx="1.4" fill="#0f766e" opacity="0.9" />
      </g><g>
        <line x1="250.92" y1="423.13" x2="250.92" y2="491.04" stroke="#0f766e" stroke-width="1.4" stroke-linecap="round" />
        <rect x="246.67" y="460.76" width="8.49" height="5.57" rx="1.4" fill="#0f766e" opacity="0.9" />
      </g><g>
        <line x1="265.55" y1="412.67" x2="265.55" y2="471.15" stroke="#0f766e" stroke-width="1.4" stroke-linecap="round" />
        <rect x="261.31" y="437.57" width="8.49" height="15.34" rx="1.4" fill="#0f766e" opacity="0.9" />
      </g><g>
        <line x1="280.18" y1="374" x2="280.18" y2="415.25" stroke="#0f766e" stroke-width="1.4" stroke-linecap="round" />
        <rect x="275.94" y="386.24" width="8.49" height="26.08" rx="1.4" fill="#0f766e" opacity="0.9" />
      </g><g>
        <line x1="294.82" y1="263.18" x2="294.82" y2="386.18" stroke="#0f766e" stroke-width="1.4" stroke-linecap="round" />
        <rect x="290.57" y="293.49" width="8.49" height="92.68" rx="1.4" fill="#0f766e" opacity="0.9" />
      </g><g>
        <line x1="309.45" y1="261.7" x2="309.45" y2="386.31" stroke="#c65b3d" stroke-width="1.4" stroke-linecap="round" />
        <rect x="305.21" y="283.72" width="8.49" height="86.56" rx="1.4" fill="#c65b3d" opacity="0.82" />
      </g><g>
        <line x1="324.08" y1="370.35" x2="324.08" y2="414.73" stroke="#c65b3d" stroke-width="1.4" stroke-linecap="round" />
        <rect x="319.84" y="374.48" width="8.49" height="8.94" rx="1.4" fill="#c65b3d" opacity="0.82" />
      </g><g>
        <line x1="338.72" y1="368.7" x2="338.72" y2="437.57" stroke="#0f766e" stroke-width="1.4" stroke-linecap="round" />
        <rect x="334.47" y="381.15" width="8.49" height="31.03" rx="1.4" fill="#0f766e" opacity="0.9" />
      </g><g>
        <line x1="353.35" y1="368.15" x2="353.35" y2="417.76" stroke="#c65b3d" stroke-width="1.4" stroke-linecap="round" />
        <rect x="349.11" y="373.58" width="8.49" height="20.23" rx="1.4" fill="#c65b3d" opacity="0.82" />
      </g><g>
        <line x1="367.98" y1="370.8" x2="367.98" y2="425.12" stroke="#0f766e" stroke-width="1.4" stroke-linecap="round" />
        <rect x="363.74" y="381.22" width="8.49" height="22.78" rx="1.4" fill="#0f766e" opacity="0.9" />
      </g><g>
        <line x1="382.62" y1="352.01" x2="382.62" y2="422.16" stroke="#c65b3d" stroke-width="1.4" stroke-linecap="round" />
        <rect x="378.37" y="378.19" width="8.49" height="43.97" rx="1.4" fill="#c65b3d" opacity="0.82" />
      </g><g>
        <line x1="397.25" y1="385.9" x2="397.25" y2="463.93" stroke="#0f766e" stroke-width="1.4" stroke-linecap="round" />
        <rect x="393.01" y="409.02" width="8.49" height="37.91" rx="1.4" fill="#0f766e" opacity="0.9" />
      </g><g>
        <line x1="411.88" y1="367.87" x2="411.88" y2="443.46" stroke="#c65b3d" stroke-width="1.4" stroke-linecap="round" />
        <rect x="407.64" y="416.31" width="8.49" height="14.79" rx="1.4" fill="#c65b3d" opacity="0.82" />
      </g><g>
        <line x1="426.52" y1="398.18" x2="426.52" y2="462.34" stroke="#0f766e" stroke-width="1.4" stroke-linecap="round" />
        <rect x="422.27" y="439.64" width="8.49" height="3.65" rx="1.4" fill="#0f766e" opacity="0.9" />
      </g><g>
        <line x1="441.15" y1="451.89" x2="441.15" y2="505.21" stroke="#c65b3d" stroke-width="1.4" stroke-linecap="round" />
        <rect x="436.91" y="463.24" width="8.49" height="32.34" rx="1.4" fill="#c65b3d" opacity="0.82" />
      </g><g>
        <line x1="455.78" y1="506.68" x2="455.78" y2="552" stroke="#c65b3d" stroke-width="1.4" stroke-linecap="round" />
        <rect x="451.54" y="507.55" width="8.49" height="23.81" rx="1.4" fill="#c65b3d" opacity="0.82" />
      </g><g>
        <line x1="470.42" y1="450.23" x2="470.42" y2="525.13" stroke="#c65b3d" stroke-width="1.4" stroke-linecap="round" />
        <rect x="466.17" y="488.22" width="8.49" height="5.3" rx="1.4" fill="#c65b3d" opacity="0.82" />
      </g><g>
        <line x1="485.05" y1="417.83" x2="485.05" y2="489.73" stroke="#0f766e" stroke-width="1.4" stroke-linecap="round" />
        <rect x="480.81" y="421.82" width="8.49" height="46.44" rx="1.4" fill="#0f766e" opacity="0.9" />
      </g><g>
        <line x1="499.68" y1="427.53" x2="499.68" y2="479.27" stroke="#c65b3d" stroke-width="1.4" stroke-linecap="round" />
        <rect x="495.44" y="452.23" width="8.49" height="18.1" rx="1.4" fill="#c65b3d" opacity="0.82" />
      </g><g>
        <line x1="514.32" y1="421.47" x2="514.32" y2="470.74" stroke="#0f766e" stroke-width="1.4" stroke-linecap="round" />
        <rect x="510.07" y="441.57" width="8.49" height="13.14" rx="1.4" fill="#0f766e" opacity="0.9" />
      </g><g>
        <line x1="528.95" y1="355.35" x2="528.95" y2="415.76" stroke="#0f766e" stroke-width="1.4" stroke-linecap="round" />
        <rect x="524.71" y="370.56" width="8.49" height="35.23" rx="1.4" fill="#0f766e" opacity="0.9" />
      </g><g>
        <line x1="543.58" y1="348.68" x2="543.58" y2="391.13" stroke="#c65b3d" stroke-width="1.4" stroke-linecap="round" />
        <rect x="539.34" y="370.49" width="8.49" height="20.09" rx="1.4" fill="#c65b3d" opacity="0.82" />
      </g><g>
        <line x1="558.22" y1="368.49" x2="558.22" y2="430.83" stroke="#0f766e" stroke-width="1.4" stroke-linecap="round" />
        <rect x="553.97" y="385.63" width="8.49" height="8.05" rx="1.4" fill="#0f766e" opacity="0.9" />
      </g><g>
        <line x1="572.85" y1="331.48" x2="572.85" y2="385.42" stroke="#c65b3d" stroke-width="1.4" stroke-linecap="round" />
        <rect x="568.61" y="381.36" width="8.49" height="1.5" rx="1.4" fill="#c65b3d" opacity="0.82" />
      </g><g>
        <line x1="587.48" y1="340.8" x2="587.48" y2="392.23" stroke="#c65b3d" stroke-width="1.4" stroke-linecap="round" />
        <rect x="583.24" y="372.97" width="8.49" height="3.65" rx="1.4" fill="#c65b3d" opacity="0.82" />
      </g><g>
        <line x1="602.12" y1="359.75" x2="602.12" y2="423.47" stroke="#c65b3d" stroke-width="1.4" stroke-linecap="round" />
        <rect x="597.87" y="392.16" width="8.49" height="8.33" rx="1.4" fill="#c65b3d" opacity="0.82" />
      </g><g>
        <line x1="616.75" y1="375.72" x2="616.75" y2="427.6" stroke="#c65b3d" stroke-width="1.4" stroke-linecap="round" />
        <rect x="612.51" y="396.57" width="8.49" height="6.47" rx="1.4" fill="#c65b3d" opacity="0.82" />
      </g><g>
        <line x1="631.38" y1="361.54" x2="631.38" y2="501.43" stroke="#c65b3d" stroke-width="1.4" stroke-linecap="round" />
        <rect x="627.14" y="416.73" width="8.49" height="81.26" rx="1.4" fill="#c65b3d" opacity="0.82" />
      </g><g>
        <line x1="646.02" y1="387.96" x2="646.02" y2="459.99" stroke="#0f766e" stroke-width="1.4" stroke-linecap="round" />
        <rect x="641.77" y="433.1" width="8.49" height="20.44" rx="1.4" fill="#0f766e" opacity="0.9" />
      </g><g>
        <line x1="660.65" y1="344.44" x2="660.65" y2="422.64" stroke="#0f766e" stroke-width="1.4" stroke-linecap="round" />
        <rect x="656.41" y="392.44" width="8.49" height="24.15" rx="1.4" fill="#0f766e" opacity="0.9" />
      </g><g>
        <line x1="675.28" y1="371.18" x2="675.28" y2="416.18" stroke="#0f766e" stroke-width="1.4" stroke-linecap="round" />
        <rect x="671.04" y="405.92" width="8.49" height="2.61" rx="1.4" fill="#0f766e" opacity="0.9" />
      </g><g>
        <line x1="689.92" y1="268.31" x2="689.92" y2="398.49" stroke="#0f766e" stroke-width="1.4" stroke-linecap="round" />
        <rect x="685.67" y="268.31" width="8.49" height="129.56" rx="1.4" fill="#0f766e" opacity="0.9" />
      </g><g>
        <line x1="704.55" y1="242.03" x2="704.55" y2="303.2" stroke="#0f766e" stroke-width="1.4" stroke-linecap="round" />
        <rect x="700.31" y="243.61" width="8.49" height="1.5" rx="1.4" fill="#0f766e" opacity="0.9" />
      </g><g>
        <line x1="719.18" y1="237.42" x2="719.18" y2="273.26" stroke="#c65b3d" stroke-width="1.4" stroke-linecap="round" />
        <rect x="714.94" y="251.11" width="8.49" height="7.71" rx="1.4" fill="#c65b3d" opacity="0.82" />
      </g><g>
        <line x1="733.82" y1="141.64" x2="733.82" y2="241.06" stroke="#0f766e" stroke-width="1.4" stroke-linecap="round" />
        <rect x="729.57" y="152.44" width="8.49" height="82.36" rx="1.4" fill="#0f766e" opacity="0.9" />
      </g><g>
        <line x1="748.45" y1="79.37" x2="748.45" y2="178.04" stroke="#0f766e" stroke-width="1.4" stroke-linecap="round" />
        <rect x="744.21" y="86.52" width="8.49" height="57.45" rx="1.4" fill="#0f766e" opacity="0.9" />
      </g><g>
        <line x1="763.08" y1="80.4" x2="763.08" y2="151.06" stroke="#c65b3d" stroke-width="1.4" stroke-linecap="round" />
        <rect x="758.84" y="118.11" width="8.49" height="20.85" rx="1.4" fill="#c65b3d" opacity="0.82" />
      </g><g>
        <line x1="777.72" y1="74.02" x2="777.72" y2="144.32" stroke="#c65b3d" stroke-width="1.4" stroke-linecap="round" />
        <rect x="773.47" y="104.27" width="8.49" height="24.36" rx="1.4" fill="#c65b3d" opacity="0.82" />
      </g><g>
        <line x1="792.35" y1="117.28" x2="792.35" y2="152.41" stroke="#c65b3d" stroke-width="1.4" stroke-linecap="round" />
        <rect x="788.11" y="127.74" width="8.49" height="19.95" rx="1.4" fill="#c65b3d" opacity="0.82" />
      </g><g>
        <line x1="806.98" y1="156.22" x2="806.98" y2="211.13" stroke="#c65b3d" stroke-width="1.4" stroke-linecap="round" />
        <rect x="802.74" y="162.49" width="8.49" height="35.99" rx="1.4" fill="#c65b3d" opacity="0.82" />
      </g><g>
        <line x1="821.62" y1="154.59" x2="821.62" y2="206.87" stroke="#c65b3d" stroke-width="1.4" stroke-linecap="round" />
        <rect x="817.37" y="183.88" width="8.49" height="1.5" rx="1.4" fill="#c65b3d" opacity="0.82" />
      </g><g>
        <line x1="836.25" y1="139.16" x2="836.25" y2="184.23" stroke="#0f766e" stroke-width="1.4" stroke-linecap="round" />
        <rect x="832.01" y="154.57" width="8.49" height="3.85" rx="1.4" fill="#0f766e" opacity="0.9" />
      </g><g>
        <line x1="850.88" y1="168.57" x2="850.88" y2="216.4" stroke="#c65b3d" stroke-width="1.4" stroke-linecap="round" />
        <rect x="846.64" y="190.15" width="8.49" height="18.23" rx="1.4" fill="#c65b3d" opacity="0.82" />
      </g><g>
        <line x1="865.52" y1="215.64" x2="865.52" y2="332.09" stroke="#c65b3d" stroke-width="1.4" stroke-linecap="round" />
        <rect x="861.27" y="243.61" width="8.49" height="85.39" rx="1.4" fill="#c65b3d" opacity="0.82" />
      </g><g>
        <line x1="880.15" y1="205.11" x2="880.15" y2="324.87" stroke="#0f766e" stroke-width="1.4" stroke-linecap="round" />
        <rect x="875.91" y="219.53" width="8.49" height="105.34" rx="1.4" fill="#0f766e" opacity="0.9" />
      </g><g>
        <line x1="894.78" y1="120.17" x2="894.78" y2="195.58" stroke="#0f766e" stroke-width="1.4" stroke-linecap="round" />
        <rect x="890.54" y="161.25" width="8.49" height="34.33" rx="1.4" fill="#0f766e" opacity="0.9" />
      </g><g>
        <line x1="909.42" y1="92.1" x2="909.42" y2="180.31" stroke="#0f766e" stroke-width="1.4" stroke-linecap="round" />
        <rect x="905.17" y="119" width="8.49" height="39.01" rx="1.4" fill="#0f766e" opacity="0.9" />
      </g><g>
        <line x1="924.05" y1="113.01" x2="924.05" y2="209.41" stroke="#c65b3d" stroke-width="1.4" stroke-linecap="round" />
        <rect x="919.81" y="155.12" width="8.49" height="37.29" rx="1.4" fill="#c65b3d" opacity="0.82" />
      </g><g>
        <line x1="938.68" y1="172.74" x2="938.68" y2="305.74" stroke="#c65b3d" stroke-width="1.4" stroke-linecap="round" />
        <rect x="934.44" y="219.32" width="8.49" height="68.19" rx="1.4" fill="#c65b3d" opacity="0.82" />
      </g>
  <polyline fill="none" stroke="#113b52" stroke-width="2.2" stroke-linejoin="round" stroke-linecap="round" points="353.35,381.19 367.98,386.61 382.62,394.52 397.25,402.45 411.88,408.93 426.52,411.76 441.15,414.77 455.78,419.87 470.42,422.59 485.05,423.52 499.68,425.52 514.32,424.3 528.95,420.73 543.58,417.22 558.22,414.62 572.85,414.44 587.48,418.59 602.12,420.1 616.75,421.08 631.38,426.93 646.02,428.89 660.65,429.45 675.28,428.64 689.92,421.6 704.55,412.23 719.18,403.19 733.82,386.03 748.45,363.79 763.08,346.06 777.72,331.4 792.35,315.27 806.98,303.12 821.62,293.83 836.25,282.03 850.88,273.16 865.52,270.49 880.15,262.63 894.78,250.67 909.42,236.47 924.05,221.19 938.68,213.91" />
  <polyline fill="none" stroke="#7a8f27" stroke-width="2.2" stroke-linejoin="round" stroke-linecap="round" points="792.35,368.5 806.98,367.01 821.62,365.43 836.25,363.51 850.88,361.65 865.52,360.57 880.15,356.25 894.78,350.89 909.42,344.49 924.05,340.27 938.68,337.41" />

  <g>
    <text x="75.32" y="576" text-anchor="middle" font-size="12" font-family="Avenir Next, Segoe UI, sans-serif" fill="#6d7887">Apr 27</text><text x="353.35" y="576" text-anchor="middle" font-size="12" font-family="Avenir Next, Segoe UI, sans-serif" fill="#6d7887">May 22</text><text x="646.02" y="576" text-anchor="middle" font-size="12" font-family="Avenir Next, Segoe UI, sans-serif" fill="#6d7887">Jun 23</text><text x="938.68" y="576" text-anchor="middle" font-size="12" font-family="Avenir Next, Segoe UI, sans-serif" fill="#6d7887">Jul 22</text>
  </g>

  <g transform="translate(68, 586)">
    <rect x="0" y="-14" width="12" height="3" rx="2" fill="#113b52" />
    <text x="18" y="-8" font-size="12" font-family="Avenir Next, Segoe UI, sans-serif" fill="#506274">SMA20</text>
    <rect x="88" y="-14" width="12" height="3" rx="2" fill="#7a8f27" />
    <text x="106" y="-8" font-size="12" font-family="Avenir Next, Segoe UI, sans-serif" fill="#506274">SMA50</text>
    <text x="878" y="-8" text-anchor="end" font-size="12" font-family="Avenir Next, Segoe UI, sans-serif" fill="#506274">Last 60 sessions</text>
  </g>
</svg>