<?xml version="1.0" encoding="UTF-8"?>
<svg xmlns="http://www.w3.org/2000/svg" width="980" height="620" viewBox="0 0 980 620" role="img" aria-label="LMT chart snapshot">
  <defs>
    <linearGradient id="bg" x1="0%" x2="100%" y1="0%" y2="100%">
      <stop offset="0%" stop-color="#f8fbfe" />
      <stop offset="100%" stop-color="#eef4f8" />
    </linearGradient>
  </defs>
  <rect width="980" height="620" rx="24" fill="url(#bg)" />
  <rect x="18" y="18" width="944" height="584" rx="20" fill="#ffffff" stroke="#d7e0e8" />
  <text x="68" y="44" font-size="28" font-weight="700" font-family="Avenir Next, Segoe UI, sans-serif" fill="#17212b">LMT Candlestick Snapshot</text>
  <text x="68" y="66" font-size="15" font-family="Avenir Next, Segoe UI, sans-serif" fill="#5e6a78">Breakout Candidate | 20-Day Breakout Close | Close 568.59</text>
  <text x="946" y="44" text-anchor="end" font-size="14" font-family="Avenir Next, Segoe UI, sans-serif" fill="#4d6478">Trend: Mixed</text>
  <text x="946" y="64" text-anchor="end" font-size="14" font-family="Avenir Next, Segoe UI, sans-serif" fill="#4d6478">Scores B 80 / P 28 / RS 94</text>

  <g>
    <g>
        <line x1="68" y1="74" x2="946" y2="74" stroke="#e6edf4" stroke-width="1" />
        <text x="56" y="78" text-anchor="end" font-size="12" font-family="Avenir Next, Segoe UI, sans-serif" fill="#6d7887">576.00</text>
      </g><g>
        <line x1="68" y1="193.5" x2="946" y2="193.5" stroke="#e6edf4" stroke-width="1" />
        <text x="56" y="197.5" text-anchor="end" font-size="12" font-family="Avenir Next, Segoe UI, sans-serif" fill="#6d7887">553.79</text>
      </g><g>
        <line x1="68" y1="313" x2="946" y2="313" stroke="#e6edf4" stroke-width="1" />
        <text x="56" y="317" text-anchor="end" font-size="12" font-family="Avenir Next, Segoe UI, sans-serif" fill="#6d7887">531.57</text>
      </g><g>
        <line x1="68" y1="432.5" x2="946" y2="432.5" stroke="#e6edf4" stroke-width="1" />
        <text x="56" y="436.5" text-anchor="end" font-size="12" font-family="Avenir Next, Segoe UI, sans-serif" fill="#6d7887">509.36</text>
      </g><g>
        <line x1="68" y1="552" x2="946" y2="552" stroke="#e6edf4" stroke-width="1" />
        <text x="56" y="556" text-anchor="end" font-size="12" font-family="Avenir Next, Segoe UI, sans-serif" fill="#6d7887">487.15</text>
      </g>
  </g>

  <line x1="68" y1="227.49" x2="946" y2="227.49" stroke="#d9a441" stroke-width="1.6" stroke-dasharray="8 6" />
         <text x="946" y="219.49" text-anchor="end" font-size="12" font-family="Avenir Next, Segoe UI, sans-serif" fill="#a87416">Resistance 547.47</text>
  <line x1="68" y1="552" x2="946" y2="552" stroke="#0f766e" stroke-width="1.6" stroke-dasharray="8 6" opacity="0.8" />
         <text x="946" y="544" text-anchor="end" font-size="12" font-family="Avenir Next, Segoe UI, sans-serif" fill="#0f766e">Support 487.15</text>

  <g>
        <line x1="75.32" y1="382.37" x2="75.32" y2="442.2" stroke="#c65b3d" stroke-width="1.4" stroke-linecap="round" />
        <rect x="71.07" y="383.66" width="8.49" height="33.09" rx="1.4" fill="#c65b3d" opacity="0.82" />
      </g><g>
        <line x1="89.95" y1="396.79" x2="89.95" y2="472.4" stroke="#c65b3d" stroke-width="1.4" stroke-linecap="round" />
        <rect x="85.71" y="407.71" width="8.49" height="22.38" rx="1.4" fill="#c65b3d" opacity="0.82" />
      </g><g>
        <line x1="104.58" y1="384.79" x2="104.58" y2="440.37" stroke="#0f766e" stroke-width="1.4" stroke-linecap="round" />
        <rect x="100.34" y="386.19" width="8.49" height="37.07" rx="1.4" fill="#0f766e" opacity="0.9" />
      </g><g>
        <line x1="119.22" y1="377.53" x2="119.22" y2="417.68" stroke="#c65b3d" stroke-width="1.4" stroke-linecap="round" />
        <rect x="114.97" y="386.3" width="8.49" height="27.87" rx="1.4" fill="#c65b3d" opacity="0.82" />
      </g><g>
        <line x1="133.85" y1="351.06" x2="133.85" y2="418.31" stroke="#0f766e" stroke-width="1.4" stroke-linecap="round" />
        <rect x="129.61" y="385.22" width="8.49" height="25.5" rx="1.4" fill="#0f766e" opacity="0.9" />
      </g><g>
        <line x1="148.48" y1="375.27" x2="148.48" y2="442.57" stroke="#c65b3d" stroke-width="1.4" stroke-linecap="round" />
        <rect x="144.24" y="375.27" width="8.49" height="59.56" rx="1.4" fill="#c65b3d" opacity="0.82" />
      </g><g>
        <line x1="163.12" y1="405.02" x2="163.12" y2="481.2" stroke="#0f766e" stroke-width="1.4" stroke-linecap="round" />
        <rect x="158.87" y="406.15" width="8.49" height="28.59" rx="1.4" fill="#0f766e" opacity="0.9" />
      </g><g>
        <line x1="177.75" y1="399.48" x2="177.75" y2="466.57" stroke="#c65b3d" stroke-width="1.4" stroke-linecap="round" />
        <rect x="173.51" y="402.04" width="8.49" height="14.07" rx="1.4" fill="#c65b3d" opacity="0.82" />
      </g><g>
        <line x1="192.38" y1="418.31" x2="192.38" y2="458.66" stroke="#c65b3d" stroke-width="1.4" stroke-linecap="round" />
        <rect x="188.14" y="436.66" width="8.49" height="11.19" rx="1.4" fill="#c65b3d" opacity="0.82" />
      </g><g>
        <line x1="207.02" y1="398.78" x2="207.02" y2="469.69" stroke="#0f766e" stroke-width="1.4" stroke-linecap="round" />
        <rect x="202.77" y="416.96" width="8.49" height="39" rx="1.4" fill="#0f766e" opacity="0.9" />
      </g><g>
        <line x1="221.65" y1="361.77" x2="221.65" y2="415.62" stroke="#0f766e" stroke-width="1.4" stroke-linecap="round" />
        <rect x="217.41" y="369.89" width="8.49" height="45.73" rx="1.4" fill="#0f766e" opacity="0.9" />
      </g><g>
        <line x1="236.28" y1="370.59" x2="236.28" y2="424.85" stroke="#0f766e" stroke-width="1.4" stroke-linecap="round" />
        <rect x="232.04" y="375.59" width="8.49" height="13.29" rx="1.4" fill="#0f766e" opacity="0.9" />
      </g><g>
        <line x1="250.92" y1="367.58" x2="250.92" y2="400.83" stroke="#c65b3d" stroke-width="1.4" stroke-linecap="round" />
        <rect x="246.67" y="371.29" width="8.49" height="1.78" rx="1.4" fill="#c65b3d" opacity="0.82" />
      </g><g>
        <line x1="265.55" y1="348.75" x2="265.55" y2="403.62" stroke="#c65b3d" stroke-width="1.4" stroke-linecap="round" />
        <rect x="261.31" y="367.95" width="8.49" height="28.78" rx="1.4" fill="#c65b3d" opacity="0.82" />
      </g><g>
        <line x1="280.18" y1="330.13" x2="280.18" y2="414.22" stroke="#0f766e" stroke-width="1.4" stroke-linecap="round" />
        <rect x="275.94" y="330.56" width="8.49" height="56.49" rx="1.4" fill="#0f766e" opacity="0.9" />
      </g><g>
        <line x1="294.82" y1="320.07" x2="294.82" y2="356.55" stroke="#c65b3d" stroke-width="1.4" stroke-linecap="round" />
        <rect x="290.57" y="334.89" width="8.49" height="4.71" rx="1.4" fill="#c65b3d" opacity="0.82" />
      </g><g>
        <line x1="309.45" y1="338.42" x2="309.45" y2="391.41" stroke="#c65b3d" stroke-width="1.4" stroke-linecap="round" />
        <rect x="305.21" y="339.6" width="8.49" height="21.73" rx="1.4" fill="#c65b3d" opacity="0.82" />
      </g><g>
        <line x1="324.08" y1="324.27" x2="324.08" y2="391.3" stroke="#c65b3d" stroke-width="1.4" stroke-linecap="round" />
        <rect x="319.84" y="357.84" width="8.49" height="2.42" rx="1.4" fill="#c65b3d" opacity="0.82" />
      </g><g>
        <line x1="338.72" y1="298.5" x2="338.72" y2="353.75" stroke="#0f766e" stroke-width="1.4" stroke-linecap="round" />
        <rect x="334.47" y="304.04" width="8.49" height="45.08" rx="1.4" fill="#0f766e" opacity="0.9" />
      </g><g>
        <line x1="353.35" y1="289.09" x2="353.35" y2="326.85" stroke="#c65b3d" stroke-width="1.4" stroke-linecap="round" />
        <rect x="349.11" y="289.19" width="8.49" height="16.68" rx="1.4" fill="#c65b3d" opacity="0.82" />
      </g><g>
        <line x1="367.98" y1="302.27" x2="367.98" y2="352.41" stroke="#c65b3d" stroke-width="1.4" stroke-linecap="round" />
        <rect x="363.74" y="310.82" width="8.49" height="4.52" rx="1.4" fill="#c65b3d" opacity="0.82" />
      </g><g>
        <line x1="382.62" y1="261.16" x2="382.62" y2="315.34" stroke="#0f766e" stroke-width="1.4" stroke-linecap="round" />
        <rect x="378.37" y="282.68" width="8.49" height="16.41" rx="1.4" fill="#0f766e" opacity="0.9" />
      </g><g>
        <line x1="397.25" y1="282.47" x2="397.25" y2="332.5" stroke="#c65b3d" stroke-width="1.4" stroke-linecap="round" />
        <rect x="393.01" y="287.9" width="8.49" height="31.15" rx="1.4" fill="#c65b3d" opacity="0.82" />
      </g><g>
        <line x1="411.88" y1="343.05" x2="411.88" y2="397.44" stroke="#c65b3d" stroke-width="1.4" stroke-linecap="round" />
        <rect x="407.64" y="353.86" width="8.49" height="40.24" rx="1.4" fill="#c65b3d" opacity="0.82" />
      </g><g>
        <line x1="426.52" y1="392.97" x2="426.52" y2="428.53" stroke="#c65b3d" stroke-width="1.4" stroke-linecap="round" />
        <rect x="422.27" y="404.86" width="8.49" height="5.76" rx="1.4" fill="#c65b3d" opacity="0.82" />
      </g><g>
        <line x1="441.15" y1="350.85" x2="441.15" y2="426.16" stroke="#c65b3d" stroke-width="1.4" stroke-linecap="round" />
        <rect x="436.91" y="416.96" width="8.49" height="1.5" rx="1.4" fill="#c65b3d" opacity="0.82" />
      </g><g>
        <line x1="455.78" y1="360.73" x2="455.78" y2="406.8" stroke="#0f766e" stroke-width="1.4" stroke-linecap="round" />
        <rect x="451.54" y="380.38" width="8.49" height="7.05" rx="1.4" fill="#0f766e" opacity="0.9" />
      </g><g>
        <line x1="470.42" y1="332.18" x2="470.42" y2="375.54" stroke="#0f766e" stroke-width="1.4" stroke-linecap="round" />
        <rect x="466.17" y="355.04" width="8.49" height="20.23" rx="1.4" fill="#0f766e" opacity="0.9" />
      </g><g>
        <line x1="485.05" y1="337.02" x2="485.05" y2="392.22" stroke="#c65b3d" stroke-width="1.4" stroke-linecap="round" />
        <rect x="480.81" y="359.13" width="8.49" height="15.76" rx="1.4" fill="#c65b3d" opacity="0.82" />
      </g><g>
        <line x1="499.68" y1="320.5" x2="499.68" y2="381.35" stroke="#0f766e" stroke-width="1.4" stroke-linecap="round" />
        <rect x="495.44" y="320.77" width="8.49" height="59.88" rx="1.4" fill="#0f766e" opacity="0.9" />
      </g><g>
        <line x1="514.32" y1="293.5" x2="514.32" y2="349.39" stroke="#c65b3d" stroke-width="1.4" stroke-linecap="round" />
        <rect x="510.07" y="298.61" width="8.49" height="49.66" rx="1.4" fill="#c65b3d" opacity="0.82" />
      </g><g>
        <line x1="528.95" y1="208.55" x2="528.95" y2="330.83" stroke="#0f766e" stroke-width="1.4" stroke-linecap="round" />
        <rect x="524.71" y="220.98" width="8.49" height="107.92" rx="1.4" fill="#0f766e" opacity="0.9" />
      </g><g>
        <line x1="543.58" y1="209.24" x2="543.58" y2="276.77" stroke="#c65b3d" stroke-width="1.4" stroke-linecap="round" />
        <rect x="539.34" y="230.01" width="8.49" height="35.88" rx="1.4" fill="#c65b3d" opacity="0.82" />
      </g><g>
        <line x1="558.22" y1="290.27" x2="558.22" y2="329.06" stroke="#c65b3d" stroke-width="1.4" stroke-linecap="round" />
        <rect x="553.97" y="292.31" width="8.49" height="27.22" rx="1.4" fill="#c65b3d" opacity="0.82" />
      </g><g>
        <line x1="572.85" y1="275.74" x2="572.85" y2="337.56" stroke="#0f766e" stroke-width="1.4" stroke-linecap="round" />
        <rect x="568.61" y="289.46" width="8.49" height="25.23" rx="1.4" fill="#0f766e" opacity="0.9" />
      </g><g>
        <line x1="587.48" y1="270.52" x2="587.48" y2="327.39" stroke="#0f766e" stroke-width="1.4" stroke-linecap="round" />
        <rect x="583.24" y="308.99" width="8.49" height="11.14" rx="1.4" fill="#0f766e" opacity="0.9" />
      </g><g>
        <line x1="602.12" y1="284.35" x2="602.12" y2="455" stroke="#c65b3d" stroke-width="1.4" stroke-linecap="round" />
        <rect x="597.87" y="291.56" width="8.49" height="132.4" rx="1.4" fill="#c65b3d" opacity="0.82" />
      </g><g>
        <line x1="616.75" y1="429.07" x2="616.75" y2="536.4" stroke="#c65b3d" stroke-width="1.4" stroke-linecap="round" />
        <rect x="612.51" y="437.14" width="8.49" height="80.16" rx="1.4" fill="#c65b3d" opacity="0.82" />
      </g><g>
        <line x1="631.38" y1="459.73" x2="631.38" y2="501.54" stroke="#0f766e" stroke-width="1.4" stroke-linecap="round" />
        <rect x="627.14" y="463.12" width="8.49" height="26.04" rx="1.4" fill="#0f766e" opacity="0.9" />
      </g><g>
        <line x1="646.02" y1="464.9" x2="646.02" y2="528.65" stroke="#c65b3d" stroke-width="1.4" stroke-linecap="round" />
        <rect x="641.77" y="467.08" width="8.49" height="60.77" rx="1.4" fill="#c65b3d" opacity="0.82" />
      </g><g>
        <line x1="660.65" y1="415.24" x2="660.65" y2="513.8" stroke="#0f766e" stroke-width="1.4" stroke-linecap="round" />
        <rect x="656.41" y="455.86" width="8.49" height="48.8" rx="1.4" fill="#0f766e" opacity="0.9" />
      </g><g>
        <line x1="675.28" y1="384.74" x2="675.28" y2="461.89" stroke="#0f766e" stroke-width="1.4" stroke-linecap="round" />
        <rect x="671.04" y="443.06" width="8.49" height="11.57" rx="1.4" fill="#0f766e" opacity="0.9" />
      </g><g>
        <line x1="689.92" y1="428.34" x2="689.92" y2="473.45" stroke="#c65b3d" stroke-width="1.4" stroke-linecap="round" />
        <rect x="685.67" y="437.14" width="8.49" height="34.59" rx="1.4" fill="#c65b3d" opacity="0.82" />
      </g><g>
        <line x1="704.55" y1="431.97" x2="704.55" y2="492.01" stroke="#0f766e" stroke-width="1.4" stroke-linecap="round" />
        <rect x="700.31" y="431.97" width="8.49" height="29.37" rx="1.4" fill="#0f766e" opacity="0.9" />
      </g><g>
        <line x1="719.18" y1="352.46" x2="719.18" y2="405.69" stroke="#0f766e" stroke-width="1.4" stroke-linecap="round" />
        <rect x="714.94" y="365.48" width="8.49" height="25.93" rx="1.4" fill="#0f766e" opacity="0.9" />
      </g><g>
        <line x1="733.82" y1="235.45" x2="733.82" y2="326.85" stroke="#0f766e" stroke-width="1.4" stroke-linecap="round" />
        <rect x="729.57" y="235.88" width="8.49" height="90.97" rx="1.4" fill="#0f766e" opacity="0.9" />
      </g><g>
        <line x1="748.45" y1="235.88" x2="748.45" y2="293.66" stroke="#c65b3d" stroke-width="1.4" stroke-linecap="round" />
        <rect x="744.21" y="240.77" width="8.49" height="37.66" rx="1.4" fill="#c65b3d" opacity="0.82" />
      </g><g>
        <line x1="763.08" y1="227.49" x2="763.08" y2="311.95" stroke="#c65b3d" stroke-width="1.4" stroke-linecap="round" />
        <rect x="758.84" y="235.39" width="8.49" height="57.13" rx="1.4" fill="#c65b3d" opacity="0.82" />
      </g><g>
        <line x1="777.72" y1="280.42" x2="777.72" y2="346.49" stroke="#c65b3d" stroke-width="1.4" stroke-linecap="round" />
        <rect x="773.47" y="280.42" width="8.49" height="52.02" rx="1.4" fill="#c65b3d" opacity="0.82" />
      </g><g>
        <line x1="792.35" y1="348.32" x2="792.35" y2="399.21" stroke="#c65b3d" stroke-width="1.4" stroke-linecap="round" />
        <rect x="788.11" y="361.82" width="8.49" height="22.81" rx="1.4" fill="#c65b3d" opacity="0.82" />
      </g><g>
        <line x1="806.98" y1="353.75" x2="806.98" y2="408.56" stroke="#0f766e" stroke-width="1.4" stroke-linecap="round" />
        <rect x="802.74" y="357.95" width="8.49" height="36.58" rx="1.4" fill="#0f766e" opacity="0.9" />
      </g><g>
        <line x1="821.62" y1="335.17" x2="821.62" y2="390.01" stroke="#c65b3d" stroke-width="1.4" stroke-linecap="round" />
        <rect x="817.37" y="348.32" width="8.49" height="23.29" rx="1.4" fill="#c65b3d" opacity="0.82" />
      </g><g>
        <line x1="836.25" y1="341.57" x2="836.25" y2="402.87" stroke="#c65b3d" stroke-width="1.4" stroke-linecap="round" />
        <rect x="832.01" y="384.09" width="8.49" height="18.13" rx="1.4" fill="#c65b3d" opacity="0.82" />
      </g><g>
        <line x1="850.88" y1="371.61" x2="850.88" y2="414.11" stroke="#c65b3d" stroke-width="1.4" stroke-linecap="round" />
        <rect x="846.64" y="403.08" width="8.49" height="1.99" rx="1.4" fill="#c65b3d" opacity="0.82" />
      </g><g>
        <line x1="865.52" y1="374.57" x2="865.52" y2="422.02" stroke="#c65b3d" stroke-width="1.4" stroke-linecap="round" />
        <rect x="861.27" y="402.2" width="8.49" height="7.94" rx="1.4" fill="#c65b3d" opacity="0.82" />
      </g><g>
        <line x1="880.15" y1="335.84" x2="880.15" y2="441.55" stroke="#c65b3d" stroke-width="1.4" stroke-linecap="round" />
        <rect x="875.91" y="380.65" width="8.49" height="55.04" rx="1.4" fill="#c65b3d" opacity="0.82" />
      </g><g>
        <line x1="894.78" y1="397.65" x2="894.78" y2="441.23" stroke="#c65b3d" stroke-width="1.4" stroke-linecap="round" />
        <rect x="890.54" y="425.68" width="8.49" height="5.86" rx="1.4" fill="#c65b3d" opacity="0.82" />
      </g><g>
        <line x1="909.42" y1="441.17" x2="909.42" y2="552" stroke="#0f766e" stroke-width="1.4" stroke-linecap="round" />
        <rect x="905.17" y="444.73" width="8.49" height="32.76" rx="1.4" fill="#0f766e" opacity="0.9" />
      </g><g>
        <line x1="924.05" y1="369.89" x2="924.05" y2="418.31" stroke="#c65b3d" stroke-width="1.4" stroke-linecap="round" />
        <rect x="919.81" y="397.92" width="8.49" height="7.69" rx="1.4" fill="#c65b3d" opacity="0.82" />
      </g><g>
        <line x1="938.68" y1="74" x2="938.68" y2="240.77" stroke="#0f766e" stroke-width="1.4" stroke-linecap="round" />
        <rect x="934.44" y="113.86" width="8.49" height="126.91" rx="1.4" fill="#0f766e" opacity="0.9" />
      </g>
  <polyline fill="none" stroke="#113b52" stroke-width="2.2" stroke-linejoin="round" stroke-linecap="round" points="353.35,383.56 367.98,378.49 382.62,371.12 397.25,367.77 411.88,366.76 426.52,368.03 441.15,367.2 455.78,365.91 470.42,362.86 485.05,359.21 499.68,354.4 514.32,353.32 528.95,345.59 543.58,340.23 558.22,336.37 572.85,334.31 587.48,332.78 602.12,335.91 616.75,343.77 631.38,351.72 646.02,362.82 660.65,369.85 675.28,377.86 689.92,385.5 704.55,387.39 719.18,385.13 733.82,376.02 748.45,370.92 763.08,367.8 777.72,365.68 792.35,368.87 806.98,369.35 821.62,376.88 836.25,383.7 850.88,387.98 865.52,394.01 880.15,400.35 894.78,400.73 909.42,397.1 924.05,394.22 938.68,373.52" />
  <polyline fill="none" stroke="#7a8f27" stroke-width="2.2" stroke-linejoin="round" stroke-linecap="round" points="792.35,372.39 806.98,371.22 821.62,370.05 836.25,370.37 850.88,370.19 865.52,370.68 880.15,370.7 894.78,371.21 909.42,371.78 924.05,370.94 938.68,364.88" />

  <g>
    <text x="75.32" y="576" text-anchor="middle" font-size="12" font-family="Avenir Next, Segoe UI, sans-serif" fill="#6d7887">Apr 28</text><text x="353.35" y="576" text-anchor="middle" font-size="12" font-family="Avenir Next, Segoe UI, sans-serif" fill="#6d7887">May 26</text><text x="646.02" y="576" text-anchor="middle" font-size="12" font-family="Avenir Next, Segoe UI, sans-serif" fill="#6d7887">Jun 24</text><text x="938.68" y="576" text-anchor="middle" font-size="12" font-family="Avenir Next, Segoe UI, sans-serif" fill="#6d7887">Jul 23</text>
  </g>

  <g transform="translate(68, 586)">
    <rect x="0" y="-14" width="12" height="3" rx="2" fill="#113b52" />
    <text x="18" y="-8" font-size="12" font-family="Avenir Next, Segoe UI, sans-serif" fill="#506274">SMA20</text>
    <rect x="88" y="-14" width="12" height="3" rx="2" fill="#7a8f27" />
    <text x="106" y="-8" font-size="12" font-family="Avenir Next, Segoe UI, sans-serif" fill="#506274">SMA50</text>
    <text x="878" y="-8" text-anchor="end" font-size="12" font-family="Avenir Next, Segoe UI, sans-serif" fill="#506274">Last 60 sessions</text>
  </g>
</svg>