<?xml version="1.0" encoding="UTF-8"?>
<svg xmlns="http://www.w3.org/2000/svg" width="980" height="620" viewBox="0 0 980 620" role="img" aria-label="MSFT chart snapshot">
  <defs>
    <linearGradient id="bg" x1="0%" x2="100%" y1="0%" y2="100%">
      <stop offset="0%" stop-color="#f8fbfe" />
      <stop offset="100%" stop-color="#eef4f8" />
    </linearGradient>
  </defs>
  <rect width="980" height="620" rx="24" fill="url(#bg)" />
  <rect x="18" y="18" width="944" height="584" rx="20" fill="#ffffff" stroke="#d7e0e8" />
  <text x="68" y="44" font-size="28" font-weight="700" font-family="Avenir Next, Segoe UI, sans-serif" fill="#17212b">MSFT Candlestick Snapshot</text>
  <text x="68" y="66" font-size="15" font-family="Avenir Next, Segoe UI, sans-serif" fill="#5e6a78">Trend Pullback Watch | Inside Day | Close 418.57</text>
  <text x="946" y="44" text-anchor="end" font-size="14" font-family="Avenir Next, Segoe UI, sans-serif" fill="#4d6478">Trend: Uptrend</text>
  <text x="946" y="64" text-anchor="end" font-size="14" font-family="Avenir Next, Segoe UI, sans-serif" fill="#4d6478">Scores B 46 / P 74 / RS 21</text>

  <g>
    <g>
        <line x1="68" y1="74" x2="946" y2="74" stroke="#e6edf4" stroke-width="1" />
        <text x="56" y="78" text-anchor="end" font-size="12" font-family="Avenir Next, Segoe UI, sans-serif" fill="#6d7887">433.70</text>
      </g><g>
        <line x1="68" y1="193.5" x2="946" y2="193.5" stroke="#e6edf4" stroke-width="1" />
        <text x="56" y="197.5" text-anchor="end" font-size="12" font-family="Avenir Next, Segoe UI, sans-serif" fill="#6d7887">414.34</text>
      </g><g>
        <line x1="68" y1="313" x2="946" y2="313" stroke="#e6edf4" stroke-width="1" />
        <text x="56" y="317" text-anchor="end" font-size="12" font-family="Avenir Next, Segoe UI, sans-serif" fill="#6d7887">394.99</text>
      </g><g>
        <line x1="68" y1="432.5" x2="946" y2="432.5" stroke="#e6edf4" stroke-width="1" />
        <text x="56" y="436.5" text-anchor="end" font-size="12" font-family="Avenir Next, Segoe UI, sans-serif" fill="#6d7887">375.63</text>
      </g><g>
        <line x1="68" y1="552" x2="946" y2="552" stroke="#e6edf4" stroke-width="1" />
        <text x="56" y="556" text-anchor="end" font-size="12" font-family="Avenir Next, Segoe UI, sans-serif" fill="#6d7887">356.28</text>
      </g>
  </g>

  <line x1="68" y1="80.17" x2="946" y2="80.17" stroke="#d9a441" stroke-width="1.6" stroke-dasharray="8 6" />
         <text x="946" y="72.17" text-anchor="end" font-size="12" font-family="Avenir Next, Segoe UI, sans-serif" fill="#a87416">Resistance 432.70</text>
  <line x1="68" y1="294.35" x2="946" y2="294.35" stroke="#0f766e" stroke-width="1.6" stroke-dasharray="8 6" opacity="0.8" />
         <text x="946" y="286.35" text-anchor="end" font-size="12" font-family="Avenir Next, Segoe UI, sans-serif" fill="#0f766e">Support 398.01</text>

  <g>
        <line x1="75.32" y1="301.7" x2="75.32" y2="344.55" stroke="#0f766e" stroke-width="1.4" stroke-linecap="round" />
        <rect x="71.07" y="326.89" width="8.49" height="11.48" rx="1.4" fill="#0f766e" opacity="0.9" />
      </g><g>
        <line x1="89.95" y1="274.72" x2="89.95" y2="339.92" stroke="#0f766e" stroke-width="1.4" stroke-linecap="round" />
        <rect x="85.71" y="291.02" width="8.49" height="35.16" rx="1.4" fill="#0f766e" opacity="0.9" />
      </g><g>
        <line x1="104.58" y1="240.7" x2="104.58" y2="327.32" stroke="#0f766e" stroke-width="1.4" stroke-linecap="round" />
        <rect x="100.34" y="257.8" width="8.49" height="66.62" rx="1.4" fill="#0f766e" opacity="0.9" />
      </g><g>
        <line x1="119.22" y1="213.95" x2="119.22" y2="280.15" stroke="#0f766e" stroke-width="1.4" stroke-linecap="round" />
        <rect x="114.97" y="249.96" width="8.49" height="24.3" rx="1.4" fill="#0f766e" opacity="0.9" />
      </g><g>
        <line x1="133.85" y1="210.39" x2="133.85" y2="254.9" stroke="#0f766e" stroke-width="1.4" stroke-linecap="round" />
        <rect x="129.61" y="216.13" width="8.49" height="38.65" rx="1.4" fill="#0f766e" opacity="0.9" />
      </g><g>
        <line x1="148.48" y1="201.5" x2="148.48" y2="229.53" stroke="#c65b3d" stroke-width="1.4" stroke-linecap="round" />
        <rect x="144.24" y="225.27" width="8.49" height="1.5" rx="1.4" fill="#c65b3d" opacity="0.82" />
      </g><g>
        <line x1="163.12" y1="219.03" x2="163.12" y2="260.46" stroke="#0f766e" stroke-width="1.4" stroke-linecap="round" />
        <rect x="158.87" y="223.97" width="8.49" height="27.75" rx="1.4" fill="#0f766e" opacity="0.9" />
      </g><g>
        <line x1="177.75" y1="219.09" x2="177.75" y2="263.98" stroke="#c65b3d" stroke-width="1.4" stroke-linecap="round" />
        <rect x="173.51" y="220.14" width="8.49" height="26.36" rx="1.4" fill="#c65b3d" opacity="0.82" />
      </g><g>
        <line x1="192.38" y1="226.44" x2="192.38" y2="272.25" stroke="#c65b3d" stroke-width="1.4" stroke-linecap="round" />
        <rect x="188.14" y="247.68" width="8.49" height="4.26" rx="1.4" fill="#c65b3d" opacity="0.82" />
      </g><g>
        <line x1="207.02" y1="244.28" x2="207.02" y2="271.51" stroke="#c65b3d" stroke-width="1.4" stroke-linecap="round" />
        <rect x="202.77" y="253.48" width="8.49" height="17.1" rx="1.4" fill="#c65b3d" opacity="0.82" />
      </g><g>
        <line x1="221.65" y1="252.43" x2="221.65" y2="317.57" stroke="#c65b3d" stroke-width="1.4" stroke-linecap="round" />
        <rect x="217.41" y="275.89" width="8.49" height="33.65" rx="1.4" fill="#c65b3d" opacity="0.82" />
      </g><g>
        <line x1="236.28" y1="278.18" x2="236.28" y2="314.23" stroke="#0f766e" stroke-width="1.4" stroke-linecap="round" />
        <rect x="232.04" y="282.38" width="8.49" height="11.61" rx="1.4" fill="#0f766e" opacity="0.9" />
      </g><g>
        <line x1="250.92" y1="254.9" x2="250.92" y2="295.99" stroke="#c65b3d" stroke-width="1.4" stroke-linecap="round" />
        <rect x="246.67" y="280.4" width="8.49" height="5.31" rx="1.4" fill="#c65b3d" opacity="0.82" />
      </g><g>
        <line x1="265.55" y1="294.42" x2="265.55" y2="337.63" stroke="#c65b3d" stroke-width="1.4" stroke-linecap="round" />
        <rect x="261.31" y="299.82" width="8.49" height="32.94" rx="1.4" fill="#c65b3d" opacity="0.82" />
      </g><g>
        <line x1="280.18" y1="328.44" x2="280.18" y2="361.96" stroke="#c65b3d" stroke-width="1.4" stroke-linecap="round" />
        <rect x="275.94" y="343.19" width="8.49" height="6.67" rx="1.4" fill="#c65b3d" opacity="0.82" />
      </g><g>
        <line x1="294.82" y1="362.33" x2="294.82" y2="404.81" stroke="#c65b3d" stroke-width="1.4" stroke-linecap="round" />
        <rect x="290.57" y="363.63" width="8.49" height="30.38" rx="1.4" fill="#c65b3d" opacity="0.82" />
      </g><g>
        <line x1="309.45" y1="361.03" x2="309.45" y2="395.18" stroke="#c65b3d" stroke-width="1.4" stroke-linecap="round" />
        <rect x="305.21" y="381.47" width="8.49" height="5.56" rx="1.4" fill="#c65b3d" opacity="0.82" />
      </g><g>
        <line x1="324.08" y1="390.3" x2="324.08" y2="455.87" stroke="#c65b3d" stroke-width="1.4" stroke-linecap="round" />
        <rect x="319.84" y="390.98" width="8.49" height="59.39" rx="1.4" fill="#c65b3d" opacity="0.82" />
      </g><g>
        <line x1="338.72" y1="423.7" x2="338.72" y2="469.58" stroke="#c65b3d" stroke-width="1.4" stroke-linecap="round" />
        <rect x="334.47" y="424.57" width="8.49" height="36.3" rx="1.4" fill="#c65b3d" opacity="0.82" />
      </g><g>
        <line x1="353.35" y1="438.15" x2="353.35" y2="496.99" stroke="#c65b3d" stroke-width="1.4" stroke-linecap="round" />
        <rect x="349.11" y="462.26" width="8.49" height="29.91" rx="1.4" fill="#c65b3d" opacity="0.82" />
      </g><g>
        <line x1="367.98" y1="513.91" x2="367.98" y2="550.58" stroke="#c65b3d" stroke-width="1.4" stroke-linecap="round" />
        <rect x="363.74" y="517.3" width="8.49" height="31.67" rx="1.4" fill="#c65b3d" opacity="0.82" />
      </g><g>
        <line x1="382.62" y1="495.94" x2="382.62" y2="552" stroke="#c65b3d" stroke-width="1.4" stroke-linecap="round" />
        <rect x="378.37" y="517.33" width="8.49" height="18.12" rx="1.4" fill="#c65b3d" opacity="0.82" />
      </g><g>
        <line x1="397.25" y1="449.39" x2="397.25" y2="510.08" stroke="#0f766e" stroke-width="1.4" stroke-linecap="round" />
        <rect x="393.01" y="466.24" width="8.49" height="34.7" rx="1.4" fill="#0f766e" opacity="0.9" />
      </g><g>
        <line x1="411.88" y1="442.66" x2="411.88" y2="478.4" stroke="#c65b3d" stroke-width="1.4" stroke-linecap="round" />
        <rect x="407.64" y="445.74" width="8.49" height="25.44" rx="1.4" fill="#c65b3d" opacity="0.82" />
      </g><g>
        <line x1="426.52" y1="444.82" x2="426.52" y2="503.41" stroke="#0f766e" stroke-width="1.4" stroke-linecap="round" />
        <rect x="422.27" y="445.93" width="8.49" height="38.62" rx="1.4" fill="#0f766e" opacity="0.9" />
      </g><g>
        <line x1="441.15" y1="444.26" x2="441.15" y2="470.37" stroke="#c65b3d" stroke-width="1.4" stroke-linecap="round" />
        <rect x="436.91" y="445.74" width="8.49" height="3.77" rx="1.4" fill="#c65b3d" opacity="0.82" />
      </g><g>
        <line x1="455.78" y1="452.16" x2="455.78" y2="488.53" stroke="#0f766e" stroke-width="1.4" stroke-linecap="round" />
        <rect x="451.54" y="453.15" width="8.49" height="12.04" rx="1.4" fill="#0f766e" opacity="0.9" />
      </g><g>
        <line x1="470.42" y1="374.68" x2="470.42" y2="458.59" stroke="#c65b3d" stroke-width="1.4" stroke-linecap="round" />
        <rect x="466.17" y="374.8" width="8.49" height="65.75" rx="1.4" fill="#c65b3d" opacity="0.82" />
      </g><g>
        <line x1="485.05" y1="445.68" x2="485.05" y2="485.5" stroke="#0f766e" stroke-width="1.4" stroke-linecap="round" />
        <rect x="480.81" y="448.34" width="8.49" height="3.52" rx="1.4" fill="#0f766e" opacity="0.9" />
      </g><g>
        <line x1="499.68" y1="432.47" x2="499.68" y2="467.11" stroke="#c65b3d" stroke-width="1.4" stroke-linecap="round" />
        <rect x="495.44" y="448.89" width="8.49" height="13.03" rx="1.4" fill="#c65b3d" opacity="0.82" />
      </g><g>
        <line x1="514.32" y1="377.52" x2="514.32" y2="460.99" stroke="#0f766e" stroke-width="1.4" stroke-linecap="round" />
        <rect x="510.07" y="378.57" width="8.49" height="66.46" rx="1.4" fill="#0f766e" opacity="0.9" />
      </g><g>
        <line x1="528.95" y1="314.85" x2="528.95" y2="365.29" stroke="#0f766e" stroke-width="1.4" stroke-linecap="round" />
        <rect x="524.71" y="324.61" width="8.49" height="32.07" rx="1.4" fill="#0f766e" opacity="0.9" />
      </g><g>
        <line x1="543.58" y1="193.35" x2="543.58" y2="302.26" stroke="#0f766e" stroke-width="1.4" stroke-linecap="round" />
        <rect x="539.34" y="212.79" width="8.49" height="81.62" rx="1.4" fill="#0f766e" opacity="0.9" />
      </g><g>
        <line x1="558.22" y1="153.52" x2="558.22" y2="207.11" stroke="#0f766e" stroke-width="1.4" stroke-linecap="round" />
        <rect x="553.97" y="156.98" width="8.49" height="2.47" rx="1.4" fill="#0f766e" opacity="0.9" />
      </g><g>
        <line x1="572.85" y1="87.09" x2="572.85" y2="154.33" stroke="#c65b3d" stroke-width="1.4" stroke-linecap="round" />
        <rect x="568.61" y="128.83" width="8.49" height="12.53" rx="1.4" fill="#c65b3d" opacity="0.82" />
      </g><g>
        <line x1="587.48" y1="138.03" x2="587.48" y2="181.43" stroke="#c65b3d" stroke-width="1.4" stroke-linecap="round" />
        <rect x="583.24" y="151.52" width="8.49" height="18.99" rx="1.4" fill="#c65b3d" opacity="0.82" />
      </g><g>
        <line x1="602.12" y1="114.26" x2="602.12" y2="175.87" stroke="#0f766e" stroke-width="1.4" stroke-linecap="round" />
        <rect x="597.87" y="132.9" width="8.49" height="24.2" rx="1.4" fill="#0f766e" opacity="0.9" />
      </g><g>
        <line x1="616.75" y1="74" x2="616.75" y2="135.93" stroke="#0f766e" stroke-width="1.4" stroke-linecap="round" />
        <rect x="612.51" y="78.82" width="8.49" height="41.58" rx="1.4" fill="#0f766e" opacity="0.9" />
      </g><g>
        <line x1="631.38" y1="135.99" x2="631.38" y2="211.62" stroke="#c65b3d" stroke-width="1.4" stroke-linecap="round" />
        <rect x="627.14" y="159.3" width="8.49" height="25.53" rx="1.4" fill="#c65b3d" opacity="0.82" />
      </g><g>
        <line x1="646.02" y1="128.02" x2="646.02" y2="184.52" stroke="#0f766e" stroke-width="1.4" stroke-linecap="round" />
        <rect x="641.77" y="130.06" width="8.49" height="47.23" rx="1.4" fill="#0f766e" opacity="0.9" />
      </g><g>
        <line x1="660.65" y1="114.69" x2="660.65" y2="176.67" stroke="#0f766e" stroke-width="1.4" stroke-linecap="round" />
        <rect x="656.41" y="128.83" width="8.49" height="15.1" rx="1.4" fill="#0f766e" opacity="0.9" />
      </g><g>
        <line x1="675.28" y1="97.34" x2="675.28" y2="146.85" stroke="#0f766e" stroke-width="1.4" stroke-linecap="round" />
        <rect x="671.04" y="101.47" width="8.49" height="28.89" rx="1.4" fill="#0f766e" opacity="0.9" />
      </g><g>
        <line x1="689.92" y1="116.48" x2="689.92" y2="156.79" stroke="#c65b3d" stroke-width="1.4" stroke-linecap="round" />
        <rect x="685.67" y="130.34" width="8.49" height="1.5" rx="1.4" fill="#c65b3d" opacity="0.82" />
      </g><g>
        <line x1="704.55" y1="193.04" x2="704.55" y2="294.35" stroke="#c65b3d" stroke-width="1.4" stroke-linecap="round" />
        <rect x="700.31" y="215.33" width="8.49" height="18.71" rx="1.4" fill="#c65b3d" opacity="0.82" />
      </g><g>
        <line x1="719.18" y1="176.43" x2="719.18" y2="217.64" stroke="#0f766e" stroke-width="1.4" stroke-linecap="round" />
        <rect x="714.94" y="192.91" width="8.49" height="10.13" rx="1.4" fill="#0f766e" opacity="0.9" />
      </g><g>
        <line x1="733.82" y1="153.77" x2="733.82" y2="215.39" stroke="#0f766e" stroke-width="1.4" stroke-linecap="round" />
        <rect x="729.57" y="197.98" width="8.49" height="12.84" rx="1.4" fill="#0f766e" opacity="0.9" />
      </g><g>
        <line x1="748.45" y1="178.47" x2="748.45" y2="227.74" stroke="#c65b3d" stroke-width="1.4" stroke-linecap="round" />
        <rect x="744.21" y="187.48" width="8.49" height="24.33" rx="1.4" fill="#c65b3d" opacity="0.82" />
      </g><g>
        <line x1="763.08" y1="168.32" x2="763.08" y2="250.52" stroke="#0f766e" stroke-width="1.4" stroke-linecap="round" />
        <rect x="758.84" y="195.88" width="8.49" height="36.8" rx="1.4" fill="#0f766e" opacity="0.9" />
      </g><g>
        <line x1="777.72" y1="109.32" x2="777.72" y2="166.24" stroke="#0f766e" stroke-width="1.4" stroke-linecap="round" />
        <rect x="773.47" y="153.83" width="8.49" height="4.07" rx="1.4" fill="#0f766e" opacity="0.9" />
      </g><g>
        <line x1="792.35" y1="167.04" x2="792.35" y2="195.63" stroke="#c65b3d" stroke-width="1.4" stroke-linecap="round" />
        <rect x="788.11" y="174.73" width="8.49" height="13.98" rx="1.4" fill="#c65b3d" opacity="0.82" />
      </g><g>
        <line x1="806.98" y1="203.72" x2="806.98" y2="248.11" stroke="#0f766e" stroke-width="1.4" stroke-linecap="round" />
        <rect x="802.74" y="203.9" width="8.49" height="29.57" rx="1.4" fill="#0f766e" opacity="0.9" />
      </g><g>
        <line x1="821.62" y1="186.37" x2="821.62" y2="241.07" stroke="#c65b3d" stroke-width="1.4" stroke-linecap="round" />
        <rect x="817.37" y="192.67" width="8.49" height="41.43" rx="1.4" fill="#c65b3d" opacity="0.82" />
      </g><g>
        <line x1="836.25" y1="243.11" x2="836.25" y2="275.71" stroke="#0f766e" stroke-width="1.4" stroke-linecap="round" />
        <rect x="832.01" y="249.9" width="8.49" height="12.41" rx="1.4" fill="#0f766e" opacity="0.9" />
      </g><g>
        <line x1="850.88" y1="208.97" x2="850.88" y2="276.63" stroke="#0f766e" stroke-width="1.4" stroke-linecap="round" />
        <rect x="846.64" y="223.85" width="8.49" height="30.56" rx="1.4" fill="#0f766e" opacity="0.9" />
      </g><g>
        <line x1="865.52" y1="108.14" x2="865.52" y2="202.36" stroke="#0f766e" stroke-width="1.4" stroke-linecap="round" />
        <rect x="861.27" y="146.73" width="8.49" height="47.23" rx="1.4" fill="#0f766e" opacity="0.9" />
      </g><g>
        <line x1="880.15" y1="126.97" x2="880.15" y2="185.69" stroke="#0f766e" stroke-width="1.4" stroke-linecap="round" />
        <rect x="875.91" y="136.73" width="8.49" height="42.72" rx="1.4" fill="#0f766e" opacity="0.9" />
      </g><g>
        <line x1="894.78" y1="80.17" x2="894.78" y2="180.26" stroke="#c65b3d" stroke-width="1.4" stroke-linecap="round" />
        <rect x="890.54" y="97.46" width="8.49" height="77.05" rx="1.4" fill="#c65b3d" opacity="0.82" />
      </g><g>
        <line x1="909.42" y1="145.62" x2="909.42" y2="212.3" stroke="#0f766e" stroke-width="1.4" stroke-linecap="round" />
        <rect x="905.17" y="152.04" width="8.49" height="42.57" rx="1.4" fill="#0f766e" opacity="0.9" />
      </g><g>
        <line x1="924.05" y1="119.44" x2="924.05" y2="185.07" stroke="#c65b3d" stroke-width="1.4" stroke-linecap="round" />
        <rect x="919.81" y="129.26" width="8.49" height="34.95" rx="1.4" fill="#c65b3d" opacity="0.82" />
      </g><g>
        <line x1="938.68" y1="131.42" x2="938.68" y2="181.24" stroke="#c65b3d" stroke-width="1.4" stroke-linecap="round" />
        <rect x="934.44" y="161.46" width="8.49" height="5.96" rx="1.4" fill="#c65b3d" opacity="0.82" />
      </g>
  <polyline fill="none" stroke="#113b52" stroke-width="2.2" stroke-linejoin="round" stroke-linecap="round" points="353.35,315.31 367.98,326.42 382.62,338.64 397.25,349.06 411.88,360.12 426.52,371.61 441.15,382.75 455.78,394.21 470.42,403.91 485.05,413.73 499.68,423.3 514.32,426.75 528.95,428.86 543.58,425.21 558.22,416.43 572.85,406 587.48,394.83 602.12,382.12 616.75,363.54 631.38,349.74 646.02,331.63 660.65,310.63 675.28,288.93 689.92,272.17 704.55,260.31 719.18,247.66 733.82,235.08 748.45,223.02 763.08,210.78 777.72,196.06 792.35,182.4 806.98,173.66 821.62,169.14 836.25,170.99 850.88,174.34 865.52,174.6 880.15,172.92 894.78,175 909.42,178.66 924.05,177.63 938.68,179.49" />
  <polyline fill="none" stroke="#7a8f27" stroke-width="2.2" stroke-linejoin="round" stroke-linecap="round" points="792.35,293.51 806.98,291.05 821.62,289.91 836.25,289.75 850.88,289.23 865.52,287.84 880.15,286.04 894.78,285.05 909.42,283.16 924.05,281.41 938.68,279.34" />

  <g>
    <text x="75.32" y="576" text-anchor="middle" font-size="12" font-family="Avenir Next, Segoe UI, sans-serif" fill="#6d7887">Feb 27</text><text x="353.35" y="576" text-anchor="middle" font-size="12" font-family="Avenir Next, Segoe UI, sans-serif" fill="#6d7887">Mar 26</text><text x="646.02" y="576" text-anchor="middle" font-size="12" font-family="Avenir Next, Segoe UI, sans-serif" fill="#6d7887">Apr 24</text><text x="938.68" y="576" text-anchor="middle" font-size="12" font-family="Avenir Next, Segoe UI, sans-serif" fill="#6d7887">May 22</text>
  </g>

  <g transform="translate(68, 586)">
    <rect x="0" y="-14" width="12" height="3" rx="2" fill="#113b52" />
    <text x="18" y="-8" font-size="12" font-family="Avenir Next, Segoe UI, sans-serif" fill="#506274">SMA20</text>
    <rect x="88" y="-14" width="12" height="3" rx="2" fill="#7a8f27" />
    <text x="106" y="-8" font-size="12" font-family="Avenir Next, Segoe UI, sans-serif" fill="#506274">SMA50</text>
    <text x="878" y="-8" text-anchor="end" font-size="12" font-family="Avenir Next, Segoe UI, sans-serif" fill="#506274">Last 60 sessions</text>
  </g>
</svg>