<?xml version="1.0" encoding="UTF-8"?>
<svg xmlns="http://www.w3.org/2000/svg" width="980" height="620" viewBox="0 0 980 620" role="img" aria-label="WDAY chart snapshot">
  <defs>
    <linearGradient id="bg" x1="0%" x2="100%" y1="0%" y2="100%">
      <stop offset="0%" stop-color="#f8fbfe" />
      <stop offset="100%" stop-color="#eef4f8" />
    </linearGradient>
  </defs>
  <rect width="980" height="620" rx="24" fill="url(#bg)" />
  <rect x="18" y="18" width="944" height="584" rx="20" fill="#ffffff" stroke="#d7e0e8" />
  <text x="68" y="44" font-size="28" font-weight="700" font-family="Avenir Next, Segoe UI, sans-serif" fill="#17212b">WDAY Candlestick Snapshot</text>
  <text x="68" y="66" font-size="15" font-family="Avenir Next, Segoe UI, sans-serif" fill="#5e6a78">Needs More Confirmation | No major pattern | Close 128.14</text>
  <text x="946" y="44" text-anchor="end" font-size="14" font-family="Avenir Next, Segoe UI, sans-serif" fill="#4d6478">Trend: Mixed</text>
  <text x="946" y="64" text-anchor="end" font-size="14" font-family="Avenir Next, Segoe UI, sans-serif" fill="#4d6478">Scores B 35 / P 23 / RS 20</text>

  <g>
    <g>
        <line x1="68" y1="74" x2="946" y2="74" stroke="#e6edf4" stroke-width="1" />
        <text x="56" y="78" text-anchor="end" font-size="12" font-family="Avenir Next, Segoe UI, sans-serif" fill="#6d7887">153.90</text>
      </g><g>
        <line x1="68" y1="193.5" x2="946" y2="193.5" stroke="#e6edf4" stroke-width="1" />
        <text x="56" y="197.5" text-anchor="end" font-size="12" font-family="Avenir Next, Segoe UI, sans-serif" fill="#6d7887">143.02</text>
      </g><g>
        <line x1="68" y1="313" x2="946" y2="313" stroke="#e6edf4" stroke-width="1" />
        <text x="56" y="317" text-anchor="end" font-size="12" font-family="Avenir Next, Segoe UI, sans-serif" fill="#6d7887">132.13</text>
      </g><g>
        <line x1="68" y1="432.5" x2="946" y2="432.5" stroke="#e6edf4" stroke-width="1" />
        <text x="56" y="436.5" text-anchor="end" font-size="12" font-family="Avenir Next, Segoe UI, sans-serif" fill="#6d7887">121.25</text>
      </g><g>
        <line x1="68" y1="552" x2="946" y2="552" stroke="#e6edf4" stroke-width="1" />
        <text x="56" y="556" text-anchor="end" font-size="12" font-family="Avenir Next, Segoe UI, sans-serif" fill="#6d7887">110.36</text>
      </g>
  </g>

  <line x1="68" y1="271.28" x2="946" y2="271.28" stroke="#d9a441" stroke-width="1.6" stroke-dasharray="8 6" />
         <text x="946" y="263.28" text-anchor="end" font-size="12" font-family="Avenir Next, Segoe UI, sans-serif" fill="#a87416">Resistance 135.93</text>
  <line x1="68" y1="527.96" x2="946" y2="527.96" stroke="#0f766e" stroke-width="1.6" stroke-dasharray="8 6" opacity="0.8" />
         <text x="946" y="519.96" text-anchor="end" font-size="12" font-family="Avenir Next, Segoe UI, sans-serif" fill="#0f766e">Support 112.55</text>

  <g>
        <line x1="75.32" y1="291.37" x2="75.32" y2="347.03" stroke="#0f766e" stroke-width="1.4" stroke-linecap="round" />
        <rect x="71.07" y="295.11" width="8.49" height="8.45" rx="1.4" fill="#0f766e" opacity="0.9" />
      </g><g>
        <line x1="89.95" y1="268.1" x2="89.95" y2="317.01" stroke="#0f766e" stroke-width="1.4" stroke-linecap="round" />
        <rect x="85.71" y="292.36" width="8.49" height="24.65" rx="1.4" fill="#0f766e" opacity="0.9" />
      </g><g>
        <line x1="104.58" y1="185.32" x2="104.58" y2="306.74" stroke="#0f766e" stroke-width="1.4" stroke-linecap="round" />
        <rect x="100.34" y="186.97" width="8.49" height="119.77" rx="1.4" fill="#0f766e" opacity="0.9" />
      </g><g>
        <line x1="119.22" y1="162.49" x2="119.22" y2="212.6" stroke="#c65b3d" stroke-width="1.4" stroke-linecap="round" />
        <rect x="114.97" y="180.49" width="8.49" height="12.73" rx="1.4" fill="#c65b3d" opacity="0.82" />
      </g><g>
        <line x1="133.85" y1="128.12" x2="133.85" y2="181.59" stroke="#0f766e" stroke-width="1.4" stroke-linecap="round" />
        <rect x="129.61" y="147.77" width="8.49" height="33.81" rx="1.4" fill="#0f766e" opacity="0.9" />
      </g><g>
        <line x1="148.48" y1="103.31" x2="148.48" y2="178.68" stroke="#0f766e" stroke-width="1.4" stroke-linecap="round" />
        <rect x="144.24" y="105.4" width="8.49" height="50.94" rx="1.4" fill="#0f766e" opacity="0.9" />
      </g><g>
        <line x1="163.12" y1="74" x2="163.12" y2="147.67" stroke="#c65b3d" stroke-width="1.4" stroke-linecap="round" />
        <rect x="158.87" y="120.22" width="8.49" height="17.02" rx="1.4" fill="#c65b3d" opacity="0.82" />
      </g><g>
        <line x1="177.75" y1="142.62" x2="177.75" y2="234.18" stroke="#c65b3d" stroke-width="1.4" stroke-linecap="round" />
        <rect x="173.51" y="149.2" width="8.49" height="50.06" rx="1.4" fill="#c65b3d" opacity="0.82" />
      </g><g>
        <line x1="192.38" y1="166.22" x2="192.38" y2="264.37" stroke="#c65b3d" stroke-width="1.4" stroke-linecap="round" />
        <rect x="188.14" y="193.66" width="8.49" height="56.65" rx="1.4" fill="#c65b3d" opacity="0.82" />
      </g><g>
        <line x1="207.02" y1="209.03" x2="207.02" y2="294.17" stroke="#c65b3d" stroke-width="1.4" stroke-linecap="round" />
        <rect x="202.77" y="256.46" width="8.49" height="34.47" rx="1.4" fill="#c65b3d" opacity="0.82" />
      </g><g>
        <line x1="221.65" y1="270.73" x2="221.65" y2="326.39" stroke="#c65b3d" stroke-width="1.4" stroke-linecap="round" />
        <rect x="217.41" y="285.88" width="8.49" height="16.58" rx="1.4" fill="#c65b3d" opacity="0.82" />
      </g><g>
        <line x1="236.28" y1="261.07" x2="236.28" y2="311.79" stroke="#c65b3d" stroke-width="1.4" stroke-linecap="round" />
        <rect x="232.04" y="296.48" width="8.49" height="1.5" rx="1.4" fill="#c65b3d" opacity="0.82" />
      </g><g>
        <line x1="250.92" y1="233.41" x2="250.92" y2="293.57" stroke="#0f766e" stroke-width="1.4" stroke-linecap="round" />
        <rect x="246.67" y="279.63" width="8.49" height="13.94" rx="1.4" fill="#0f766e" opacity="0.9" />
      </g><g>
        <line x1="265.55" y1="279.41" x2="265.55" y2="329.58" stroke="#c65b3d" stroke-width="1.4" stroke-linecap="round" />
        <rect x="261.31" y="290.82" width="8.49" height="20.42" rx="1.4" fill="#c65b3d" opacity="0.82" />
      </g><g>
        <line x1="280.18" y1="258" x2="280.18" y2="312.45" stroke="#0f766e" stroke-width="1.4" stroke-linecap="round" />
        <rect x="275.94" y="299.28" width="8.49" height="9.77" rx="1.4" fill="#0f766e" opacity="0.9" />
      </g><g>
        <line x1="294.82" y1="260.85" x2="294.82" y2="350.11" stroke="#0f766e" stroke-width="1.4" stroke-linecap="round" />
        <rect x="290.57" y="270.95" width="8.49" height="43.25" rx="1.4" fill="#0f766e" opacity="0.9" />
      </g><g>
        <line x1="309.45" y1="247.62" x2="309.45" y2="290.66" stroke="#c65b3d" stroke-width="1.4" stroke-linecap="round" />
        <rect x="305.21" y="257.45" width="8.49" height="1.5" rx="1.4" fill="#c65b3d" opacity="0.82" />
      </g><g>
        <line x1="324.08" y1="264.48" x2="324.08" y2="355.27" stroke="#c65b3d" stroke-width="1.4" stroke-linecap="round" />
        <rect x="319.84" y="277.87" width="8.49" height="66.31" rx="1.4" fill="#c65b3d" opacity="0.82" />
      </g><g>
        <line x1="338.72" y1="303.45" x2="338.72" y2="381.62" stroke="#c65b3d" stroke-width="1.4" stroke-linecap="round" />
        <rect x="334.47" y="320.9" width="8.49" height="47.65" rx="1.4" fill="#c65b3d" opacity="0.82" />
      </g><g>
        <line x1="353.35" y1="332.13" x2="353.35" y2="380.3" stroke="#0f766e" stroke-width="1.4" stroke-linecap="round" />
        <rect x="349.11" y="358.67" width="8.49" height="7.47" rx="1.4" fill="#0f766e" opacity="0.9" />
      </g><g>
        <line x1="367.98" y1="365.2" x2="367.98" y2="420.92" stroke="#c65b3d" stroke-width="1.4" stroke-linecap="round" />
        <rect x="363.74" y="366.79" width="8.49" height="33.48" rx="1.4" fill="#c65b3d" opacity="0.82" />
      </g><g>
        <line x1="382.62" y1="337.26" x2="382.62" y2="395.67" stroke="#0f766e" stroke-width="1.4" stroke-linecap="round" />
        <rect x="378.37" y="349.89" width="8.49" height="45.78" rx="1.4" fill="#0f766e" opacity="0.9" />
      </g><g>
        <line x1="397.25" y1="320.9" x2="397.25" y2="365.15" stroke="#0f766e" stroke-width="1.4" stroke-linecap="round" />
        <rect x="393.01" y="337.26" width="8.49" height="11.42" rx="1.4" fill="#0f766e" opacity="0.9" />
      </g><g>
        <line x1="411.88" y1="325.3" x2="411.88" y2="391.06" stroke="#c65b3d" stroke-width="1.4" stroke-linecap="round" />
        <rect x="407.64" y="338.31" width="8.49" height="8.51" rx="1.4" fill="#c65b3d" opacity="0.82" />
      </g><g>
        <line x1="426.52" y1="306.89" x2="426.52" y2="366.03" stroke="#0f766e" stroke-width="1.4" stroke-linecap="round" />
        <rect x="422.27" y="311.57" width="8.49" height="28.76" rx="1.4" fill="#0f766e" opacity="0.9" />
      </g><g>
        <line x1="441.15" y1="310.37" x2="441.15" y2="362.62" stroke="#c65b3d" stroke-width="1.4" stroke-linecap="round" />
        <rect x="436.91" y="314.76" width="8.49" height="24.7" rx="1.4" fill="#c65b3d" opacity="0.82" />
      </g><g>
        <line x1="455.78" y1="331.99" x2="455.78" y2="370.42" stroke="#c65b3d" stroke-width="1.4" stroke-linecap="round" />
        <rect x="451.54" y="354.06" width="8.49" height="9.66" rx="1.4" fill="#c65b3d" opacity="0.82" />
      </g><g>
        <line x1="470.42" y1="334.96" x2="470.42" y2="460.44" stroke="#c65b3d" stroke-width="1.4" stroke-linecap="round" />
        <rect x="466.17" y="342.64" width="8.49" height="112.64" rx="1.4" fill="#c65b3d" opacity="0.82" />
      </g><g>
        <line x1="485.05" y1="474.17" x2="485.05" y2="552" stroke="#c65b3d" stroke-width="1.4" stroke-linecap="round" />
        <rect x="480.81" y="494.58" width="8.49" height="27.78" rx="1.4" fill="#c65b3d" opacity="0.82" />
      </g><g>
        <line x1="499.68" y1="509.29" x2="499.68" y2="550.57" stroke="#c65b3d" stroke-width="1.4" stroke-linecap="round" />
        <rect x="495.44" y="522.47" width="8.49" height="6.04" rx="1.4" fill="#c65b3d" opacity="0.82" />
      </g><g>
        <line x1="514.32" y1="430.19" x2="514.32" y2="514.56" stroke="#0f766e" stroke-width="1.4" stroke-linecap="round" />
        <rect x="510.07" y="447.05" width="8.49" height="61.7" rx="1.4" fill="#0f766e" opacity="0.9" />
      </g><g>
        <line x1="528.95" y1="422.78" x2="528.95" y2="481.63" stroke="#c65b3d" stroke-width="1.4" stroke-linecap="round" />
        <rect x="524.71" y="455.83" width="8.49" height="13.83" rx="1.4" fill="#c65b3d" opacity="0.82" />
      </g><g>
        <line x1="543.58" y1="395.01" x2="543.58" y2="465.27" stroke="#0f766e" stroke-width="1.4" stroke-linecap="round" />
        <rect x="539.34" y="400.94" width="8.49" height="43.53" rx="1.4" fill="#0f766e" opacity="0.9" />
      </g><g>
        <line x1="558.22" y1="312.89" x2="558.22" y2="404.45" stroke="#c65b3d" stroke-width="1.4" stroke-linecap="round" />
        <rect x="553.97" y="337.59" width="8.49" height="55.11" rx="1.4" fill="#c65b3d" opacity="0.82" />
      </g><g>
        <line x1="572.85" y1="349.72" x2="572.85" y2="421.69" stroke="#c65b3d" stroke-width="1.4" stroke-linecap="round" />
        <rect x="568.61" y="358.45" width="8.49" height="45.67" rx="1.4" fill="#c65b3d" opacity="0.82" />
      </g><g>
        <line x1="587.48" y1="358.12" x2="587.48" y2="402.14" stroke="#0f766e" stroke-width="1.4" stroke-linecap="round" />
        <rect x="583.24" y="359" width="8.49" height="43.15" rx="1.4" fill="#0f766e" opacity="0.9" />
      </g><g>
        <line x1="602.12" y1="302.95" x2="602.12" y2="375.03" stroke="#0f766e" stroke-width="1.4" stroke-linecap="round" />
        <rect x="597.87" y="345.61" width="8.49" height="12.63" rx="1.4" fill="#0f766e" opacity="0.9" />
      </g><g>
        <line x1="616.75" y1="306.74" x2="616.75" y2="384.58" stroke="#c65b3d" stroke-width="1.4" stroke-linecap="round" />
        <rect x="612.51" y="338.58" width="8.49" height="35.13" rx="1.4" fill="#c65b3d" opacity="0.82" />
      </g><g>
        <line x1="631.38" y1="454.84" x2="631.38" y2="516.76" stroke="#c65b3d" stroke-width="1.4" stroke-linecap="round" />
        <rect x="627.14" y="496.89" width="8.49" height="7.79" rx="1.4" fill="#c65b3d" opacity="0.82" />
      </g><g>
        <line x1="646.02" y1="448.69" x2="646.02" y2="508.09" stroke="#0f766e" stroke-width="1.4" stroke-linecap="round" />
        <rect x="641.77" y="448.8" width="8.49" height="30.3" rx="1.4" fill="#0f766e" opacity="0.9" />
      </g><g>
        <line x1="660.65" y1="438.59" x2="660.65" y2="478.83" stroke="#0f766e" stroke-width="1.4" stroke-linecap="round" />
        <rect x="656.41" y="469.99" width="8.49" height="1.87" rx="1.4" fill="#0f766e" opacity="0.9" />
      </g><g>
        <line x1="675.28" y1="409.17" x2="675.28" y2="449.02" stroke="#0f766e" stroke-width="1.4" stroke-linecap="round" />
        <rect x="671.04" y="433.21" width="8.49" height="9.61" rx="1.4" fill="#0f766e" opacity="0.9" />
      </g><g>
        <line x1="689.92" y1="418.72" x2="689.92" y2="468.45" stroke="#0f766e" stroke-width="1.4" stroke-linecap="round" />
        <rect x="685.67" y="419.49" width="8.49" height="26.68" rx="1.4" fill="#0f766e" opacity="0.9" />
      </g><g>
        <line x1="704.55" y1="417.95" x2="704.55" y2="471.64" stroke="#0f766e" stroke-width="1.4" stroke-linecap="round" />
        <rect x="700.31" y="419.82" width="8.49" height="22.94" rx="1.4" fill="#0f766e" opacity="0.9" />
      </g><g>
        <line x1="719.18" y1="325.41" x2="719.18" y2="432.55" stroke="#c65b3d" stroke-width="1.4" stroke-linecap="round" />
        <rect x="714.94" y="346.37" width="8.49" height="23.38" rx="1.4" fill="#c65b3d" opacity="0.82" />
      </g><g>
        <line x1="733.82" y1="325.41" x2="733.82" y2="378.21" stroke="#0f766e" stroke-width="1.4" stroke-linecap="round" />
        <rect x="729.57" y="359.55" width="8.49" height="6.15" rx="1.4" fill="#0f766e" opacity="0.9" />
      </g><g>
        <line x1="748.45" y1="347.69" x2="748.45" y2="398.85" stroke="#0f766e" stroke-width="1.4" stroke-linecap="round" />
        <rect x="744.21" y="348.73" width="8.49" height="18.11" rx="1.4" fill="#0f766e" opacity="0.9" />
      </g><g>
        <line x1="763.08" y1="366.08" x2="763.08" y2="434.2" stroke="#c65b3d" stroke-width="1.4" stroke-linecap="round" />
        <rect x="758.84" y="370.97" width="8.49" height="46.33" rx="1.4" fill="#c65b3d" opacity="0.82" />
      </g><g>
        <line x1="777.72" y1="299.5" x2="777.72" y2="383.37" stroke="#0f766e" stroke-width="1.4" stroke-linecap="round" />
        <rect x="773.47" y="326.72" width="8.49" height="56.65" rx="1.4" fill="#0f766e" opacity="0.9" />
      </g><g>
        <line x1="792.35" y1="359.6" x2="792.35" y2="411.48" stroke="#0f766e" stroke-width="1.4" stroke-linecap="round" />
        <rect x="788.11" y="360.21" width="8.49" height="23.38" rx="1.4" fill="#0f766e" opacity="0.9" />
      </g><g>
        <line x1="806.98" y1="347.58" x2="806.98" y2="440.13" stroke="#c65b3d" stroke-width="1.4" stroke-linecap="round" />
        <rect x="802.74" y="372.06" width="8.49" height="58.51" rx="1.4" fill="#c65b3d" opacity="0.82" />
      </g><g>
        <line x1="821.62" y1="402.25" x2="821.62" y2="462.85" stroke="#c65b3d" stroke-width="1.4" stroke-linecap="round" />
        <rect x="817.37" y="418.39" width="8.49" height="42.93" rx="1.4" fill="#c65b3d" opacity="0.82" />
      </g><g>
        <line x1="836.25" y1="475.15" x2="836.25" y2="528.01" stroke="#0f766e" stroke-width="1.4" stroke-linecap="round" />
        <rect x="832.01" y="484.59" width="8.49" height="10.32" rx="1.4" fill="#0f766e" opacity="0.9" />
      </g><g>
        <line x1="850.88" y1="437.71" x2="850.88" y2="497.77" stroke="#0f766e" stroke-width="1.4" stroke-linecap="round" />
        <rect x="846.64" y="459.89" width="8.49" height="21.57" rx="1.4" fill="#0f766e" opacity="0.9" />
      </g><g>
        <line x1="865.52" y1="384.8" x2="865.52" y2="446.55" stroke="#0f766e" stroke-width="1.4" stroke-linecap="round" />
        <rect x="861.27" y="391.17" width="8.49" height="55.39" rx="1.4" fill="#0f766e" opacity="0.9" />
      </g><g>
        <line x1="880.15" y1="327.56" x2="880.15" y2="412.24" stroke="#0f766e" stroke-width="1.4" stroke-linecap="round" />
        <rect x="875.91" y="348.68" width="8.49" height="63.56" rx="1.4" fill="#0f766e" opacity="0.9" />
      </g><g>
        <line x1="894.78" y1="271.28" x2="894.78" y2="357.46" stroke="#c65b3d" stroke-width="1.4" stroke-linecap="round" />
        <rect x="890.54" y="305.64" width="8.49" height="37.99" rx="1.4" fill="#c65b3d" opacity="0.82" />
      </g><g>
        <line x1="909.42" y1="364.6" x2="909.42" y2="421.96" stroke="#0f766e" stroke-width="1.4" stroke-linecap="round" />
        <rect x="905.17" y="373.6" width="8.49" height="19.76" rx="1.4" fill="#0f766e" opacity="0.9" />
      </g><g>
        <line x1="924.05" y1="413.84" x2="924.05" y2="456.71" stroke="#0f766e" stroke-width="1.4" stroke-linecap="round" />
        <rect x="919.81" y="425.86" width="8.49" height="3.73" rx="1.4" fill="#0f766e" opacity="0.9" />
      </g><g>
        <line x1="938.68" y1="295.65" x2="938.68" y2="389.52" stroke="#c65b3d" stroke-width="1.4" stroke-linecap="round" />
        <rect x="934.44" y="350.22" width="8.49" height="6.59" rx="1.4" fill="#c65b3d" opacity="0.82" />
      </g>
  <polyline fill="none" stroke="#113b52" stroke-width="2.2" stroke-linejoin="round" stroke-linecap="round" points="353.35,259.45 367.98,264.71 382.62,267.58 397.25,275.1 411.88,282.78 426.52,290.97 441.15,302.67 455.78,313.99 470.42,326.79 485.05,340.4 499.68,352.28 514.32,359.5 528.95,368.16 543.58,374.23 558.22,378.3 572.85,383.54 587.48,387.94 602.12,392.28 616.75,393.76 631.38,400.56 646.02,405.07 660.65,408.56 675.28,412.72 689.92,416.83 704.55,420.48 719.18,423.39 733.82,424.4 748.45,423.65 763.08,421.75 777.72,411.97 792.35,403.55 806.98,402.73 821.62,402.31 836.25,406.49 850.88,409.85 865.52,409.21 880.15,408.69 894.78,408.59 909.42,408.59 924.05,404.65 938.68,400.05" />
  <polyline fill="none" stroke="#7a8f27" stroke-width="2.2" stroke-linejoin="round" stroke-linecap="round" points="792.35,344.3 806.98,347.01 821.62,350.39 836.25,356.34 850.88,361.68 865.52,366.55 880.15,371.41 894.78,375.54 909.42,379.03 924.05,382.54 938.68,383.85" />

  <g>
    <text x="75.32" y="576" text-anchor="middle" font-size="12" font-family="Avenir Next, Segoe UI, sans-serif" fill="#6d7887">Feb 27</text><text x="353.35" y="576" text-anchor="middle" font-size="12" font-family="Avenir Next, Segoe UI, sans-serif" fill="#6d7887">Mar 26</text><text x="646.02" y="576" text-anchor="middle" font-size="12" font-family="Avenir Next, Segoe UI, sans-serif" fill="#6d7887">Apr 24</text><text x="938.68" y="576" text-anchor="middle" font-size="12" font-family="Avenir Next, Segoe UI, sans-serif" fill="#6d7887">May 22</text>
  </g>

  <g transform="translate(68, 586)">
    <rect x="0" y="-14" width="12" height="3" rx="2" fill="#113b52" />
    <text x="18" y="-8" font-size="12" font-family="Avenir Next, Segoe UI, sans-serif" fill="#506274">SMA20</text>
    <rect x="88" y="-14" width="12" height="3" rx="2" fill="#7a8f27" />
    <text x="106" y="-8" font-size="12" font-family="Avenir Next, Segoe UI, sans-serif" fill="#506274">SMA50</text>
    <text x="878" y="-8" text-anchor="end" font-size="12" font-family="Avenir Next, Segoe UI, sans-serif" fill="#506274">Last 60 sessions</text>
  </g>
</svg>