<?xml version="1.0" encoding="UTF-8"?>
<svg xmlns="http://www.w3.org/2000/svg" width="980" height="620" viewBox="0 0 980 620" role="img" aria-label="MU chart snapshot">
  <defs>
    <linearGradient id="bg" x1="0%" x2="100%" y1="0%" y2="100%">
      <stop offset="0%" stop-color="#f8fbfe" />
      <stop offset="100%" stop-color="#eef4f8" />
    </linearGradient>
  </defs>
  <rect width="980" height="620" rx="24" fill="url(#bg)" />
  <rect x="18" y="18" width="944" height="584" rx="20" fill="#ffffff" stroke="#d7e0e8" />
  <text x="68" y="44" font-size="28" font-weight="700" font-family="Avenir Next, Segoe UI, sans-serif" fill="#17212b">MU Candlestick Snapshot</text>
  <text x="68" y="66" font-size="15" font-family="Avenir Next, Segoe UI, sans-serif" fill="#5e6a78">Needs More Confirmation | 20-Day Breakout Close | Close 1211.38</text>
  <text x="946" y="44" text-anchor="end" font-size="14" font-family="Avenir Next, Segoe UI, sans-serif" fill="#4d6478">Trend: Uptrend</text>
  <text x="946" y="64" text-anchor="end" font-size="14" font-family="Avenir Next, Segoe UI, sans-serif" fill="#4d6478">Scores B 55 / P 62 / RS 100</text>

  <g>
    <g>
        <line x1="68" y1="74" x2="946" y2="74" stroke="#e6edf4" stroke-width="1" />
        <text x="56" y="78" text-anchor="end" font-size="12" font-family="Avenir Next, Segoe UI, sans-serif" fill="#6d7887">1213.56</text>
      </g><g>
        <line x1="68" y1="193.5" x2="946" y2="193.5" stroke="#e6edf4" stroke-width="1" />
        <text x="56" y="197.5" text-anchor="end" font-size="12" font-family="Avenir Next, Segoe UI, sans-serif" fill="#6d7887">988.04</text>
      </g><g>
        <line x1="68" y1="313" x2="946" y2="313" stroke="#e6edf4" stroke-width="1" />
        <text x="56" y="317" text-anchor="end" font-size="12" font-family="Avenir Next, Segoe UI, sans-serif" fill="#6d7887">762.52</text>
      </g><g>
        <line x1="68" y1="432.5" x2="946" y2="432.5" stroke="#e6edf4" stroke-width="1" />
        <text x="56" y="436.5" text-anchor="end" font-size="12" font-family="Avenir Next, Segoe UI, sans-serif" fill="#6d7887">537.01</text>
      </g><g>
        <line x1="68" y1="552" x2="946" y2="552" stroke="#e6edf4" stroke-width="1" />
        <text x="56" y="556" text-anchor="end" font-size="12" font-family="Avenir Next, Segoe UI, sans-serif" fill="#6d7887">311.49</text>
      </g>
  </g>

  <line x1="68" y1="107.98" x2="946" y2="107.98" stroke="#d9a441" stroke-width="1.6" stroke-dasharray="8 6" />
         <text x="946" y="99.98" text-anchor="end" font-size="12" font-family="Avenir Next, Segoe UI, sans-serif" fill="#a87416">Resistance 1149.43</text>
  <line x1="68" y1="321.12" x2="946" y2="321.12" stroke="#0f766e" stroke-width="1.6" stroke-dasharray="8 6" opacity="0.8" />
         <text x="946" y="313.12" text-anchor="end" font-size="12" font-family="Avenir Next, Segoe UI, sans-serif" fill="#0f766e">Support 747.20</text>

  <g>
        <line x1="75.32" y1="518.74" x2="75.32" y2="531.59" stroke="#c65b3d" stroke-width="1.4" stroke-linecap="round" />
        <rect x="71.07" y="520.99" width="8.49" height="7.72" rx="1.4" fill="#c65b3d" opacity="0.82" />
      </g><g>
        <line x1="89.95" y1="521.68" x2="89.95" y2="529.44" stroke="#c65b3d" stroke-width="1.4" stroke-linecap="round" />
        <rect x="85.71" y="526.37" width="8.49" height="1.5" rx="1.4" fill="#c65b3d" opacity="0.82" />
      </g><g>
        <line x1="104.58" y1="524.81" x2="104.58" y2="548.34" stroke="#c65b3d" stroke-width="1.4" stroke-linecap="round" />
        <rect x="100.34" y="524.89" width="8.49" height="21.65" rx="1.4" fill="#c65b3d" opacity="0.82" />
      </g><g>
        <line x1="119.22" y1="538.04" x2="119.22" y2="552" stroke="#0f766e" stroke-width="1.4" stroke-linecap="round" />
        <rect x="114.97" y="538.04" width="8.49" height="8.57" rx="1.4" fill="#0f766e" opacity="0.9" />
      </g><g>
        <line x1="133.85" y1="516.82" x2="133.85" y2="535.3" stroke="#0f766e" stroke-width="1.4" stroke-linecap="round" />
        <rect x="129.61" y="522.14" width="8.49" height="10.04" rx="1.4" fill="#0f766e" opacity="0.9" />
      </g><g>
        <line x1="148.48" y1="522.62" x2="148.48" y2="536.79" stroke="#0f766e" stroke-width="1.4" stroke-linecap="round" />
        <rect x="144.24" y="522.99" width="8.49" height="13.19" rx="1.4" fill="#0f766e" opacity="0.9" />
      </g><g>
        <line x1="163.12" y1="513.01" x2="163.12" y2="520.67" stroke="#0f766e" stroke-width="1.4" stroke-linecap="round" />
        <rect x="158.87" y="516.88" width="8.49" height="2.1" rx="1.4" fill="#0f766e" opacity="0.9" />
      </g><g>
        <line x1="177.75" y1="516.09" x2="177.75" y2="524.12" stroke="#0f766e" stroke-width="1.4" stroke-linecap="round" />
        <rect x="173.51" y="516.98" width="8.49" height="1.83" rx="1.4" fill="#0f766e" opacity="0.9" />
      </g><g>
        <line x1="192.38" y1="496.62" x2="192.38" y2="505.69" stroke="#c65b3d" stroke-width="1.4" stroke-linecap="round" />
        <rect x="188.14" y="497.08" width="8.49" height="4.45" rx="1.4" fill="#c65b3d" opacity="0.82" />
      </g><g>
        <line x1="207.02" y1="492.41" x2="207.02" y2="505.93" stroke="#0f766e" stroke-width="1.4" stroke-linecap="round" />
        <rect x="202.77" y="493.7" width="8.49" height="7.37" rx="1.4" fill="#0f766e" opacity="0.9" />
      </g><g>
        <line x1="221.65" y1="492.46" x2="221.65" y2="499.77" stroke="#0f766e" stroke-width="1.4" stroke-linecap="round" />
        <rect x="217.41" y="494.19" width="8.49" height="1.5" rx="1.4" fill="#0f766e" opacity="0.9" />
      </g><g>
        <line x1="236.28" y1="490.86" x2="236.28" y2="500.6" stroke="#0f766e" stroke-width="1.4" stroke-linecap="round" />
        <rect x="232.04" y="491.03" width="8.49" height="5.35" rx="1.4" fill="#0f766e" opacity="0.9" />
      </g><g>
        <line x1="250.92" y1="470.24" x2="250.92" y2="491.93" stroke="#0f766e" stroke-width="1.4" stroke-linecap="round" />
        <rect x="246.67" y="470.31" width="8.49" height="16.59" rx="1.4" fill="#0f766e" opacity="0.9" />
      </g><g>
        <line x1="265.55" y1="471.21" x2="265.55" y2="484.26" stroke="#c65b3d" stroke-width="1.4" stroke-linecap="round" />
        <rect x="261.31" y="474.56" width="8.49" height="1.5" rx="1.4" fill="#c65b3d" opacity="0.82" />
      </g><g>
        <line x1="280.18" y1="472.07" x2="280.18" y2="481.58" stroke="#0f766e" stroke-width="1.4" stroke-linecap="round" />
        <rect x="275.94" y="474.77" width="8.49" height="2.26" rx="1.4" fill="#0f766e" opacity="0.9" />
      </g><g>
        <line x1="294.82" y1="467.49" x2="294.82" y2="477.44" stroke="#c65b3d" stroke-width="1.4" stroke-linecap="round" />
        <rect x="290.57" y="469.68" width="8.49" height="6.24" rx="1.4" fill="#c65b3d" opacity="0.82" />
      </g><g>
        <line x1="309.45" y1="470.89" x2="309.45" y2="486.08" stroke="#c65b3d" stroke-width="1.4" stroke-linecap="round" />
        <rect x="305.21" y="474.23" width="8.49" height="5.21" rx="1.4" fill="#c65b3d" opacity="0.82" />
      </g><g>
        <line x1="324.08" y1="474.46" x2="324.08" y2="483.21" stroke="#c65b3d" stroke-width="1.4" stroke-linecap="round" />
        <rect x="319.84" y="477.91" width="8.49" height="1.5" rx="1.4" fill="#c65b3d" opacity="0.82" />
      </g><g>
        <line x1="338.72" y1="456.36" x2="338.72" y2="474.07" stroke="#0f766e" stroke-width="1.4" stroke-linecap="round" />
        <rect x="334.47" y="458.74" width="8.49" height="13.01" rx="1.4" fill="#0f766e" opacity="0.9" />
      </g><g>
        <line x1="353.35" y1="455.49" x2="353.35" y2="467.05" stroke="#c65b3d" stroke-width="1.4" stroke-linecap="round" />
        <rect x="349.11" y="461.5" width="8.49" height="1.5" rx="1.4" fill="#c65b3d" opacity="0.82" />
      </g><g>
        <line x1="367.98" y1="448.41" x2="367.98" y2="457.75" stroke="#0f766e" stroke-width="1.4" stroke-linecap="round" />
        <rect x="363.74" y="453.85" width="8.49" height="1.5" rx="1.4" fill="#0f766e" opacity="0.9" />
      </g><g>
        <line x1="382.62" y1="435.49" x2="382.62" y2="446.8" stroke="#0f766e" stroke-width="1.4" stroke-linecap="round" />
        <rect x="378.37" y="439.1" width="8.49" height="7.42" rx="1.4" fill="#0f766e" opacity="0.9" />
      </g><g>
        <line x1="397.25" y1="442.13" x2="397.25" y2="458.35" stroke="#0f766e" stroke-width="1.4" stroke-linecap="round" />
        <rect x="393.01" y="449.84" width="8.49" height="1.5" rx="1.4" fill="#0f766e" opacity="0.9" />
      </g><g>
        <line x1="411.88" y1="435.67" x2="411.88" y2="447.45" stroke="#c65b3d" stroke-width="1.4" stroke-linecap="round" />
        <rect x="407.64" y="438.33" width="8.49" height="4" rx="1.4" fill="#c65b3d" opacity="0.82" />
      </g><g>
        <line x1="426.52" y1="433.3" x2="426.52" y2="450.75" stroke="#c65b3d" stroke-width="1.4" stroke-linecap="round" />
        <rect x="422.27" y="436.35" width="8.49" height="6.67" rx="1.4" fill="#c65b3d" opacity="0.82" />
      </g><g>
        <line x1="441.15" y1="427.78" x2="441.15" y2="446.7" stroke="#0f766e" stroke-width="1.4" stroke-linecap="round" />
        <rect x="436.91" y="429.74" width="8.49" height="16.12" rx="1.4" fill="#0f766e" opacity="0.9" />
      </g><g>
        <line x1="455.78" y1="402.94" x2="455.78" y2="421.5" stroke="#0f766e" stroke-width="1.4" stroke-linecap="round" />
        <rect x="451.54" y="411.6" width="8.49" height="8.4" rx="1.4" fill="#0f766e" opacity="0.9" />
      </g><g>
        <line x1="470.42" y1="371.7" x2="470.42" y2="396.22" stroke="#0f766e" stroke-width="1.4" stroke-linecap="round" />
        <rect x="466.17" y="377.82" width="8.49" height="16.12" rx="1.4" fill="#0f766e" opacity="0.9" />
      </g><g>
        <line x1="485.05" y1="363.26" x2="485.05" y2="384.51" stroke="#0f766e" stroke-width="1.4" stroke-linecap="round" />
        <rect x="480.81" y="363.84" width="8.49" height="3.3" rx="1.4" fill="#0f766e" opacity="0.9" />
      </g><g>
        <line x1="499.68" y1="355.09" x2="499.68" y2="380.35" stroke="#c65b3d" stroke-width="1.4" stroke-linecap="round" />
        <rect x="495.44" y="372.72" width="8.49" height="1.7" rx="1.4" fill="#c65b3d" opacity="0.82" />
      </g><g>
        <line x1="514.32" y1="321.12" x2="514.32" y2="358.74" stroke="#0f766e" stroke-width="1.4" stroke-linecap="round" />
        <rect x="510.07" y="321.33" width="8.49" height="37.28" rx="1.4" fill="#0f766e" opacity="0.9" />
      </g><g>
        <line x1="528.95" y1="283.25" x2="528.95" y2="310.1" stroke="#0f766e" stroke-width="1.4" stroke-linecap="round" />
        <rect x="524.71" y="295.62" width="8.49" height="1.5" rx="1.4" fill="#0f766e" opacity="0.9" />
      </g><g>
        <line x1="543.58" y1="302.28" x2="543.58" y2="342.63" stroke="#c65b3d" stroke-width="1.4" stroke-linecap="round" />
        <rect x="539.34" y="306.55" width="8.49" height="4.3" rx="1.4" fill="#c65b3d" opacity="0.82" />
      </g><g>
        <line x1="558.22" y1="285.22" x2="558.22" y2="304.02" stroke="#c65b3d" stroke-width="1.4" stroke-linecap="round" />
        <rect x="553.97" y="286.17" width="8.49" height="5.05" rx="1.4" fill="#c65b3d" opacity="0.82" />
      </g><g>
        <line x1="572.85" y1="286.78" x2="572.85" y2="306.06" stroke="#c65b3d" stroke-width="1.4" stroke-linecap="round" />
        <rect x="568.61" y="299.7" width="8.49" height="6.15" rx="1.4" fill="#c65b3d" opacity="0.82" />
      </g><g>
        <line x1="587.48" y1="319.85" x2="587.48" y2="336.06" stroke="#c65b3d" stroke-width="1.4" stroke-linecap="round" />
        <rect x="583.24" y="328.87" width="8.49" height="4.19" rx="1.4" fill="#c65b3d" opacity="0.82" />
      </g><g>
        <line x1="602.12" y1="315.93" x2="602.12" y2="365.61" stroke="#c65b3d" stroke-width="1.4" stroke-linecap="round" />
        <rect x="597.87" y="319.39" width="8.49" height="36.52" rx="1.4" fill="#c65b3d" opacity="0.82" />
      </g><g>
        <line x1="616.75" y1="332.38" x2="616.75" y2="371.46" stroke="#0f766e" stroke-width="1.4" stroke-linecap="round" />
        <rect x="612.51" y="346.8" width="8.49" height="17.57" rx="1.4" fill="#0f766e" opacity="0.9" />
      </g><g>
        <line x1="631.38" y1="327.22" x2="631.38" y2="345.78" stroke="#c65b3d" stroke-width="1.4" stroke-linecap="round" />
        <rect x="627.14" y="327.61" width="8.49" height="1.57" rx="1.4" fill="#c65b3d" opacity="0.82" />
      </g><g>
        <line x1="646.02" y1="311.74" x2="646.02" y2="329.07" stroke="#0f766e" stroke-width="1.4" stroke-linecap="round" />
        <rect x="641.77" y="313.23" width="8.49" height="13.64" rx="1.4" fill="#0f766e" opacity="0.9" />
      </g><g>
        <line x1="660.65" y1="303.63" x2="660.65" y2="321.12" stroke="#c65b3d" stroke-width="1.4" stroke-linecap="round" />
        <rect x="656.41" y="316.03" width="8.49" height="3.08" rx="1.4" fill="#c65b3d" opacity="0.82" />
      </g><g>
        <line x1="675.28" y1="231.25" x2="675.28" y2="282.39" stroke="#0f766e" stroke-width="1.4" stroke-linecap="round" />
        <rect x="671.04" y="242.34" width="8.49" height="39.94" rx="1.4" fill="#0f766e" opacity="0.9" />
      </g><g>
        <line x1="689.92" y1="210.39" x2="689.92" y2="246.43" stroke="#c65b3d" stroke-width="1.4" stroke-linecap="round" />
        <rect x="685.67" y="210.66" width="8.49" height="14.44" rx="1.4" fill="#c65b3d" opacity="0.82" />
      </g><g>
        <line x1="704.55" y1="213.93" x2="704.55" y2="237.62" stroke="#c65b3d" stroke-width="1.4" stroke-linecap="round" />
        <rect x="700.31" y="224.35" width="8.49" height="3.34" rx="1.4" fill="#c65b3d" opacity="0.82" />
      </g><g>
        <line x1="719.18" y1="197.23" x2="719.18" y2="218.69" stroke="#0f766e" stroke-width="1.4" stroke-linecap="round" />
        <rect x="714.94" y="202.53" width="8.49" height="7.42" rx="1.4" fill="#0f766e" opacity="0.9" />
      </g><g>
        <line x1="733.82" y1="162.27" x2="733.82" y2="182.13" stroke="#0f766e" stroke-width="1.4" stroke-linecap="round" />
        <rect x="729.57" y="168.35" width="8.49" height="13.66" rx="1.4" fill="#0f766e" opacity="0.9" />
      </g><g>
        <line x1="748.45" y1="146.6" x2="748.45" y2="178.05" stroke="#0f766e" stroke-width="1.4" stroke-linecap="round" />
        <rect x="744.21" y="153.2" width="8.49" height="7.47" rx="1.4" fill="#0f766e" opacity="0.9" />
      </g><g>
        <line x1="763.08" y1="139.85" x2="763.08" y2="166.76" stroke="#0f766e" stroke-width="1.4" stroke-linecap="round" />
        <rect x="758.84" y="145" width="8.49" height="1.5" rx="1.4" fill="#0f766e" opacity="0.9" />
      </g><g>
        <line x1="777.72" y1="167.89" x2="777.72" y2="202.17" stroke="#c65b3d" stroke-width="1.4" stroke-linecap="round" />
        <rect x="773.47" y="183.4" width="8.49" height="5.88" rx="1.4" fill="#c65b3d" opacity="0.82" />
      </g><g>
        <line x1="792.35" y1="207.36" x2="792.35" y2="259.22" stroke="#c65b3d" stroke-width="1.4" stroke-linecap="round" />
        <rect x="788.11" y="216.63" width="8.49" height="42.6" rx="1.4" fill="#c65b3d" opacity="0.82" />
      </g><g>
        <line x1="806.98" y1="206.8" x2="806.98" y2="231.41" stroke="#0f766e" stroke-width="1.4" stroke-linecap="round" />
        <rect x="802.74" y="214.04" width="8.49" height="5.84" rx="1.4" fill="#0f766e" opacity="0.9" />
      </g><g>
        <line x1="821.62" y1="192.91" x2="821.62" y2="264.34" stroke="#c65b3d" stroke-width="1.4" stroke-linecap="round" />
        <rect x="817.37" y="193.43" width="8.49" height="27.71" rx="1.4" fill="#c65b3d" opacity="0.82" />
      </g><g>
        <line x1="836.25" y1="209.69" x2="836.25" y2="249.03" stroke="#c65b3d" stroke-width="1.4" stroke-linecap="round" />
        <rect x="832.01" y="237.43" width="8.49" height="7.02" rx="1.4" fill="#c65b3d" opacity="0.82" />
      </g><g>
        <line x1="850.88" y1="188.88" x2="850.88" y2="242.54" stroke="#0f766e" stroke-width="1.4" stroke-linecap="round" />
        <rect x="846.64" y="189.35" width="8.49" height="48.49" rx="1.4" fill="#0f766e" opacity="0.9" />
      </g><g>
        <line x1="865.52" y1="180.48" x2="865.52" y2="208.26" stroke="#0f766e" stroke-width="1.4" stroke-linecap="round" />
        <rect x="861.27" y="196.91" width="8.49" height="5.19" rx="1.4" fill="#0f766e" opacity="0.9" />
      </g><g>
        <line x1="880.15" y1="135.52" x2="880.15" y2="159.87" stroke="#0f766e" stroke-width="1.4" stroke-linecap="round" />
        <rect x="875.91" y="140.54" width="8.49" height="17.01" rx="1.4" fill="#0f766e" opacity="0.9" />
      </g><g>
        <line x1="894.78" y1="128.66" x2="894.78" y2="176.57" stroke="#c65b3d" stroke-width="1.4" stroke-linecap="round" />
        <rect x="890.54" y="134.33" width="8.49" height="41.83" rx="1.4" fill="#c65b3d" opacity="0.82" />
      </g><g>
        <line x1="909.42" y1="137.53" x2="909.42" y2="179.67" stroke="#c65b3d" stroke-width="1.4" stroke-linecap="round" />
        <rect x="905.17" y="154.68" width="8.49" height="9.6" rx="1.4" fill="#c65b3d" opacity="0.82" />
      </g><g>
        <line x1="924.05" y1="107.98" x2="924.05" y2="137.99" stroke="#0f766e" stroke-width="1.4" stroke-linecap="round" />
        <rect x="919.81" y="116.16" width="8.49" height="13.74" rx="1.4" fill="#0f766e" opacity="0.9" />
      </g><g>
        <line x1="938.68" y1="74" x2="938.68" y2="97.84" stroke="#0f766e" stroke-width="1.4" stroke-linecap="round" />
        <rect x="934.44" y="75.16" width="8.49" height="8.04" rx="1.4" fill="#0f766e" opacity="0.9" />
      </g>
  <polyline fill="none" stroke="#113b52" stroke-width="2.2" stroke-linejoin="round" stroke-linecap="round" points="353.35,498.78 367.98,495.04 382.62,490.61 397.25,485.77 411.88,480.99 426.52,477.03 441.15,472.37 455.78,467.11 470.42,460.15 485.05,453.26 499.68,447.3 514.32,438.66 528.95,428.88 543.58,420.91 558.22,411.71 572.85,403.26 587.48,396.12 602.12,389.94 616.75,383.34 631.38,376.86 646.02,369.43 660.65,362.69 675.28,352.85 689.92,341.62 704.55,330.89 719.18,318.86 733.82,305.79 748.45,292.87 763.08,281.23 777.72,272.5 792.35,266.74 806.98,261.38 821.62,257.66 836.25,254.34 850.88,249.24 865.52,243.79 880.15,234.17 894.78,225.18 909.42,216.05 924.05,205.4 938.68,193.5" />
  <polyline fill="none" stroke="#7a8f27" stroke-width="2.2" stroke-linejoin="round" stroke-linecap="round" points="792.35,389.92 806.98,383.63 821.62,377.5 836.25,371.45 850.88,364.48 865.52,357.98 880.15,350.33 894.78,343.51 909.42,336.46 924.05,328.75 938.68,320.38" />

  <g>
    <text x="75.32" y="576" text-anchor="middle" font-size="12" font-family="Avenir Next, Segoe UI, sans-serif" fill="#6d7887">Mar 26</text><text x="353.35" y="576" text-anchor="middle" font-size="12" font-family="Avenir Next, Segoe UI, sans-serif" fill="#6d7887">Apr 23</text><text x="646.02" y="576" text-anchor="middle" font-size="12" font-family="Avenir Next, Segoe UI, sans-serif" fill="#6d7887">May 21</text><text x="938.68" y="576" text-anchor="middle" font-size="12" font-family="Avenir Next, Segoe UI, sans-serif" fill="#6d7887">Jun 22</text>
  </g>

  <g transform="translate(68, 586)">
    <rect x="0" y="-14" width="12" height="3" rx="2" fill="#113b52" />
    <text x="18" y="-8" font-size="12" font-family="Avenir Next, Segoe UI, sans-serif" fill="#506274">SMA20</text>
    <rect x="88" y="-14" width="12" height="3" rx="2" fill="#7a8f27" />
    <text x="106" y="-8" font-size="12" font-family="Avenir Next, Segoe UI, sans-serif" fill="#506274">SMA50</text>
    <text x="878" y="-8" text-anchor="end" font-size="12" font-family="Avenir Next, Segoe UI, sans-serif" fill="#506274">Last 60 sessions</text>
  </g>
</svg>