<?xml version="1.0" encoding="UTF-8"?>
<svg xmlns="http://www.w3.org/2000/svg" width="980" height="620" viewBox="0 0 980 620" role="img" aria-label="ACN chart snapshot">
  <defs>
    <linearGradient id="bg" x1="0%" x2="100%" y1="0%" y2="100%">
      <stop offset="0%" stop-color="#f8fbfe" />
      <stop offset="100%" stop-color="#eef4f8" />
    </linearGradient>
  </defs>
  <rect width="980" height="620" rx="24" fill="url(#bg)" />
  <rect x="18" y="18" width="944" height="584" rx="20" fill="#ffffff" stroke="#d7e0e8" />
  <text x="68" y="44" font-size="28" font-weight="700" font-family="Avenir Next, Segoe UI, sans-serif" fill="#17212b">ACN Candlestick Snapshot</text>
  <text x="68" y="66" font-size="15" font-family="Avenir Next, Segoe UI, sans-serif" fill="#5e6a78">Needs More Confirmation | No major pattern | Close 174.43</text>
  <text x="946" y="44" text-anchor="end" font-size="14" font-family="Avenir Next, Segoe UI, sans-serif" fill="#4d6478">Trend: Downtrend</text>
  <text x="946" y="64" text-anchor="end" font-size="14" font-family="Avenir Next, Segoe UI, sans-serif" fill="#4d6478">Scores B 8 / P 25 / RS 0</text>

  <g>
    <g>
        <line x1="68" y1="74" x2="946" y2="74" stroke="#e6edf4" stroke-width="1" />
        <text x="56" y="78" text-anchor="end" font-size="12" font-family="Avenir Next, Segoe UI, sans-serif" fill="#6d7887">207.98</text>
      </g><g>
        <line x1="68" y1="193.5" x2="946" y2="193.5" stroke="#e6edf4" stroke-width="1" />
        <text x="56" y="197.5" text-anchor="end" font-size="12" font-family="Avenir Next, Segoe UI, sans-serif" fill="#6d7887">194.94</text>
      </g><g>
        <line x1="68" y1="313" x2="946" y2="313" stroke="#e6edf4" stroke-width="1" />
        <text x="56" y="317" text-anchor="end" font-size="12" font-family="Avenir Next, Segoe UI, sans-serif" fill="#6d7887">181.90</text>
      </g><g>
        <line x1="68" y1="432.5" x2="946" y2="432.5" stroke="#e6edf4" stroke-width="1" />
        <text x="56" y="436.5" text-anchor="end" font-size="12" font-family="Avenir Next, Segoe UI, sans-serif" fill="#6d7887">168.86</text>
      </g><g>
        <line x1="68" y1="552" x2="946" y2="552" stroke="#e6edf4" stroke-width="1" />
        <text x="56" y="556" text-anchor="end" font-size="12" font-family="Avenir Next, Segoe UI, sans-serif" fill="#6d7887">155.81</text>
      </g>
  </g>

  <line x1="68" y1="165.45" x2="946" y2="165.45" stroke="#d9a441" stroke-width="1.6" stroke-dasharray="8 6" />
         <text x="946" y="157.45" text-anchor="end" font-size="12" font-family="Avenir Next, Segoe UI, sans-serif" fill="#a87416">Resistance 198.00</text>
  <line x1="68" y1="551.95" x2="946" y2="551.95" stroke="#0f766e" stroke-width="1.6" stroke-dasharray="8 6" opacity="0.8" />
         <text x="946" y="543.95" text-anchor="end" font-size="12" font-family="Avenir Next, Segoe UI, sans-serif" fill="#0f766e">Support 155.82</text>

  <g>
        <line x1="75.32" y1="143.37" x2="75.32" y2="192.25" stroke="#c65b3d" stroke-width="1.4" stroke-linecap="round" />
        <rect x="71.07" y="171.5" width="8.49" height="6.32" rx="1.4" fill="#c65b3d" opacity="0.82" />
      </g><g>
        <line x1="89.95" y1="142.82" x2="89.95" y2="187.07" stroke="#0f766e" stroke-width="1.4" stroke-linecap="round" />
        <rect x="85.71" y="153.45" width="8.49" height="16.68" rx="1.4" fill="#0f766e" opacity="0.9" />
      </g><g>
        <line x1="104.58" y1="101.86" x2="104.58" y2="164.81" stroke="#c65b3d" stroke-width="1.4" stroke-linecap="round" />
        <rect x="100.34" y="144.83" width="8.49" height="14.57" rx="1.4" fill="#c65b3d" opacity="0.82" />
      </g><g>
        <line x1="119.22" y1="148.96" x2="119.22" y2="199.72" stroke="#c65b3d" stroke-width="1.4" stroke-linecap="round" />
        <rect x="114.97" y="158.58" width="8.49" height="32.99" rx="1.4" fill="#c65b3d" opacity="0.82" />
      </g><g>
        <line x1="133.85" y1="74" x2="133.85" y2="266.24" stroke="#0f766e" stroke-width="1.4" stroke-linecap="round" />
        <rect x="129.61" y="114.59" width="8.49" height="151.65" rx="1.4" fill="#0f766e" opacity="0.9" />
      </g><g>
        <line x1="148.48" y1="79.13" x2="148.48" y2="160.96" stroke="#c65b3d" stroke-width="1.4" stroke-linecap="round" />
        <rect x="144.24" y="115.05" width="8.49" height="32.16" rx="1.4" fill="#c65b3d" opacity="0.82" />
      </g><g>
        <line x1="163.12" y1="106.35" x2="163.12" y2="158.83" stroke="#c65b3d" stroke-width="1.4" stroke-linecap="round" />
        <rect x="158.87" y="113.86" width="8.49" height="33.08" rx="1.4" fill="#c65b3d" opacity="0.82" />
      </g><g>
        <line x1="177.75" y1="161.05" x2="177.75" y2="232.8" stroke="#c65b3d" stroke-width="1.4" stroke-linecap="round" />
        <rect x="173.51" y="169.39" width="8.49" height="36.93" rx="1.4" fill="#c65b3d" opacity="0.82" />
      </g><g>
        <line x1="192.38" y1="172.41" x2="192.38" y2="250.94" stroke="#c65b3d" stroke-width="1.4" stroke-linecap="round" />
        <rect x="188.14" y="188.45" width="8.49" height="29.32" rx="1.4" fill="#c65b3d" opacity="0.82" />
      </g><g>
        <line x1="207.02" y1="169.11" x2="207.02" y2="229.96" stroke="#0f766e" stroke-width="1.4" stroke-linecap="round" />
        <rect x="202.77" y="179.93" width="8.49" height="45.36" rx="1.4" fill="#0f766e" opacity="0.9" />
      </g><g>
        <line x1="221.65" y1="187.99" x2="221.65" y2="236.28" stroke="#c65b3d" stroke-width="1.4" stroke-linecap="round" />
        <rect x="217.41" y="192.94" width="8.49" height="21.99" rx="1.4" fill="#c65b3d" opacity="0.82" />
      </g><g>
        <line x1="236.28" y1="160.25" x2="236.28" y2="200.18" stroke="#0f766e" stroke-width="1.4" stroke-linecap="round" />
        <rect x="232.04" y="169.57" width="8.49" height="23.37" rx="1.4" fill="#0f766e" opacity="0.9" />
      </g><g>
        <line x1="250.92" y1="133.38" x2="250.92" y2="184.42" stroke="#c65b3d" stroke-width="1.4" stroke-linecap="round" />
        <rect x="246.67" y="147.12" width="8.49" height="15.67" rx="1.4" fill="#c65b3d" opacity="0.82" />
      </g><g>
        <line x1="265.55" y1="160.87" x2="265.55" y2="220.43" stroke="#c65b3d" stroke-width="1.4" stroke-linecap="round" />
        <rect x="261.31" y="173.33" width="8.49" height="1.5" rx="1.4" fill="#c65b3d" opacity="0.82" />
      </g><g>
        <line x1="280.18" y1="134.94" x2="280.18" y2="190.28" stroke="#0f766e" stroke-width="1.4" stroke-linecap="round" />
        <rect x="275.94" y="134.94" width="8.49" height="34" rx="1.4" fill="#0f766e" opacity="0.9" />
      </g><g>
        <line x1="294.82" y1="131.41" x2="294.82" y2="189.8" stroke="#c65b3d" stroke-width="1.4" stroke-linecap="round" />
        <rect x="290.57" y="138.33" width="8.49" height="18.42" rx="1.4" fill="#c65b3d" opacity="0.82" />
      </g><g>
        <line x1="309.45" y1="144.65" x2="309.45" y2="179.13" stroke="#c65b3d" stroke-width="1.4" stroke-linecap="round" />
        <rect x="305.21" y="156.47" width="8.49" height="15.39" rx="1.4" fill="#c65b3d" opacity="0.82" />
      </g><g>
        <line x1="324.08" y1="127.33" x2="324.08" y2="206.41" stroke="#c65b3d" stroke-width="1.4" stroke-linecap="round" />
        <rect x="319.84" y="138.51" width="8.49" height="65.06" rx="1.4" fill="#c65b3d" opacity="0.82" />
      </g><g>
        <line x1="338.72" y1="231.93" x2="338.72" y2="308.62" stroke="#c65b3d" stroke-width="1.4" stroke-linecap="round" />
        <rect x="334.47" y="231.93" width="8.49" height="43.2" rx="1.4" fill="#c65b3d" opacity="0.82" />
      </g><g>
        <line x1="353.35" y1="275.59" x2="353.35" y2="353.3" stroke="#c65b3d" stroke-width="1.4" stroke-linecap="round" />
        <rect x="349.11" y="276.97" width="8.49" height="57.73" rx="1.4" fill="#c65b3d" opacity="0.82" />
      </g><g>
        <line x1="367.98" y1="220.06" x2="367.98" y2="327" stroke="#0f766e" stroke-width="1.4" stroke-linecap="round" />
        <rect x="363.74" y="220.89" width="8.49" height="100.52" rx="1.4" fill="#0f766e" opacity="0.9" />
      </g><g>
        <line x1="382.62" y1="199.35" x2="382.62" y2="243.24" stroke="#c65b3d" stroke-width="1.4" stroke-linecap="round" />
        <rect x="378.37" y="213.83" width="8.49" height="21.53" rx="1.4" fill="#c65b3d" opacity="0.82" />
      </g><g>
        <line x1="397.25" y1="179.65" x2="397.25" y2="224.92" stroke="#0f766e" stroke-width="1.4" stroke-linecap="round" />
        <rect x="393.01" y="202.1" width="8.49" height="9.07" rx="1.4" fill="#0f766e" opacity="0.9" />
      </g><g>
        <line x1="411.88" y1="177.45" x2="411.88" y2="226.93" stroke="#c65b3d" stroke-width="1.4" stroke-linecap="round" />
        <rect x="407.64" y="181.58" width="8.49" height="20.53" rx="1.4" fill="#c65b3d" opacity="0.82" />
      </g><g>
        <line x1="426.52" y1="150.33" x2="426.52" y2="185.52" stroke="#0f766e" stroke-width="1.4" stroke-linecap="round" />
        <rect x="422.27" y="168.66" width="8.49" height="16.4" rx="1.4" fill="#0f766e" opacity="0.9" />
      </g><g>
        <line x1="441.15" y1="150.97" x2="441.15" y2="202.29" stroke="#c65b3d" stroke-width="1.4" stroke-linecap="round" />
        <rect x="436.91" y="172.5" width="8.49" height="19.88" rx="1.4" fill="#c65b3d" opacity="0.82" />
      </g><g>
        <line x1="455.78" y1="151.43" x2="455.78" y2="204.14" stroke="#c65b3d" stroke-width="1.4" stroke-linecap="round" />
        <rect x="451.54" y="191.56" width="8.49" height="6.69" rx="1.4" fill="#c65b3d" opacity="0.82" />
      </g><g>
        <line x1="470.42" y1="195.14" x2="470.42" y2="255.34" stroke="#c65b3d" stroke-width="1.4" stroke-linecap="round" />
        <rect x="466.17" y="210.07" width="8.49" height="27.76" rx="1.4" fill="#c65b3d" opacity="0.82" />
      </g><g>
        <line x1="485.05" y1="317.65" x2="485.05" y2="377.39" stroke="#c65b3d" stroke-width="1.4" stroke-linecap="round" />
        <rect x="480.81" y="321.22" width="8.49" height="24.92" rx="1.4" fill="#c65b3d" opacity="0.82" />
      </g><g>
        <line x1="499.68" y1="330.85" x2="499.68" y2="386.83" stroke="#c65b3d" stroke-width="1.4" stroke-linecap="round" />
        <rect x="495.44" y="341.84" width="8.49" height="3.57" rx="1.4" fill="#c65b3d" opacity="0.82" />
      </g><g>
        <line x1="514.32" y1="312.61" x2="514.32" y2="361.27" stroke="#c65b3d" stroke-width="1.4" stroke-linecap="round" />
        <rect x="510.07" y="348.71" width="8.49" height="9.44" rx="1.4" fill="#c65b3d" opacity="0.82" />
      </g><g>
        <line x1="528.95" y1="318.11" x2="528.95" y2="357.97" stroke="#c65b3d" stroke-width="1.4" stroke-linecap="round" />
        <rect x="524.71" y="343.22" width="8.49" height="7.79" rx="1.4" fill="#c65b3d" opacity="0.82" />
      </g><g>
        <line x1="543.58" y1="325.99" x2="543.58" y2="370.98" stroke="#0f766e" stroke-width="1.4" stroke-linecap="round" />
        <rect x="539.34" y="328" width="8.49" height="33.81" rx="1.4" fill="#0f766e" opacity="0.9" />
      </g><g>
        <line x1="558.22" y1="339.64" x2="558.22" y2="388.57" stroke="#0f766e" stroke-width="1.4" stroke-linecap="round" />
        <rect x="553.97" y="342.21" width="8.49" height="3.57" rx="1.4" fill="#0f766e" opacity="0.9" />
      </g><g>
        <line x1="572.85" y1="294.65" x2="572.85" y2="357.79" stroke="#c65b3d" stroke-width="1.4" stroke-linecap="round" />
        <rect x="568.61" y="318.48" width="8.49" height="13.47" rx="1.4" fill="#c65b3d" opacity="0.82" />
      </g><g>
        <line x1="587.48" y1="308.99" x2="587.48" y2="350.91" stroke="#0f766e" stroke-width="1.4" stroke-linecap="round" />
        <rect x="583.24" y="329.29" width="8.49" height="1.5" rx="1.4" fill="#0f766e" opacity="0.9" />
      </g><g>
        <line x1="602.12" y1="326.45" x2="602.12" y2="389.4" stroke="#c65b3d" stroke-width="1.4" stroke-linecap="round" />
        <rect x="597.87" y="326.45" width="8.49" height="13.01" rx="1.4" fill="#c65b3d" opacity="0.82" />
      </g><g>
        <line x1="616.75" y1="335.01" x2="616.75" y2="389.76" stroke="#c65b3d" stroke-width="1.4" stroke-linecap="round" />
        <rect x="612.51" y="335.01" width="8.49" height="45.14" rx="1.4" fill="#c65b3d" opacity="0.82" />
      </g><g>
        <line x1="631.38" y1="323.61" x2="631.38" y2="370.43" stroke="#0f766e" stroke-width="1.4" stroke-linecap="round" />
        <rect x="627.14" y="328.65" width="8.49" height="37.71" rx="1.4" fill="#0f766e" opacity="0.9" />
      </g><g>
        <line x1="646.02" y1="319.94" x2="646.02" y2="398.93" stroke="#0f766e" stroke-width="1.4" stroke-linecap="round" />
        <rect x="641.77" y="326.54" width="8.49" height="21.9" rx="1.4" fill="#0f766e" opacity="0.9" />
      </g><g>
        <line x1="660.65" y1="318.57" x2="660.65" y2="401.68" stroke="#c65b3d" stroke-width="1.4" stroke-linecap="round" />
        <rect x="656.41" y="325.9" width="8.49" height="74.59" rx="1.4" fill="#c65b3d" opacity="0.82" />
      </g><g>
        <line x1="675.28" y1="376.2" x2="675.28" y2="424.22" stroke="#c65b3d" stroke-width="1.4" stroke-linecap="round" />
        <rect x="671.04" y="385.37" width="8.49" height="38.76" rx="1.4" fill="#c65b3d" opacity="0.82" />
      </g><g>
        <line x1="689.92" y1="438.97" x2="689.92" y2="552" stroke="#c65b3d" stroke-width="1.4" stroke-linecap="round" />
        <rect x="685.67" y="444.74" width="8.49" height="72.21" rx="1.4" fill="#c65b3d" opacity="0.82" />
      </g><g>
        <line x1="704.55" y1="458.03" x2="704.55" y2="509.07" stroke="#0f766e" stroke-width="1.4" stroke-linecap="round" />
        <rect x="700.31" y="477.09" width="8.49" height="18.23" rx="1.4" fill="#0f766e" opacity="0.9" />
      </g><g>
        <line x1="719.18" y1="425.68" x2="719.18" y2="468.44" stroke="#0f766e" stroke-width="1.4" stroke-linecap="round" />
        <rect x="714.94" y="432.83" width="8.49" height="12.37" rx="1.4" fill="#0f766e" opacity="0.9" />
      </g><g>
        <line x1="733.82" y1="352.84" x2="733.82" y2="459.86" stroke="#0f766e" stroke-width="1.4" stroke-linecap="round" />
        <rect x="729.57" y="352.84" width="8.49" height="89.8" rx="1.4" fill="#0f766e" opacity="0.9" />
      </g><g>
        <line x1="748.45" y1="286.47" x2="748.45" y2="365.48" stroke="#c65b3d" stroke-width="1.4" stroke-linecap="round" />
        <rect x="744.21" y="330.39" width="8.49" height="29.32" rx="1.4" fill="#c65b3d" opacity="0.82" />
      </g><g>
        <line x1="763.08" y1="325.71" x2="763.08" y2="419.45" stroke="#0f766e" stroke-width="1.4" stroke-linecap="round" />
        <rect x="758.84" y="337.53" width="8.49" height="38.67" rx="1.4" fill="#0f766e" opacity="0.9" />
      </g><g>
        <line x1="777.72" y1="344.41" x2="777.72" y2="393.34" stroke="#0f766e" stroke-width="1.4" stroke-linecap="round" />
        <rect x="773.47" y="349.9" width="8.49" height="9.62" rx="1.4" fill="#0f766e" opacity="0.9" />
      </g><g>
        <line x1="792.35" y1="305.65" x2="792.35" y2="356.32" stroke="#0f766e" stroke-width="1.4" stroke-linecap="round" />
        <rect x="788.11" y="337.35" width="8.49" height="2.15" rx="1.4" fill="#0f766e" opacity="0.9" />
      </g><g>
        <line x1="806.98" y1="342.76" x2="806.98" y2="386.88" stroke="#c65b3d" stroke-width="1.4" stroke-linecap="round" />
        <rect x="802.74" y="348.71" width="8.49" height="9.16" rx="1.4" fill="#c65b3d" opacity="0.82" />
      </g><g>
        <line x1="821.62" y1="333.96" x2="821.62" y2="366.67" stroke="#c65b3d" stroke-width="1.4" stroke-linecap="round" />
        <rect x="817.37" y="357.88" width="8.49" height="5.86" rx="1.4" fill="#c65b3d" opacity="0.82" />
      </g><g>
        <line x1="836.25" y1="331.85" x2="836.25" y2="373.18" stroke="#0f766e" stroke-width="1.4" stroke-linecap="round" />
        <rect x="832.01" y="345.05" width="8.49" height="2.38" rx="1.4" fill="#0f766e" opacity="0.9" />
      </g><g>
        <line x1="850.88" y1="254.88" x2="850.88" y2="372.17" stroke="#0f766e" stroke-width="1.4" stroke-linecap="round" />
        <rect x="846.64" y="265.6" width="8.49" height="77.34" rx="1.4" fill="#0f766e" opacity="0.9" />
      </g><g>
        <line x1="865.52" y1="165.45" x2="865.52" y2="248.01" stroke="#0f766e" stroke-width="1.4" stroke-linecap="round" />
        <rect x="861.27" y="178.37" width="8.49" height="28.86" rx="1.4" fill="#0f766e" opacity="0.9" />
      </g><g>
        <line x1="880.15" y1="221.34" x2="880.15" y2="299.14" stroke="#c65b3d" stroke-width="1.4" stroke-linecap="round" />
        <rect x="875.91" y="232.43" width="8.49" height="40.96" rx="1.4" fill="#c65b3d" opacity="0.82" />
      </g><g>
        <line x1="894.78" y1="293.78" x2="894.78" y2="363.65" stroke="#c65b3d" stroke-width="1.4" stroke-linecap="round" />
        <rect x="890.54" y="301.43" width="8.49" height="52.51" rx="1.4" fill="#c65b3d" opacity="0.82" />
      </g><g>
        <line x1="909.42" y1="284.57" x2="909.42" y2="352.47" stroke="#c65b3d" stroke-width="1.4" stroke-linecap="round" />
        <rect x="905.17" y="296.67" width="8.49" height="44.17" rx="1.4" fill="#c65b3d" opacity="0.82" />
      </g><g>
        <line x1="924.05" y1="301.25" x2="924.05" y2="364.02" stroke="#c65b3d" stroke-width="1.4" stroke-linecap="round" />
        <rect x="919.81" y="322.05" width="8.49" height="24.37" rx="1.4" fill="#c65b3d" opacity="0.82" />
      </g><g>
        <line x1="938.68" y1="328.74" x2="938.68" y2="381.98" stroke="#c65b3d" stroke-width="1.4" stroke-linecap="round" />
        <rect x="934.44" y="358.34" width="8.49" height="23.09" rx="1.4" fill="#c65b3d" opacity="0.82" />
      </g>
  <polyline fill="none" stroke="#113b52" stroke-width="2.2" stroke-linejoin="round" stroke-linecap="round" points="353.35,184.66 367.98,186.82 382.62,190.91 397.25,193.05 411.88,193.58 426.52,196.28 441.15,198.54 455.78,201.1 470.42,202.68 485.05,209.1 499.68,217.37 514.32,224.53 528.95,233.61 543.58,241.87 558.22,250.27 572.85,260.12 587.48,268.75 602.12,277.13 616.75,285.96 631.38,288.63 646.02,288.23 660.65,297.21 675.28,306.65 689.92,322.39 704.55,336.14 719.18,349.35 733.82,357.37 748.45,365.44 763.08,370.43 777.72,370.61 792.35,370.21 806.98,370.2 821.62,370.83 836.25,371.69 850.88,367.86 865.52,360.18 880.15,357.38 894.78,358.11 909.42,356.14 924.05,357.03 938.68,359.77" />
  <polyline fill="none" stroke="#7a8f27" stroke-width="2.2" stroke-linejoin="round" stroke-linecap="round" points="792.35,268.93 806.98,272.53 821.62,276.74 836.25,280.45 850.88,281.93 865.52,283.21 880.15,285.73 894.78,289.87 909.42,292.56 924.05,295.14 938.68,299.17" />

  <g>
    <text x="75.32" y="576" text-anchor="middle" font-size="12" font-family="Avenir Next, Segoe UI, sans-serif" fill="#6d7887">Mar 13</text><text x="353.35" y="576" text-anchor="middle" font-size="12" font-family="Avenir Next, Segoe UI, sans-serif" fill="#6d7887">Apr 10</text><text x="646.02" y="576" text-anchor="middle" font-size="12" font-family="Avenir Next, Segoe UI, sans-serif" fill="#6d7887">May 8</text><text x="938.68" y="576" text-anchor="middle" font-size="12" font-family="Avenir Next, Segoe UI, sans-serif" fill="#6d7887">Jun 8</text>
  </g>

  <g transform="translate(68, 586)">
    <rect x="0" y="-14" width="12" height="3" rx="2" fill="#113b52" />
    <text x="18" y="-8" font-size="12" font-family="Avenir Next, Segoe UI, sans-serif" fill="#506274">SMA20</text>
    <rect x="88" y="-14" width="12" height="3" rx="2" fill="#7a8f27" />
    <text x="106" y="-8" font-size="12" font-family="Avenir Next, Segoe UI, sans-serif" fill="#506274">SMA50</text>
    <text x="878" y="-8" text-anchor="end" font-size="12" font-family="Avenir Next, Segoe UI, sans-serif" fill="#506274">Last 60 sessions</text>
  </g>
</svg>