<?xml version="1.0" encoding="UTF-8"?>
<svg xmlns="http://www.w3.org/2000/svg" width="980" height="620" viewBox="0 0 980 620" role="img" aria-label="GSK chart snapshot">
  <defs>
    <linearGradient id="bg" x1="0%" x2="100%" y1="0%" y2="100%">
      <stop offset="0%" stop-color="#f8fbfe" />
      <stop offset="100%" stop-color="#eef4f8" />
    </linearGradient>
  </defs>
  <rect width="980" height="620" rx="24" fill="url(#bg)" />
  <rect x="18" y="18" width="944" height="584" rx="20" fill="#ffffff" stroke="#d7e0e8" />
  <text x="68" y="44" font-size="28" font-weight="700" font-family="Avenir Next, Segoe UI, sans-serif" fill="#17212b">GSK Candlestick Snapshot</text>
  <text x="68" y="66" font-size="15" font-family="Avenir Next, Segoe UI, sans-serif" fill="#5e6a78">Needs More Confirmation | No major pattern | Close 50.64</text>
  <text x="946" y="44" text-anchor="end" font-size="14" font-family="Avenir Next, Segoe UI, sans-serif" fill="#4d6478">Trend: Downtrend</text>
  <text x="946" y="64" text-anchor="end" font-size="14" font-family="Avenir Next, Segoe UI, sans-serif" fill="#4d6478">Scores B 22 / P 49 / RS 11</text>

  <g>
    <g>
        <line x1="68" y1="74" x2="946" y2="74" stroke="#e6edf4" stroke-width="1" />
        <text x="56" y="78" text-anchor="end" font-size="12" font-family="Avenir Next, Segoe UI, sans-serif" fill="#6d7887">59.57</text>
      </g><g>
        <line x1="68" y1="193.5" x2="946" y2="193.5" stroke="#e6edf4" stroke-width="1" />
        <text x="56" y="197.5" text-anchor="end" font-size="12" font-family="Avenir Next, Segoe UI, sans-serif" fill="#6d7887">56.82</text>
      </g><g>
        <line x1="68" y1="313" x2="946" y2="313" stroke="#e6edf4" stroke-width="1" />
        <text x="56" y="317" text-anchor="end" font-size="12" font-family="Avenir Next, Segoe UI, sans-serif" fill="#6d7887">54.07</text>
      </g><g>
        <line x1="68" y1="432.5" x2="946" y2="432.5" stroke="#e6edf4" stroke-width="1" />
        <text x="56" y="436.5" text-anchor="end" font-size="12" font-family="Avenir Next, Segoe UI, sans-serif" fill="#6d7887">51.32</text>
      </g><g>
        <line x1="68" y1="552" x2="946" y2="552" stroke="#e6edf4" stroke-width="1" />
        <text x="56" y="556" text-anchor="end" font-size="12" font-family="Avenir Next, Segoe UI, sans-serif" fill="#6d7887">48.57</text>
      </g>
  </g>

  <line x1="68" y1="398.17" x2="946" y2="398.17" stroke="#d9a441" stroke-width="1.6" stroke-dasharray="8 6" />
         <text x="946" y="390.17" text-anchor="end" font-size="12" font-family="Avenir Next, Segoe UI, sans-serif" fill="#a87416">Resistance 52.11</text>
  <line x1="68" y1="552" x2="946" y2="552" stroke="#0f766e" stroke-width="1.6" stroke-dasharray="8 6" opacity="0.8" />
         <text x="946" y="544" text-anchor="end" font-size="12" font-family="Avenir Next, Segoe UI, sans-serif" fill="#0f766e">Support 48.57</text>

  <g>
        <line x1="75.32" y1="284.32" x2="75.32" y2="343.42" stroke="#c65b3d" stroke-width="1.4" stroke-linecap="round" />
        <rect x="71.07" y="295.18" width="8.49" height="47.37" rx="1.4" fill="#c65b3d" opacity="0.82" />
      </g><g>
        <line x1="89.95" y1="290.84" x2="89.95" y2="329.3" stroke="#c65b3d" stroke-width="1.4" stroke-linecap="round" />
        <rect x="85.71" y="307.13" width="8.49" height="18.9" rx="1.4" fill="#c65b3d" opacity="0.82" />
      </g><g>
        <line x1="104.58" y1="316.48" x2="104.58" y2="343.42" stroke="#c65b3d" stroke-width="1.4" stroke-linecap="round" />
        <rect x="100.34" y="327.77" width="8.49" height="13.91" rx="1.4" fill="#c65b3d" opacity="0.82" />
      </g><g>
        <line x1="119.22" y1="364.71" x2="119.22" y2="412.51" stroke="#c65b3d" stroke-width="1.4" stroke-linecap="round" />
        <rect x="114.97" y="364.71" width="8.49" height="35.63" rx="1.4" fill="#c65b3d" opacity="0.82" />
      </g><g>
        <line x1="133.85" y1="372.97" x2="133.85" y2="418.16" stroke="#0f766e" stroke-width="1.4" stroke-linecap="round" />
        <rect x="129.61" y="386.87" width="8.49" height="28.25" rx="1.4" fill="#0f766e" opacity="0.9" />
      </g><g>
        <line x1="148.48" y1="385.57" x2="148.48" y2="422.72" stroke="#c65b3d" stroke-width="1.4" stroke-linecap="round" />
        <rect x="144.24" y="395.56" width="8.49" height="14.34" rx="1.4" fill="#c65b3d" opacity="0.82" />
      </g><g>
        <line x1="163.12" y1="372.97" x2="163.12" y2="411.86" stroke="#c65b3d" stroke-width="1.4" stroke-linecap="round" />
        <rect x="158.87" y="394.69" width="8.49" height="8.69" rx="1.4" fill="#c65b3d" opacity="0.82" />
      </g><g>
        <line x1="177.75" y1="355.15" x2="177.75" y2="415.55" stroke="#0f766e" stroke-width="1.4" stroke-linecap="round" />
        <rect x="173.51" y="361.67" width="8.49" height="50.41" rx="1.4" fill="#0f766e" opacity="0.9" />
      </g><g>
        <line x1="192.38" y1="273.41" x2="192.38" y2="313" stroke="#0f766e" stroke-width="1.4" stroke-linecap="round" />
        <rect x="188.14" y="285.62" width="8.49" height="13.69" rx="1.4" fill="#0f766e" opacity="0.9" />
      </g><g>
        <line x1="207.02" y1="278.02" x2="207.02" y2="322.34" stroke="#c65b3d" stroke-width="1.4" stroke-linecap="round" />
        <rect x="202.77" y="290.84" width="8.49" height="27.81" rx="1.4" fill="#c65b3d" opacity="0.82" />
      </g><g>
        <line x1="221.65" y1="283.45" x2="221.65" y2="325.17" stroke="#c65b3d" stroke-width="1.4" stroke-linecap="round" />
        <rect x="217.41" y="306.26" width="8.49" height="16.73" rx="1.4" fill="#c65b3d" opacity="0.82" />
      </g><g>
        <line x1="236.28" y1="287.8" x2="236.28" y2="313" stroke="#c65b3d" stroke-width="1.4" stroke-linecap="round" />
        <rect x="232.04" y="288.23" width="8.49" height="17.82" rx="1.4" fill="#c65b3d" opacity="0.82" />
      </g><g>
        <line x1="250.92" y1="261.72" x2="250.92" y2="299.96" stroke="#0f766e" stroke-width="1.4" stroke-linecap="round" />
        <rect x="246.67" y="264.33" width="8.49" height="19.55" rx="1.4" fill="#0f766e" opacity="0.9" />
      </g><g>
        <line x1="265.55" y1="209.36" x2="265.55" y2="254.77" stroke="#0f766e" stroke-width="1.4" stroke-linecap="round" />
        <rect x="261.31" y="229.57" width="8.49" height="20.42" rx="1.4" fill="#0f766e" opacity="0.9" />
      </g><g>
        <line x1="280.18" y1="177.86" x2="280.18" y2="232.39" stroke="#0f766e" stroke-width="1.4" stroke-linecap="round" />
        <rect x="275.94" y="199.15" width="8.49" height="29.55" rx="1.4" fill="#0f766e" opacity="0.9" />
      </g><g>
        <line x1="294.82" y1="196.11" x2="294.82" y2="220.88" stroke="#c65b3d" stroke-width="1.4" stroke-linecap="round" />
        <rect x="290.57" y="200.89" width="8.49" height="12.17" rx="1.4" fill="#c65b3d" opacity="0.82" />
      </g><g>
        <line x1="309.45" y1="231.09" x2="309.45" y2="267.81" stroke="#c65b3d" stroke-width="1.4" stroke-linecap="round" />
        <rect x="305.21" y="234.35" width="8.49" height="1.74" rx="1.4" fill="#c65b3d" opacity="0.82" />
      </g><g>
        <line x1="324.08" y1="167.86" x2="324.08" y2="206.97" stroke="#0f766e" stroke-width="1.4" stroke-linecap="round" />
        <rect x="319.84" y="169.6" width="8.49" height="14.77" rx="1.4" fill="#0f766e" opacity="0.9" />
      </g><g>
        <line x1="338.72" y1="113.76" x2="338.72" y2="185.24" stroke="#0f766e" stroke-width="1.4" stroke-linecap="round" />
        <rect x="334.47" y="126.58" width="8.49" height="52.58" rx="1.4" fill="#0f766e" opacity="0.9" />
      </g><g>
        <line x1="353.35" y1="96.16" x2="353.35" y2="133.97" stroke="#c65b3d" stroke-width="1.4" stroke-linecap="round" />
        <rect x="349.11" y="96.6" width="8.49" height="36.5" rx="1.4" fill="#c65b3d" opacity="0.82" />
      </g><g>
        <line x1="367.98" y1="99.86" x2="367.98" y2="135.27" stroke="#0f766e" stroke-width="1.4" stroke-linecap="round" />
        <rect x="363.74" y="101.38" width="8.49" height="24.33" rx="1.4" fill="#0f766e" opacity="0.9" />
      </g><g>
        <line x1="382.62" y1="74" x2="382.62" y2="136.14" stroke="#0f766e" stroke-width="1.4" stroke-linecap="round" />
        <rect x="378.37" y="90.95" width="8.49" height="9.56" rx="1.4" fill="#0f766e" opacity="0.9" />
      </g><g>
        <line x1="397.25" y1="86.6" x2="397.25" y2="165.04" stroke="#c65b3d" stroke-width="1.4" stroke-linecap="round" />
        <rect x="393.01" y="86.6" width="8.49" height="63.88" rx="1.4" fill="#c65b3d" opacity="0.82" />
      </g><g>
        <line x1="411.88" y1="151.78" x2="411.88" y2="182.2" stroke="#c65b3d" stroke-width="1.4" stroke-linecap="round" />
        <rect x="407.64" y="157.87" width="8.49" height="22.16" rx="1.4" fill="#c65b3d" opacity="0.82" />
      </g><g>
        <line x1="426.52" y1="126.8" x2="426.52" y2="166.99" stroke="#0f766e" stroke-width="1.4" stroke-linecap="round" />
        <rect x="422.27" y="127.01" width="8.49" height="28.68" rx="1.4" fill="#0f766e" opacity="0.9" />
      </g><g>
        <line x1="441.15" y1="130.71" x2="441.15" y2="172.64" stroke="#c65b3d" stroke-width="1.4" stroke-linecap="round" />
        <rect x="436.91" y="134.84" width="8.49" height="35.63" rx="1.4" fill="#c65b3d" opacity="0.82" />
      </g><g>
        <line x1="455.78" y1="206.97" x2="455.78" y2="231.31" stroke="#c65b3d" stroke-width="1.4" stroke-linecap="round" />
        <rect x="451.54" y="208.27" width="8.49" height="15.64" rx="1.4" fill="#c65b3d" opacity="0.82" />
      </g><g>
        <line x1="470.42" y1="214.36" x2="470.42" y2="243.04" stroke="#c65b3d" stroke-width="1.4" stroke-linecap="round" />
        <rect x="466.17" y="216.53" width="8.49" height="25.64" rx="1.4" fill="#c65b3d" opacity="0.82" />
      </g><g>
        <line x1="485.05" y1="220.88" x2="485.05" y2="250.64" stroke="#c65b3d" stroke-width="1.4" stroke-linecap="round" />
        <rect x="480.81" y="230" width="8.49" height="15.21" rx="1.4" fill="#c65b3d" opacity="0.82" />
      </g><g>
        <line x1="499.68" y1="260.85" x2="499.68" y2="307.79" stroke="#c65b3d" stroke-width="1.4" stroke-linecap="round" />
        <rect x="495.44" y="263.03" width="8.49" height="33.89" rx="1.4" fill="#c65b3d" opacity="0.82" />
      </g><g>
        <line x1="514.32" y1="281.71" x2="514.32" y2="308.22" stroke="#0f766e" stroke-width="1.4" stroke-linecap="round" />
        <rect x="510.07" y="306.48" width="8.49" height="1.5" rx="1.4" fill="#0f766e" opacity="0.9" />
      </g><g>
        <line x1="528.95" y1="271.72" x2="528.95" y2="308.44" stroke="#0f766e" stroke-width="1.4" stroke-linecap="round" />
        <rect x="524.71" y="295.62" width="8.49" height="4.35" rx="1.4" fill="#0f766e" opacity="0.9" />
      </g><g>
        <line x1="543.58" y1="397.3" x2="543.58" y2="490.45" stroke="#0f766e" stroke-width="1.4" stroke-linecap="round" />
        <rect x="539.34" y="429.02" width="8.49" height="60.84" rx="1.4" fill="#0f766e" opacity="0.9" />
      </g><g>
        <line x1="558.22" y1="375.57" x2="558.22" y2="419.03" stroke="#0f766e" stroke-width="1.4" stroke-linecap="round" />
        <rect x="553.97" y="389.48" width="8.49" height="17.38" rx="1.4" fill="#0f766e" opacity="0.9" />
      </g><g>
        <line x1="572.85" y1="392.96" x2="572.85" y2="423.81" stroke="#c65b3d" stroke-width="1.4" stroke-linecap="round" />
        <rect x="568.61" y="411.64" width="8.49" height="8.26" rx="1.4" fill="#c65b3d" opacity="0.82" />
      </g><g>
        <line x1="587.48" y1="419.9" x2="587.48" y2="455.75" stroke="#c65b3d" stroke-width="1.4" stroke-linecap="round" />
        <rect x="583.24" y="423.81" width="8.49" height="26.94" rx="1.4" fill="#c65b3d" opacity="0.82" />
      </g><g>
        <line x1="602.12" y1="461.61" x2="602.12" y2="488.99" stroke="#c65b3d" stroke-width="1.4" stroke-linecap="round" />
        <rect x="597.87" y="470.31" width="8.49" height="3.04" rx="1.4" fill="#c65b3d" opacity="0.82" />
      </g><g>
        <line x1="616.75" y1="436.85" x2="616.75" y2="467.26" stroke="#c65b3d" stroke-width="1.4" stroke-linecap="round" />
        <rect x="612.51" y="442.49" width="8.49" height="24.33" rx="1.4" fill="#c65b3d" opacity="0.82" />
      </g><g>
        <line x1="631.38" y1="454.23" x2="631.38" y2="471.83" stroke="#c65b3d" stroke-width="1.4" stroke-linecap="round" />
        <rect x="627.14" y="454.23" width="8.49" height="13.91" rx="1.4" fill="#c65b3d" opacity="0.82" />
      </g><g>
        <line x1="646.02" y1="465.09" x2="646.02" y2="487.9" stroke="#c65b3d" stroke-width="1.4" stroke-linecap="round" />
        <rect x="641.77" y="467.7" width="8.49" height="4.35" rx="1.4" fill="#c65b3d" opacity="0.82" />
      </g><g>
        <line x1="660.65" y1="449.88" x2="660.65" y2="502.46" stroke="#c65b3d" stroke-width="1.4" stroke-linecap="round" />
        <rect x="656.41" y="461.61" width="8.49" height="36.5" rx="1.4" fill="#c65b3d" opacity="0.82" />
      </g><g>
        <line x1="675.28" y1="438.15" x2="675.28" y2="475.09" stroke="#0f766e" stroke-width="1.4" stroke-linecap="round" />
        <rect x="671.04" y="450.75" width="8.49" height="15.86" rx="1.4" fill="#0f766e" opacity="0.9" />
      </g><g>
        <line x1="689.92" y1="435.76" x2="689.92" y2="479" stroke="#0f766e" stroke-width="1.4" stroke-linecap="round" />
        <rect x="685.67" y="446.84" width="8.49" height="28.68" rx="1.4" fill="#0f766e" opacity="0.9" />
      </g><g>
        <line x1="704.55" y1="432.93" x2="704.55" y2="455.75" stroke="#c65b3d" stroke-width="1.4" stroke-linecap="round" />
        <rect x="700.31" y="435.98" width="8.49" height="12.17" rx="1.4" fill="#c65b3d" opacity="0.82" />
      </g><g>
        <line x1="719.18" y1="479" x2="719.18" y2="516.58" stroke="#c65b3d" stroke-width="1.4" stroke-linecap="round" />
        <rect x="714.94" y="483.34" width="8.49" height="20.86" rx="1.4" fill="#c65b3d" opacity="0.82" />
      </g><g>
        <line x1="733.82" y1="466.83" x2="733.82" y2="498.99" stroke="#0f766e" stroke-width="1.4" stroke-linecap="round" />
        <rect x="729.57" y="478.56" width="8.49" height="20.42" rx="1.4" fill="#0f766e" opacity="0.9" />
      </g><g>
        <line x1="748.45" y1="435.32" x2="748.45" y2="472.04" stroke="#0f766e" stroke-width="1.4" stroke-linecap="round" />
        <rect x="744.21" y="444.23" width="8.49" height="27.38" rx="1.4" fill="#0f766e" opacity="0.9" />
      </g><g>
        <line x1="763.08" y1="434.89" x2="763.08" y2="460.31" stroke="#c65b3d" stroke-width="1.4" stroke-linecap="round" />
        <rect x="758.84" y="440.32" width="8.49" height="15.64" rx="1.4" fill="#c65b3d" opacity="0.82" />
      </g><g>
        <line x1="777.72" y1="413.16" x2="777.72" y2="464.22" stroke="#0f766e" stroke-width="1.4" stroke-linecap="round" />
        <rect x="773.47" y="423.37" width="8.49" height="29.98" rx="1.4" fill="#0f766e" opacity="0.9" />
      </g><g>
        <line x1="792.35" y1="411.64" x2="792.35" y2="440.54" stroke="#c65b3d" stroke-width="1.4" stroke-linecap="round" />
        <rect x="788.11" y="422.07" width="8.49" height="7.82" rx="1.4" fill="#c65b3d" opacity="0.82" />
      </g><g>
        <line x1="806.98" y1="407.3" x2="806.98" y2="441.19" stroke="#c65b3d" stroke-width="1.4" stroke-linecap="round" />
        <rect x="802.74" y="408.6" width="8.49" height="16.08" rx="1.4" fill="#c65b3d" opacity="0.82" />
      </g><g>
        <line x1="821.62" y1="398.17" x2="821.62" y2="422.72" stroke="#c65b3d" stroke-width="1.4" stroke-linecap="round" />
        <rect x="817.37" y="412.51" width="8.49" height="8.69" rx="1.4" fill="#c65b3d" opacity="0.82" />
      </g><g>
        <line x1="836.25" y1="405.56" x2="836.25" y2="437.28" stroke="#c65b3d" stroke-width="1.4" stroke-linecap="round" />
        <rect x="832.01" y="431.2" width="8.49" height="4.78" rx="1.4" fill="#c65b3d" opacity="0.82" />
      </g><g>
        <line x1="850.88" y1="435.11" x2="850.88" y2="467.92" stroke="#c65b3d" stroke-width="1.4" stroke-linecap="round" />
        <rect x="846.64" y="443.36" width="8.49" height="23.03" rx="1.4" fill="#c65b3d" opacity="0.82" />
      </g><g>
        <line x1="865.52" y1="483.78" x2="865.52" y2="525.71" stroke="#c65b3d" stroke-width="1.4" stroke-linecap="round" />
        <rect x="861.27" y="490.73" width="8.49" height="29.11" rx="1.4" fill="#c65b3d" opacity="0.82" />
      </g><g>
        <line x1="880.15" y1="517.67" x2="880.15" y2="552" stroke="#0f766e" stroke-width="1.4" stroke-linecap="round" />
        <rect x="875.91" y="533.31" width="8.49" height="2.17" rx="1.4" fill="#0f766e" opacity="0.9" />
      </g><g>
        <line x1="894.78" y1="494.64" x2="894.78" y2="516.37" stroke="#0f766e" stroke-width="1.4" stroke-linecap="round" />
        <rect x="890.54" y="502.03" width="8.49" height="10.86" rx="1.4" fill="#0f766e" opacity="0.9" />
      </g><g>
        <line x1="909.42" y1="434.67" x2="909.42" y2="459.22" stroke="#0f766e" stroke-width="1.4" stroke-linecap="round" />
        <rect x="905.17" y="434.67" width="8.49" height="19.99" rx="1.4" fill="#0f766e" opacity="0.9" />
      </g><g>
        <line x1="924.05" y1="404.25" x2="924.05" y2="434.89" stroke="#0f766e" stroke-width="1.4" stroke-linecap="round" />
        <rect x="919.81" y="423.81" width="8.49" height="4.35" rx="1.4" fill="#0f766e" opacity="0.9" />
      </g><g>
        <line x1="938.68" y1="430.11" x2="938.68" y2="469.87" stroke="#c65b3d" stroke-width="1.4" stroke-linecap="round" />
        <rect x="934.44" y="446.84" width="8.49" height="15.21" rx="1.4" fill="#c65b3d" opacity="0.82" />
      </g>
  <polyline fill="none" stroke="#113b52" stroke-width="2.2" stroke-linejoin="round" stroke-linecap="round" points="353.35,288.86 367.98,276.8 382.62,265.05 397.25,255.49 411.88,244.47 426.52,231.48 441.15,219.51 455.78,210.53 470.42,204.56 485.05,202.54 499.68,201.45 514.32,200.63 528.95,200.11 543.58,208.34 558.22,216.34 572.85,227.37 587.48,239.26 602.12,251.12 616.75,265.98 631.38,283.06 646.02,300.01 660.65,319.84 675.28,337.83 689.92,352.65 704.55,366.06 719.18,384.92 733.82,400.32 748.45,411.34 763.08,422.03 777.72,430.94 792.35,437.58 806.98,443.49 821.62,449.77 836.25,450.12 850.88,453.97 865.52,458.96 880.15,463.09 894.78,464.53 909.42,462.92 924.05,460.7 938.68,460.2" />
  <polyline fill="none" stroke="#7a8f27" stroke-width="2.2" stroke-linejoin="round" stroke-linecap="round" points="792.35,327.15 806.98,328.79 821.62,330.69 836.25,332.58 850.88,333.9 865.52,336.56 880.15,339.03 894.78,341 909.42,342.46 924.05,345.23 938.68,348.09" />

  <g>
    <text x="75.32" y="576" text-anchor="middle" font-size="12" font-family="Avenir Next, Segoe UI, sans-serif" fill="#6d7887">Mar 13</text><text x="353.35" y="576" text-anchor="middle" font-size="12" font-family="Avenir Next, Segoe UI, sans-serif" fill="#6d7887">Apr 10</text><text x="646.02" y="576" text-anchor="middle" font-size="12" font-family="Avenir Next, Segoe UI, sans-serif" fill="#6d7887">May 8</text><text x="938.68" y="576" text-anchor="middle" font-size="12" font-family="Avenir Next, Segoe UI, sans-serif" fill="#6d7887">Jun 8</text>
  </g>

  <g transform="translate(68, 586)">
    <rect x="0" y="-14" width="12" height="3" rx="2" fill="#113b52" />
    <text x="18" y="-8" font-size="12" font-family="Avenir Next, Segoe UI, sans-serif" fill="#506274">SMA20</text>
    <rect x="88" y="-14" width="12" height="3" rx="2" fill="#7a8f27" />
    <text x="106" y="-8" font-size="12" font-family="Avenir Next, Segoe UI, sans-serif" fill="#506274">SMA50</text>
    <text x="878" y="-8" text-anchor="end" font-size="12" font-family="Avenir Next, Segoe UI, sans-serif" fill="#506274">Last 60 sessions</text>
  </g>
</svg>