<?xml version="1.0" encoding="UTF-8"?>
<svg xmlns="http://www.w3.org/2000/svg" width="980" height="620" viewBox="0 0 980 620" role="img" aria-label="KARO chart snapshot">
  <defs>
    <linearGradient id="bg" x1="0%" x2="100%" y1="0%" y2="100%">
      <stop offset="0%" stop-color="#f8fbfe" />
      <stop offset="100%" stop-color="#eef4f8" />
    </linearGradient>
  </defs>
  <rect width="980" height="620" rx="24" fill="url(#bg)" />
  <rect x="18" y="18" width="944" height="584" rx="20" fill="#ffffff" stroke="#d7e0e8" />
  <text x="68" y="44" font-size="28" font-weight="700" font-family="Avenir Next, Segoe UI, sans-serif" fill="#17212b">KARO Candlestick Snapshot</text>
  <text x="68" y="66" font-size="15" font-family="Avenir Next, Segoe UI, sans-serif" fill="#5e6a78">Pullback Reversal | Bullish Engulfing | Close 57.9</text>
  <text x="946" y="44" text-anchor="end" font-size="14" font-family="Avenir Next, Segoe UI, sans-serif" fill="#4d6478">Trend: Uptrend</text>
  <text x="946" y="64" text-anchor="end" font-size="14" font-family="Avenir Next, Segoe UI, sans-serif" fill="#4d6478">Scores B 60 / P 83 / RS 100</text>

  <g>
    <g>
        <line x1="68" y1="74" x2="946" y2="74" stroke="#e6edf4" stroke-width="1" />
        <text x="56" y="78" text-anchor="end" font-size="12" font-family="Avenir Next, Segoe UI, sans-serif" fill="#6d7887">59.00</text>
      </g><g>
        <line x1="68" y1="193.5" x2="946" y2="193.5" stroke="#e6edf4" stroke-width="1" />
        <text x="56" y="197.5" text-anchor="end" font-size="12" font-family="Avenir Next, Segoe UI, sans-serif" fill="#6d7887">54.85</text>
      </g><g>
        <line x1="68" y1="313" x2="946" y2="313" stroke="#e6edf4" stroke-width="1" />
        <text x="56" y="317" text-anchor="end" font-size="12" font-family="Avenir Next, Segoe UI, sans-serif" fill="#6d7887">50.70</text>
      </g><g>
        <line x1="68" y1="432.5" x2="946" y2="432.5" stroke="#e6edf4" stroke-width="1" />
        <text x="56" y="436.5" text-anchor="end" font-size="12" font-family="Avenir Next, Segoe UI, sans-serif" fill="#6d7887">46.55</text>
      </g><g>
        <line x1="68" y1="552" x2="946" y2="552" stroke="#e6edf4" stroke-width="1" />
        <text x="56" y="556" text-anchor="end" font-size="12" font-family="Avenir Next, Segoe UI, sans-serif" fill="#6d7887">42.40</text>
      </g>
  </g>

  <line x1="68" y1="74" x2="946" y2="74" stroke="#d9a441" stroke-width="1.6" stroke-dasharray="8 6" />
         <text x="946" y="66" text-anchor="end" font-size="12" font-family="Avenir Next, Segoe UI, sans-serif" fill="#a87416">Resistance 59.00</text>
  <line x1="68" y1="458.88" x2="946" y2="458.88" stroke="#0f766e" stroke-width="1.6" stroke-dasharray="8 6" opacity="0.8" />
         <text x="946" y="450.88" text-anchor="end" font-size="12" font-family="Avenir Next, Segoe UI, sans-serif" fill="#0f766e">Support 45.63</text>

  <g>
        <line x1="75.32" y1="196.06" x2="75.32" y2="289.9" stroke="#0f766e" stroke-width="1.4" stroke-linecap="round" />
        <rect x="71.07" y="236.64" width="8.49" height="42.03" rx="1.4" fill="#0f766e" opacity="0.9" />
      </g><g>
        <line x1="89.95" y1="239.52" x2="89.95" y2="352.94" stroke="#c65b3d" stroke-width="1.4" stroke-linecap="round" />
        <rect x="85.71" y="244.42" width="8.49" height="31.38" rx="1.4" fill="#c65b3d" opacity="0.82" />
      </g><g>
        <line x1="104.58" y1="246.43" x2="104.58" y2="356.11" stroke="#c65b3d" stroke-width="1.4" stroke-linecap="round" />
        <rect x="100.34" y="280.4" width="8.49" height="67.07" rx="1.4" fill="#c65b3d" opacity="0.82" />
      </g><g>
        <line x1="119.22" y1="238.57" x2="119.22" y2="347.76" stroke="#0f766e" stroke-width="1.4" stroke-linecap="round" />
        <rect x="114.97" y="329.62" width="8.49" height="2.02" rx="1.4" fill="#0f766e" opacity="0.9" />
      </g><g>
        <line x1="133.85" y1="333.08" x2="133.85" y2="368.49" stroke="#0f766e" stroke-width="1.4" stroke-linecap="round" />
        <rect x="129.61" y="334.52" width="8.49" height="2.3" rx="1.4" fill="#0f766e" opacity="0.9" />
      </g><g>
        <line x1="148.48" y1="318.69" x2="148.48" y2="358.12" stroke="#0f766e" stroke-width="1.4" stroke-linecap="round" />
        <rect x="144.24" y="333.08" width="8.49" height="2.88" rx="1.4" fill="#0f766e" opacity="0.9" />
      </g><g>
        <line x1="163.12" y1="304.87" x2="163.12" y2="347.18" stroke="#c65b3d" stroke-width="1.4" stroke-linecap="round" />
        <rect x="158.87" y="333.08" width="8.49" height="4.61" rx="1.4" fill="#c65b3d" opacity="0.82" />
      </g><g>
        <line x1="177.75" y1="315.23" x2="177.75" y2="346.61" stroke="#0f766e" stroke-width="1.4" stroke-linecap="round" />
        <rect x="173.51" y="333.37" width="8.49" height="8.06" rx="1.4" fill="#0f766e" opacity="0.9" />
      </g><g>
        <line x1="192.38" y1="328.62" x2="192.38" y2="347.47" stroke="#c65b3d" stroke-width="1.4" stroke-linecap="round" />
        <rect x="188.14" y="342.58" width="8.49" height="1.5" rx="1.4" fill="#c65b3d" opacity="0.82" />
      </g><g>
        <line x1="207.02" y1="327.7" x2="207.02" y2="380.29" stroke="#c65b3d" stroke-width="1.4" stroke-linecap="round" />
        <rect x="202.77" y="334.23" width="8.49" height="28.93" rx="1.4" fill="#c65b3d" opacity="0.82" />
      </g><g>
        <line x1="221.65" y1="287.88" x2="221.65" y2="353.8" stroke="#0f766e" stroke-width="1.4" stroke-linecap="round" />
        <rect x="217.41" y="321.56" width="8.49" height="32.24" rx="1.4" fill="#0f766e" opacity="0.9" />
      </g><g>
        <line x1="236.28" y1="292.2" x2="236.28" y2="342" stroke="#c65b3d" stroke-width="1.4" stroke-linecap="round" />
        <rect x="232.04" y="292.2" width="8.49" height="26.2" rx="1.4" fill="#c65b3d" opacity="0.82" />
      </g><g>
        <line x1="250.92" y1="311.49" x2="250.92" y2="344.16" stroke="#c65b3d" stroke-width="1.4" stroke-linecap="round" />
        <rect x="246.67" y="311.49" width="8.49" height="12.38" rx="1.4" fill="#c65b3d" opacity="0.82" />
      </g><g>
        <line x1="265.55" y1="318.69" x2="265.55" y2="354.96" stroke="#c65b3d" stroke-width="1.4" stroke-linecap="round" />
        <rect x="261.31" y="325.88" width="8.49" height="10.08" rx="1.4" fill="#c65b3d" opacity="0.82" />
      </g><g>
        <line x1="280.18" y1="273.49" x2="280.18" y2="340.28" stroke="#0f766e" stroke-width="1.4" stroke-linecap="round" />
        <rect x="275.94" y="295.66" width="8.49" height="37.42" rx="1.4" fill="#0f766e" opacity="0.9" />
      </g><g>
        <line x1="294.82" y1="295.37" x2="294.82" y2="339.99" stroke="#c65b3d" stroke-width="1.4" stroke-linecap="round" />
        <rect x="290.57" y="295.66" width="8.49" height="31.67" rx="1.4" fill="#c65b3d" opacity="0.82" />
      </g><g>
        <line x1="309.45" y1="275.51" x2="309.45" y2="386.91" stroke="#c65b3d" stroke-width="1.4" stroke-linecap="round" />
        <rect x="305.21" y="333.08" width="8.49" height="39.15" rx="1.4" fill="#c65b3d" opacity="0.82" />
      </g><g>
        <line x1="324.08" y1="329.91" x2="324.08" y2="390.65" stroke="#c65b3d" stroke-width="1.4" stroke-linecap="round" />
        <rect x="319.84" y="372.23" width="8.49" height="6.05" rx="1.4" fill="#c65b3d" opacity="0.82" />
      </g><g>
        <line x1="338.72" y1="316.67" x2="338.72" y2="419.44" stroke="#c65b3d" stroke-width="1.4" stroke-linecap="round" />
        <rect x="334.47" y="360.43" width="8.49" height="45.48" rx="1.4" fill="#c65b3d" opacity="0.82" />
      </g><g>
        <line x1="353.35" y1="390.65" x2="353.35" y2="552" stroke="#c65b3d" stroke-width="1.4" stroke-linecap="round" />
        <rect x="349.11" y="405.91" width="8.49" height="82.91" rx="1.4" fill="#c65b3d" opacity="0.82" />
      </g><g>
        <line x1="367.98" y1="409.94" x2="367.98" y2="504.36" stroke="#0f766e" stroke-width="1.4" stroke-linecap="round" />
        <rect x="363.74" y="447.07" width="8.49" height="56.42" rx="1.4" fill="#0f766e" opacity="0.9" />
      </g><g>
        <line x1="382.62" y1="400.44" x2="382.62" y2="462.62" stroke="#0f766e" stroke-width="1.4" stroke-linecap="round" />
        <rect x="378.37" y="427.21" width="8.49" height="19.57" rx="1.4" fill="#0f766e" opacity="0.9" />
      </g><g>
        <line x1="397.25" y1="388.06" x2="397.25" y2="441.17" stroke="#c65b3d" stroke-width="1.4" stroke-linecap="round" />
        <rect x="393.01" y="418.57" width="8.49" height="16.41" rx="1.4" fill="#c65b3d" opacity="0.82" />
      </g><g>
        <line x1="411.88" y1="417.71" x2="411.88" y2="462.05" stroke="#0f766e" stroke-width="1.4" stroke-linecap="round" />
        <rect x="407.64" y="418.57" width="8.49" height="9.64" rx="1.4" fill="#0f766e" opacity="0.9" />
      </g><g>
        <line x1="426.52" y1="429.23" x2="426.52" y2="466.07" stroke="#0f766e" stroke-width="1.4" stroke-linecap="round" />
        <rect x="422.27" y="433.54" width="8.49" height="3.17" rx="1.4" fill="#0f766e" opacity="0.9" />
      </g><g>
        <line x1="441.15" y1="394.39" x2="441.15" y2="432.97" stroke="#0f766e" stroke-width="1.4" stroke-linecap="round" />
        <rect x="436.91" y="402.74" width="8.49" height="28.5" rx="1.4" fill="#0f766e" opacity="0.9" />
      </g><g>
        <line x1="455.78" y1="391.97" x2="455.78" y2="449.95" stroke="#0f766e" stroke-width="1.4" stroke-linecap="round" />
        <rect x="451.54" y="393.24" width="8.49" height="8.35" rx="1.4" fill="#0f766e" opacity="0.9" />
      </g><g>
        <line x1="470.42" y1="390.65" x2="470.42" y2="426.49" stroke="#c65b3d" stroke-width="1.4" stroke-linecap="round" />
        <rect x="466.17" y="396.12" width="8.49" height="9.21" rx="1.4" fill="#c65b3d" opacity="0.82" />
      </g><g>
        <line x1="485.05" y1="382.31" x2="485.05" y2="432.82" stroke="#0f766e" stroke-width="1.4" stroke-linecap="round" />
        <rect x="480.81" y="401.01" width="8.49" height="3.45" rx="1.4" fill="#0f766e" opacity="0.9" />
      </g><g>
        <line x1="499.68" y1="389.5" x2="499.68" y2="419.58" stroke="#0f766e" stroke-width="1.4" stroke-linecap="round" />
        <rect x="495.44" y="399.29" width="8.49" height="2.59" rx="1.4" fill="#0f766e" opacity="0.9" />
      </g><g>
        <line x1="514.32" y1="286.44" x2="514.32" y2="402.45" stroke="#0f766e" stroke-width="1.4" stroke-linecap="round" />
        <rect x="510.07" y="322.14" width="8.49" height="76.86" rx="1.4" fill="#0f766e" opacity="0.9" />
      </g><g>
        <line x1="528.95" y1="324.44" x2="528.95" y2="404.47" stroke="#c65b3d" stroke-width="1.4" stroke-linecap="round" />
        <rect x="524.71" y="325.88" width="8.49" height="18.14" rx="1.4" fill="#c65b3d" opacity="0.82" />
      </g><g>
        <line x1="543.58" y1="347.47" x2="543.58" y2="428.65" stroke="#c65b3d" stroke-width="1.4" stroke-linecap="round" />
        <rect x="539.34" y="347.47" width="8.49" height="68.8" rx="1.4" fill="#c65b3d" opacity="0.82" />
      </g><g>
        <line x1="558.22" y1="374.24" x2="558.22" y2="413.97" stroke="#0f766e" stroke-width="1.4" stroke-linecap="round" />
        <rect x="553.97" y="391.8" width="8.49" height="6.91" rx="1.4" fill="#0f766e" opacity="0.9" />
      </g><g>
        <line x1="572.85" y1="391.8" x2="572.85" y2="446.5" stroke="#c65b3d" stroke-width="1.4" stroke-linecap="round" />
        <rect x="568.61" y="395.55" width="8.49" height="20.44" rx="1.4" fill="#c65b3d" opacity="0.82" />
      </g><g>
        <line x1="587.48" y1="376.69" x2="587.48" y2="440.74" stroke="#c65b3d" stroke-width="1.4" stroke-linecap="round" />
        <rect x="583.24" y="418.57" width="8.49" height="20.15" rx="1.4" fill="#c65b3d" opacity="0.82" />
      </g><g>
        <line x1="602.12" y1="409.58" x2="602.12" y2="468.52" stroke="#c65b3d" stroke-width="1.4" stroke-linecap="round" />
        <rect x="597.87" y="431.82" width="8.49" height="3.74" rx="1.4" fill="#c65b3d" opacity="0.82" />
      </g><g>
        <line x1="616.75" y1="416.42" x2="616.75" y2="460.31" stroke="#c65b3d" stroke-width="1.4" stroke-linecap="round" />
        <rect x="612.51" y="448.51" width="8.49" height="10.65" rx="1.4" fill="#c65b3d" opacity="0.82" />
      </g><g>
        <line x1="631.38" y1="424.62" x2="631.38" y2="504.36" stroke="#c65b3d" stroke-width="1.4" stroke-linecap="round" />
        <rect x="627.14" y="459.16" width="8.49" height="2.3" rx="1.4" fill="#c65b3d" opacity="0.82" />
      </g><g>
        <line x1="646.02" y1="397.85" x2="646.02" y2="477.01" stroke="#0f766e" stroke-width="1.4" stroke-linecap="round" />
        <rect x="641.77" y="411.67" width="8.49" height="51.53" rx="1.4" fill="#0f766e" opacity="0.9" />
      </g><g>
        <line x1="660.65" y1="359.56" x2="660.65" y2="395.37" stroke="#0f766e" stroke-width="1.4" stroke-linecap="round" />
        <rect x="656.41" y="359.56" width="8.49" height="33.97" rx="1.4" fill="#0f766e" opacity="0.9" />
      </g><g>
        <line x1="675.28" y1="350.06" x2="675.28" y2="422.46" stroke="#c65b3d" stroke-width="1.4" stroke-linecap="round" />
        <rect x="671.04" y="358.7" width="8.49" height="56.13" rx="1.4" fill="#c65b3d" opacity="0.82" />
      </g><g>
        <line x1="689.92" y1="379.42" x2="689.92" y2="447.94" stroke="#c65b3d" stroke-width="1.4" stroke-linecap="round" />
        <rect x="685.67" y="414.54" width="8.49" height="23.89" rx="1.4" fill="#c65b3d" opacity="0.82" />
      </g><g>
        <line x1="704.55" y1="399" x2="704.55" y2="458.88" stroke="#0f766e" stroke-width="1.4" stroke-linecap="round" />
        <rect x="700.31" y="410.23" width="8.49" height="4.32" rx="1.4" fill="#0f766e" opacity="0.9" />
      </g><g>
        <line x1="719.18" y1="385.08" x2="719.18" y2="424.62" stroke="#0f766e" stroke-width="1.4" stroke-linecap="round" />
        <rect x="714.94" y="395.83" width="8.49" height="28.79" rx="1.4" fill="#0f766e" opacity="0.9" />
      </g><g>
        <line x1="733.82" y1="379.42" x2="733.82" y2="407.92" stroke="#0f766e" stroke-width="1.4" stroke-linecap="round" />
        <rect x="729.57" y="396.12" width="8.49" height="6.62" rx="1.4" fill="#0f766e" opacity="0.9" />
      </g><g>
        <line x1="748.45" y1="369.35" x2="748.45" y2="404.33" stroke="#0f766e" stroke-width="1.4" stroke-linecap="round" />
        <rect x="744.21" y="392.09" width="8.49" height="8.06" rx="1.4" fill="#0f766e" opacity="0.9" />
      </g><g>
        <line x1="763.08" y1="349.49" x2="763.08" y2="404.76" stroke="#0f766e" stroke-width="1.4" stroke-linecap="round" />
        <rect x="758.84" y="359.85" width="8.49" height="33.1" rx="1.4" fill="#0f766e" opacity="0.9" />
      </g><g>
        <line x1="777.72" y1="317.82" x2="777.72" y2="388.37" stroke="#0f766e" stroke-width="1.4" stroke-linecap="round" />
        <rect x="773.47" y="334.23" width="8.49" height="27.64" rx="1.4" fill="#0f766e" opacity="0.9" />
      </g><g>
        <line x1="792.35" y1="304.29" x2="792.35" y2="377.41" stroke="#c65b3d" stroke-width="1.4" stroke-linecap="round" />
        <rect x="788.11" y="329.34" width="8.49" height="35.41" rx="1.4" fill="#c65b3d" opacity="0.82" />
      </g><g>
        <line x1="806.98" y1="346.09" x2="806.98" y2="377.84" stroke="#0f766e" stroke-width="1.4" stroke-linecap="round" />
        <rect x="802.74" y="351.5" width="8.49" height="16.98" rx="1.4" fill="#0f766e" opacity="0.9" />
      </g><g>
        <line x1="821.62" y1="265.14" x2="821.62" y2="355.1" stroke="#0f766e" stroke-width="1.4" stroke-linecap="round" />
        <rect x="817.37" y="315.81" width="8.49" height="28.5" rx="1.4" fill="#0f766e" opacity="0.9" />
      </g><g>
        <line x1="836.25" y1="210.16" x2="836.25" y2="312.35" stroke="#0f766e" stroke-width="1.4" stroke-linecap="round" />
        <rect x="832.01" y="221.67" width="8.49" height="87.22" rx="1.4" fill="#0f766e" opacity="0.9" />
      </g><g>
        <line x1="850.88" y1="138.34" x2="850.88" y2="223.69" stroke="#0f766e" stroke-width="1.4" stroke-linecap="round" />
        <rect x="846.64" y="151.15" width="8.49" height="69.66" rx="1.4" fill="#0f766e" opacity="0.9" />
      </g><g>
        <line x1="865.52" y1="94.73" x2="865.52" y2="161.94" stroke="#0f766e" stroke-width="1.4" stroke-linecap="round" />
        <rect x="861.27" y="110.85" width="8.49" height="41.45" rx="1.4" fill="#0f766e" opacity="0.9" />
      </g><g>
        <line x1="880.15" y1="108.54" x2="880.15" y2="182.53" stroke="#0f766e" stroke-width="1.4" stroke-linecap="round" />
        <rect x="875.91" y="110.56" width="8.49" height="25.91" rx="1.4" fill="#0f766e" opacity="0.9" />
      </g><g>
        <line x1="894.78" y1="99.91" x2="894.78" y2="140.57" stroke="#0f766e" stroke-width="1.4" stroke-linecap="round" />
        <rect x="890.54" y="100.2" width="8.49" height="13.82" rx="1.4" fill="#0f766e" opacity="0.9" />
      </g><g>
        <line x1="909.42" y1="74.14" x2="909.42" y2="128.91" stroke="#c65b3d" stroke-width="1.4" stroke-linecap="round" />
        <rect x="905.17" y="99.91" width="8.49" height="10.65" rx="1.4" fill="#c65b3d" opacity="0.82" />
      </g><g>
        <line x1="924.05" y1="102.79" x2="924.05" y2="167.56" stroke="#c65b3d" stroke-width="1.4" stroke-linecap="round" />
        <rect x="919.81" y="109.98" width="8.49" height="16.12" rx="1.4" fill="#c65b3d" opacity="0.82" />
      </g><g>
        <line x1="938.68" y1="88.68" x2="938.68" y2="137.33" stroke="#0f766e" stroke-width="1.4" stroke-linecap="round" />
        <rect x="934.44" y="105.67" width="8.49" height="26.2" rx="1.4" fill="#0f766e" opacity="0.9" />
      </g>
  <polyline fill="none" stroke="#113b52" stroke-width="2.2" stroke-linejoin="round" stroke-linecap="round" points="353.35,340.17 367.98,350.69 382.62,358.26 397.25,362.64 411.88,367.08 426.52,372.03 441.15,375.52 455.78,378.3 470.42,381.89 485.05,384.74 499.68,386.55 514.32,386.58 528.95,387.86 543.58,392.48 558.22,395.27 572.85,401.29 587.48,406.86 602.12,410.02 616.75,414.07 631.38,416.85 646.02,412.99 660.65,408.61 675.28,408 689.92,408.17 704.55,407.75 719.18,405.87 733.82,405.53 748.45,405.48 763.08,403.2 777.72,399.86 792.35,398.14 806.98,399.6 821.62,398.19 836.25,388.46 850.88,376.43 865.52,361.17 880.15,344.77 894.78,328 909.42,310.57 924.05,293.8 938.68,278.5" />
  <polyline fill="none" stroke="#7a8f27" stroke-width="2.2" stroke-linejoin="round" stroke-linecap="round" points="792.35,378.58 806.98,380.88 821.62,381.68 836.25,379.16 850.88,375.59 865.52,371.12 880.15,366.67 894.78,361.92 909.42,357.46 924.05,353.11 938.68,347.96" />

  <g>
    <text x="75.32" y="576" text-anchor="middle" font-size="12" font-family="Avenir Next, Segoe UI, sans-serif" fill="#6d7887">Apr 17</text><text x="353.35" y="576" text-anchor="middle" font-size="12" font-family="Avenir Next, Segoe UI, sans-serif" fill="#6d7887">May 14</text><text x="646.02" y="576" text-anchor="middle" font-size="12" font-family="Avenir Next, Segoe UI, sans-serif" fill="#6d7887">Jun 12</text><text x="938.68" y="576" text-anchor="middle" font-size="12" font-family="Avenir Next, Segoe UI, sans-serif" fill="#6d7887">Jul 14</text>
  </g>

  <g transform="translate(68, 586)">
    <rect x="0" y="-14" width="12" height="3" rx="2" fill="#113b52" />
    <text x="18" y="-8" font-size="12" font-family="Avenir Next, Segoe UI, sans-serif" fill="#506274">SMA20</text>
    <rect x="88" y="-14" width="12" height="3" rx="2" fill="#7a8f27" />
    <text x="106" y="-8" font-size="12" font-family="Avenir Next, Segoe UI, sans-serif" fill="#506274">SMA50</text>
    <text x="878" y="-8" text-anchor="end" font-size="12" font-family="Avenir Next, Segoe UI, sans-serif" fill="#506274">Last 60 sessions</text>
  </g>
</svg>