<?xml version="1.0" encoding="UTF-8"?>
<svg xmlns="http://www.w3.org/2000/svg" width="980" height="620" viewBox="0 0 980 620" role="img" aria-label="BAC chart snapshot">
  <defs>
    <linearGradient id="bg" x1="0%" x2="100%" y1="0%" y2="100%">
      <stop offset="0%" stop-color="#f8fbfe" />
      <stop offset="100%" stop-color="#eef4f8" />
    </linearGradient>
  </defs>
  <rect width="980" height="620" rx="24" fill="url(#bg)" />
  <rect x="18" y="18" width="944" height="584" rx="20" fill="#ffffff" stroke="#d7e0e8" />
  <text x="68" y="44" font-size="28" font-weight="700" font-family="Avenir Next, Segoe UI, sans-serif" fill="#17212b">BAC Candlestick Snapshot</text>
  <text x="68" y="66" font-size="15" font-family="Avenir Next, Segoe UI, sans-serif" fill="#5e6a78">Risk / Avoid | Bearish Engulfing | Close 59.5</text>
  <text x="946" y="44" text-anchor="end" font-size="14" font-family="Avenir Next, Segoe UI, sans-serif" fill="#4d6478">Trend: Uptrend</text>
  <text x="946" y="64" text-anchor="end" font-size="14" font-family="Avenir Next, Segoe UI, sans-serif" fill="#4d6478">Scores B 46 / P 88 / RS 70</text>

  <g>
    <g>
        <line x1="68" y1="74" x2="946" y2="74" stroke="#e6edf4" stroke-width="1" />
        <text x="56" y="78" text-anchor="end" font-size="12" font-family="Avenir Next, Segoe UI, sans-serif" fill="#6d7887">60.83</text>
      </g><g>
        <line x1="68" y1="193.5" x2="946" y2="193.5" stroke="#e6edf4" stroke-width="1" />
        <text x="56" y="197.5" text-anchor="end" font-size="12" font-family="Avenir Next, Segoe UI, sans-serif" fill="#6d7887">57.95</text>
      </g><g>
        <line x1="68" y1="313" x2="946" y2="313" stroke="#e6edf4" stroke-width="1" />
        <text x="56" y="317" text-anchor="end" font-size="12" font-family="Avenir Next, Segoe UI, sans-serif" fill="#6d7887">55.06</text>
      </g><g>
        <line x1="68" y1="432.5" x2="946" y2="432.5" stroke="#e6edf4" stroke-width="1" />
        <text x="56" y="436.5" text-anchor="end" font-size="12" font-family="Avenir Next, Segoe UI, sans-serif" fill="#6d7887">52.18</text>
      </g><g>
        <line x1="68" y1="552" x2="946" y2="552" stroke="#e6edf4" stroke-width="1" />
        <text x="56" y="556" text-anchor="end" font-size="12" font-family="Avenir Next, Segoe UI, sans-serif" fill="#6d7887">49.30</text>
      </g>
  </g>

  <line x1="68" y1="74" x2="946" y2="74" stroke="#d9a441" stroke-width="1.6" stroke-dasharray="8 6" />
         <text x="946" y="66" text-anchor="end" font-size="12" font-family="Avenir Next, Segoe UI, sans-serif" fill="#a87416">Resistance 60.83</text>
  <line x1="68" y1="304.92" x2="946" y2="304.92" stroke="#0f766e" stroke-width="1.6" stroke-dasharray="8 6" opacity="0.8" />
         <text x="946" y="296.92" text-anchor="end" font-size="12" font-family="Avenir Next, Segoe UI, sans-serif" fill="#0f766e">Support 55.26</text>

  <g>
        <line x1="75.32" y1="336.01" x2="75.32" y2="379.12" stroke="#c65b3d" stroke-width="1.4" stroke-linecap="round" />
        <rect x="71.07" y="355.49" width="8.49" height="21.97" rx="1.4" fill="#c65b3d" opacity="0.82" />
      </g><g>
        <line x1="89.95" y1="332.28" x2="89.95" y2="367.52" stroke="#c65b3d" stroke-width="1.4" stroke-linecap="round" />
        <rect x="85.71" y="350.52" width="8.49" height="10.36" rx="1.4" fill="#c65b3d" opacity="0.82" />
      </g><g>
        <line x1="104.58" y1="359.22" x2="104.58" y2="391.35" stroke="#0f766e" stroke-width="1.4" stroke-linecap="round" />
        <rect x="100.34" y="359.22" width="8.49" height="18.66" rx="1.4" fill="#0f766e" opacity="0.9" />
      </g><g>
        <line x1="119.22" y1="330.2" x2="119.22" y2="389.86" stroke="#c65b3d" stroke-width="1.4" stroke-linecap="round" />
        <rect x="114.97" y="357.15" width="8.49" height="21.56" rx="1.4" fill="#c65b3d" opacity="0.82" />
      </g><g>
        <line x1="133.85" y1="365.44" x2="133.85" y2="398.61" stroke="#c65b3d" stroke-width="1.4" stroke-linecap="round" />
        <rect x="129.61" y="370.83" width="8.49" height="22.8" rx="1.4" fill="#c65b3d" opacity="0.82" />
      </g><g>
        <line x1="148.48" y1="377.05" x2="148.48" y2="429.91" stroke="#c65b3d" stroke-width="1.4" stroke-linecap="round" />
        <rect x="144.24" y="396.12" width="8.49" height="24.46" rx="1.4" fill="#c65b3d" opacity="0.82" />
      </g><g>
        <line x1="163.12" y1="418.92" x2="163.12" y2="442.97" stroke="#c65b3d" stroke-width="1.4" stroke-linecap="round" />
        <rect x="158.87" y="426.8" width="8.49" height="11.19" rx="1.4" fill="#c65b3d" opacity="0.82" />
      </g><g>
        <line x1="177.75" y1="401.51" x2="177.75" y2="447.11" stroke="#0f766e" stroke-width="1.4" stroke-linecap="round" />
        <rect x="173.51" y="413.95" width="8.49" height="26.53" rx="1.4" fill="#0f766e" opacity="0.9" />
      </g><g>
        <line x1="192.38" y1="380.78" x2="192.38" y2="414.16" stroke="#c65b3d" stroke-width="1.4" stroke-linecap="round" />
        <rect x="188.14" y="397.78" width="8.49" height="14.92" rx="1.4" fill="#c65b3d" opacity="0.82" />
      </g><g>
        <line x1="207.02" y1="397.78" x2="207.02" y2="447.11" stroke="#0f766e" stroke-width="1.4" stroke-linecap="round" />
        <rect x="202.77" y="403.58" width="8.49" height="18.66" rx="1.4" fill="#0f766e" opacity="0.9" />
      </g><g>
        <line x1="221.65" y1="371.38" x2="221.65" y2="433.85" stroke="#0f766e" stroke-width="1.4" stroke-linecap="round" />
        <rect x="217.41" y="379.54" width="8.49" height="35.24" rx="1.4" fill="#0f766e" opacity="0.9" />
      </g><g>
        <line x1="236.28" y1="354.66" x2="236.28" y2="394.88" stroke="#c65b3d" stroke-width="1.4" stroke-linecap="round" />
        <rect x="232.04" y="370" width="8.49" height="18.66" rx="1.4" fill="#c65b3d" opacity="0.82" />
      </g><g>
        <line x1="250.92" y1="395.71" x2="250.92" y2="440.07" stroke="#c65b3d" stroke-width="1.4" stroke-linecap="round" />
        <rect x="246.67" y="395.71" width="8.49" height="36.48" rx="1.4" fill="#c65b3d" opacity="0.82" />
      </g><g>
        <line x1="265.55" y1="383.89" x2="265.55" y2="428.46" stroke="#0f766e" stroke-width="1.4" stroke-linecap="round" />
        <rect x="261.31" y="393.63" width="8.49" height="22.8" rx="1.4" fill="#0f766e" opacity="0.9" />
      </g><g>
        <line x1="280.18" y1="348.86" x2="280.18" y2="379.12" stroke="#c65b3d" stroke-width="1.4" stroke-linecap="round" />
        <rect x="275.94" y="364.61" width="8.49" height="9.12" rx="1.4" fill="#c65b3d" opacity="0.82" />
      </g><g>
        <line x1="294.82" y1="357.15" x2="294.82" y2="419.33" stroke="#c65b3d" stroke-width="1.4" stroke-linecap="round" />
        <rect x="290.57" y="375.81" width="8.49" height="33.17" rx="1.4" fill="#c65b3d" opacity="0.82" />
      </g><g>
        <line x1="309.45" y1="398.19" x2="309.45" y2="477.58" stroke="#c65b3d" stroke-width="1.4" stroke-linecap="round" />
        <rect x="305.21" y="399.44" width="8.49" height="69.23" rx="1.4" fill="#c65b3d" opacity="0.82" />
      </g><g>
        <line x1="324.08" y1="465.35" x2="324.08" y2="511.79" stroke="#c65b3d" stroke-width="1.4" stroke-linecap="round" />
        <rect x="319.84" y="472.82" width="8.49" height="27.36" rx="1.4" fill="#c65b3d" opacity="0.82" />
      </g><g>
        <line x1="338.72" y1="478.21" x2="338.72" y2="529.61" stroke="#c65b3d" stroke-width="1.4" stroke-linecap="round" />
        <rect x="334.47" y="487.33" width="8.49" height="3.32" rx="1.4" fill="#c65b3d" opacity="0.82" />
      </g><g>
        <line x1="353.35" y1="490.64" x2="353.35" y2="531.27" stroke="#c65b3d" stroke-width="1.4" stroke-linecap="round" />
        <rect x="349.11" y="508.06" width="8.49" height="21.56" rx="1.4" fill="#c65b3d" opacity="0.82" />
      </g><g>
        <line x1="367.98" y1="503.5" x2="367.98" y2="544.12" stroke="#c65b3d" stroke-width="1.4" stroke-linecap="round" />
        <rect x="363.74" y="520.49" width="8.49" height="8.71" rx="1.4" fill="#c65b3d" opacity="0.82" />
      </g><g>
        <line x1="382.62" y1="523.39" x2="382.62" y2="552" stroke="#0f766e" stroke-width="1.4" stroke-linecap="round" />
        <rect x="378.37" y="532.52" width="8.49" height="6.22" rx="1.4" fill="#0f766e" opacity="0.9" />
      </g><g>
        <line x1="397.25" y1="484.84" x2="397.25" y2="534.59" stroke="#0f766e" stroke-width="1.4" stroke-linecap="round" />
        <rect x="393.01" y="494.37" width="8.49" height="40.21" rx="1.4" fill="#0f766e" opacity="0.9" />
      </g><g>
        <line x1="411.88" y1="470.12" x2="411.88" y2="507.43" stroke="#c65b3d" stroke-width="1.4" stroke-linecap="round" />
        <rect x="407.64" y="492.92" width="8.49" height="1.5" rx="1.4" fill="#c65b3d" opacity="0.82" />
      </g><g>
        <line x1="426.52" y1="457.69" x2="426.52" y2="502.67" stroke="#0f766e" stroke-width="1.4" stroke-linecap="round" />
        <rect x="422.27" y="471.99" width="8.49" height="9.95" rx="1.4" fill="#0f766e" opacity="0.9" />
      </g><g>
        <line x1="441.15" y1="460.79" x2="441.15" y2="491.68" stroke="#0f766e" stroke-width="1.4" stroke-linecap="round" />
        <rect x="436.91" y="461.21" width="8.49" height="20.31" rx="1.4" fill="#0f766e" opacity="0.9" />
      </g><g>
        <line x1="455.78" y1="433.85" x2="455.78" y2="454.78" stroke="#0f766e" stroke-width="1.4" stroke-linecap="round" />
        <rect x="451.54" y="448.36" width="8.49" height="4.56" rx="1.4" fill="#0f766e" opacity="0.9" />
      </g><g>
        <line x1="470.42" y1="419.34" x2="470.42" y2="445.04" stroke="#c65b3d" stroke-width="1.4" stroke-linecap="round" />
        <rect x="466.17" y="430.95" width="8.49" height="1.5" rx="1.4" fill="#c65b3d" opacity="0.82" />
      </g><g>
        <line x1="485.05" y1="419.75" x2="485.05" y2="491.47" stroke="#c65b3d" stroke-width="1.4" stroke-linecap="round" />
        <rect x="480.81" y="423.9" width="8.49" height="53.48" rx="1.4" fill="#c65b3d" opacity="0.82" />
      </g><g>
        <line x1="499.68" y1="460.79" x2="499.68" y2="496.45" stroke="#c65b3d" stroke-width="1.4" stroke-linecap="round" />
        <rect x="495.44" y="484.7" width="8.49" height="6.36" rx="1.4" fill="#c65b3d" opacity="0.82" />
      </g><g>
        <line x1="514.32" y1="448.36" x2="514.32" y2="497.9" stroke="#0f766e" stroke-width="1.4" stroke-linecap="round" />
        <rect x="510.07" y="456.65" width="8.49" height="26.12" rx="1.4" fill="#0f766e" opacity="0.9" />
      </g><g>
        <line x1="528.95" y1="447.32" x2="528.95" y2="487.74" stroke="#0f766e" stroke-width="1.4" stroke-linecap="round" />
        <rect x="524.71" y="460.38" width="8.49" height="8.29" rx="1.4" fill="#0f766e" opacity="0.9" />
      </g><g>
        <line x1="543.58" y1="410.63" x2="543.58" y2="470.74" stroke="#0f766e" stroke-width="1.4" stroke-linecap="round" />
        <rect x="539.34" y="420.17" width="8.49" height="50.58" rx="1.4" fill="#0f766e" opacity="0.9" />
      </g><g>
        <line x1="558.22" y1="417.26" x2="558.22" y2="472.61" stroke="#0f766e" stroke-width="1.4" stroke-linecap="round" />
        <rect x="553.97" y="423.48" width="8.49" height="6.01" rx="1.4" fill="#0f766e" opacity="0.9" />
      </g><g>
        <line x1="572.85" y1="343.47" x2="572.85" y2="406.9" stroke="#0f766e" stroke-width="1.4" stroke-linecap="round" />
        <rect x="568.61" y="350.1" width="8.49" height="43.12" rx="1.4" fill="#0f766e" opacity="0.9" />
      </g><g>
        <line x1="587.48" y1="345.54" x2="587.48" y2="385.34" stroke="#c65b3d" stroke-width="1.4" stroke-linecap="round" />
        <rect x="583.24" y="350.1" width="8.49" height="14.1" rx="1.4" fill="#c65b3d" opacity="0.82" />
      </g><g>
        <line x1="602.12" y1="342.64" x2="602.12" y2="374.98" stroke="#c65b3d" stroke-width="1.4" stroke-linecap="round" />
        <rect x="597.87" y="368.97" width="8.49" height="3.52" rx="1.4" fill="#c65b3d" opacity="0.82" />
      </g><g>
        <line x1="616.75" y1="331.66" x2="616.75" y2="371.66" stroke="#0f766e" stroke-width="1.4" stroke-linecap="round" />
        <rect x="612.51" y="339.74" width="8.49" height="17.41" rx="1.4" fill="#0f766e" opacity="0.9" />
      </g><g>
        <line x1="631.38" y1="303.26" x2="631.38" y2="348.03" stroke="#0f766e" stroke-width="1.4" stroke-linecap="round" />
        <rect x="627.14" y="334.76" width="8.49" height="1.5" rx="1.4" fill="#0f766e" opacity="0.9" />
      </g><g>
        <line x1="646.02" y1="303.05" x2="646.02" y2="354.46" stroke="#0f766e" stroke-width="1.4" stroke-linecap="round" />
        <rect x="641.77" y="309.06" width="8.49" height="18.45" rx="1.4" fill="#0f766e" opacity="0.9" />
      </g><g>
        <line x1="660.65" y1="266.36" x2="660.65" y2="304.92" stroke="#0f766e" stroke-width="1.4" stroke-linecap="round" />
        <rect x="656.41" y="273.41" width="8.49" height="27.36" rx="1.4" fill="#0f766e" opacity="0.9" />
      </g><g>
        <line x1="675.28" y1="232.78" x2="675.28" y2="285.02" stroke="#c65b3d" stroke-width="1.4" stroke-linecap="round" />
        <rect x="671.04" y="248.58" width="8.49" height="31.04" rx="1.4" fill="#c65b3d" opacity="0.82" />
      </g><g>
        <line x1="689.92" y1="229.88" x2="689.92" y2="264.7" stroke="#0f766e" stroke-width="1.4" stroke-linecap="round" />
        <rect x="685.67" y="239.41" width="8.49" height="14.1" rx="1.4" fill="#0f766e" opacity="0.9" />
      </g><g>
        <line x1="704.55" y1="192.15" x2="704.55" y2="262.01" stroke="#c65b3d" stroke-width="1.4" stroke-linecap="round" />
        <rect x="700.31" y="226.98" width="8.49" height="25.29" rx="1.4" fill="#c65b3d" opacity="0.82" />
      </g><g>
        <line x1="719.18" y1="219.1" x2="719.18" y2="272.99" stroke="#c65b3d" stroke-width="1.4" stroke-linecap="round" />
        <rect x="714.94" y="223.25" width="8.49" height="42.7" rx="1.4" fill="#c65b3d" opacity="0.82" />
      </g><g>
        <line x1="733.82" y1="202.72" x2="733.82" y2="240.66" stroke="#0f766e" stroke-width="1.4" stroke-linecap="round" />
        <rect x="729.57" y="217.44" width="8.49" height="21.56" rx="1.4" fill="#0f766e" opacity="0.9" />
      </g><g>
        <line x1="748.45" y1="190.91" x2="748.45" y2="224.49" stroke="#0f766e" stroke-width="1.4" stroke-linecap="round" />
        <rect x="744.21" y="195.05" width="8.49" height="16.17" rx="1.4" fill="#0f766e" opacity="0.9" />
      </g><g>
        <line x1="763.08" y1="177.64" x2="763.08" y2="216.82" stroke="#c65b3d" stroke-width="1.4" stroke-linecap="round" />
        <rect x="758.84" y="182.62" width="8.49" height="19.9" rx="1.4" fill="#c65b3d" opacity="0.82" />
      </g><g>
        <line x1="777.72" y1="141.78" x2="777.72" y2="197.54" stroke="#0f766e" stroke-width="1.4" stroke-linecap="round" />
        <rect x="773.47" y="183.45" width="8.49" height="14.1" rx="1.4" fill="#0f766e" opacity="0.9" />
      </g><g>
        <line x1="792.35" y1="165.21" x2="792.35" y2="214.54" stroke="#c65b3d" stroke-width="1.4" stroke-linecap="round" />
        <rect x="788.11" y="168.94" width="8.49" height="27.36" rx="1.4" fill="#c65b3d" opacity="0.82" />
      </g><g>
        <line x1="806.98" y1="177.44" x2="806.98" y2="207.49" stroke="#0f766e" stroke-width="1.4" stroke-linecap="round" />
        <rect x="802.74" y="196.3" width="8.49" height="4.97" rx="1.4" fill="#0f766e" opacity="0.9" />
      </g><g>
        <line x1="821.62" y1="201.69" x2="821.62" y2="239.41" stroke="#c65b3d" stroke-width="1.4" stroke-linecap="round" />
        <rect x="817.37" y="213.3" width="8.49" height="20.31" rx="1.4" fill="#c65b3d" opacity="0.82" />
      </g><g>
        <line x1="836.25" y1="171.42" x2="836.25" y2="239.21" stroke="#0f766e" stroke-width="1.4" stroke-linecap="round" />
        <rect x="832.01" y="176.4" width="8.49" height="50.99" rx="1.4" fill="#0f766e" opacity="0.9" />
      </g><g>
        <line x1="850.88" y1="149.87" x2="850.88" y2="193.81" stroke="#c65b3d" stroke-width="1.4" stroke-linecap="round" />
        <rect x="846.64" y="152.56" width="8.49" height="8.5" rx="1.4" fill="#c65b3d" opacity="0.82" />
      </g><g>
        <line x1="865.52" y1="110.9" x2="865.52" y2="153.18" stroke="#0f766e" stroke-width="1.4" stroke-linecap="round" />
        <rect x="861.27" y="112.56" width="8.49" height="31.51" rx="1.4" fill="#0f766e" opacity="0.9" />
      </g><g>
        <line x1="880.15" y1="74.21" x2="880.15" y2="117.32" stroke="#c65b3d" stroke-width="1.4" stroke-linecap="round" />
        <rect x="875.91" y="96.59" width="8.49" height="17.62" rx="1.4" fill="#c65b3d" opacity="0.82" />
      </g><g>
        <line x1="894.78" y1="126.44" x2="894.78" y2="178.89" stroke="#c65b3d" stroke-width="1.4" stroke-linecap="round" />
        <rect x="890.54" y="134.53" width="8.49" height="44.36" rx="1.4" fill="#c65b3d" opacity="0.82" />
      </g><g>
        <line x1="909.42" y1="132.04" x2="909.42" y2="174.33" stroke="#0f766e" stroke-width="1.4" stroke-linecap="round" />
        <rect x="905.17" y="139.5" width="8.49" height="33.17" rx="1.4" fill="#0f766e" opacity="0.9" />
      </g><g>
        <line x1="924.05" y1="113.8" x2="924.05" y2="133.7" stroke="#0f766e" stroke-width="1.4" stroke-linecap="round" />
        <rect x="919.81" y="122.09" width="8.49" height="1.5" rx="1.4" fill="#0f766e" opacity="0.9" />
      </g><g>
        <line x1="938.68" y1="106.34" x2="938.68" y2="156.29" stroke="#c65b3d" stroke-width="1.4" stroke-linecap="round" />
        <rect x="934.44" y="120.85" width="8.49" height="8.29" rx="1.4" fill="#c65b3d" opacity="0.82" />
      </g>
  <polyline fill="none" stroke="#113b52" stroke-width="2.2" stroke-linejoin="round" stroke-linecap="round" points="353.35,416.23 367.98,423.81 382.62,432.4 397.25,439.15 411.88,444.92 426.52,448.83 441.15,450.87 455.78,451.38 470.42,452.28 485.05,455.51 499.68,459.88 514.32,463.74 528.95,467.32 543.58,466.72 558.22,468.22 572.85,467.03 587.48,464.8 602.12,459.99 616.75,451.96 631.38,444.17 646.02,433.14 660.65,420.35 675.28,407.71 689.92,394.96 704.55,382.88 719.18,372.57 733.82,360.39 748.45,347.72 763.08,336.26 777.72,321.56 792.35,306.82 806.98,293.81 821.62,282.47 836.25,270.28 850.88,257.16 865.52,245.28 880.15,232.78 894.78,223.1 909.42,213.09 924.05,202.45 938.68,193.46" />
  <polyline fill="none" stroke="#7a8f27" stroke-width="2.2" stroke-linejoin="round" stroke-linecap="round" points="792.35,385.86 806.98,382.23 821.62,379.69 836.25,376.03 850.88,371.68 865.52,366.06 880.15,359.93 894.78,354.75 909.42,349.26 924.05,343.45 938.68,337.96" />

  <g>
    <text x="75.32" y="576" text-anchor="middle" font-size="12" font-family="Avenir Next, Segoe UI, sans-serif" fill="#6d7887">Apr 16</text><text x="353.35" y="576" text-anchor="middle" font-size="12" font-family="Avenir Next, Segoe UI, sans-serif" fill="#6d7887">May 13</text><text x="646.02" y="576" text-anchor="middle" font-size="12" font-family="Avenir Next, Segoe UI, sans-serif" fill="#6d7887">Jun 11</text><text x="938.68" y="576" text-anchor="middle" font-size="12" font-family="Avenir Next, Segoe UI, sans-serif" fill="#6d7887">Jul 13</text>
  </g>

  <g transform="translate(68, 586)">
    <rect x="0" y="-14" width="12" height="3" rx="2" fill="#113b52" />
    <text x="18" y="-8" font-size="12" font-family="Avenir Next, Segoe UI, sans-serif" fill="#506274">SMA20</text>
    <rect x="88" y="-14" width="12" height="3" rx="2" fill="#7a8f27" />
    <text x="106" y="-8" font-size="12" font-family="Avenir Next, Segoe UI, sans-serif" fill="#506274">SMA50</text>
    <text x="878" y="-8" text-anchor="end" font-size="12" font-family="Avenir Next, Segoe UI, sans-serif" fill="#506274">Last 60 sessions</text>
  </g>
</svg>