<?xml version="1.0" encoding="UTF-8"?>
<svg xmlns="http://www.w3.org/2000/svg" width="980" height="620" viewBox="0 0 980 620" role="img" aria-label="SNPS chart snapshot">
  <defs>
    <linearGradient id="bg" x1="0%" x2="100%" y1="0%" y2="100%">
      <stop offset="0%" stop-color="#f8fbfe" />
      <stop offset="100%" stop-color="#eef4f8" />
    </linearGradient>
  </defs>
  <rect width="980" height="620" rx="24" fill="url(#bg)" />
  <rect x="18" y="18" width="944" height="584" rx="20" fill="#ffffff" stroke="#d7e0e8" />
  <text x="68" y="44" font-size="28" font-weight="700" font-family="Avenir Next, Segoe UI, sans-serif" fill="#17212b">SNPS Candlestick Snapshot</text>
  <text x="68" y="66" font-size="15" font-family="Avenir Next, Segoe UI, sans-serif" fill="#5e6a78">Needs More Confirmation | No major pattern | Close 442.27</text>
  <text x="946" y="44" text-anchor="end" font-size="14" font-family="Avenir Next, Segoe UI, sans-serif" fill="#4d6478">Trend: Downtrend</text>
  <text x="946" y="64" text-anchor="end" font-size="14" font-family="Avenir Next, Segoe UI, sans-serif" fill="#4d6478">Scores B 3 / P 18 / RS 14</text>

  <g>
    <g>
        <line x1="68" y1="74" x2="946" y2="74" stroke="#e6edf4" stroke-width="1" />
        <text x="56" y="78" text-anchor="end" font-size="12" font-family="Avenir Next, Segoe UI, sans-serif" fill="#6d7887">539.48</text>
      </g><g>
        <line x1="68" y1="193.5" x2="946" y2="193.5" stroke="#e6edf4" stroke-width="1" />
        <text x="56" y="197.5" text-anchor="end" font-size="12" font-family="Avenir Next, Segoe UI, sans-serif" fill="#6d7887">501.63</text>
      </g><g>
        <line x1="68" y1="313" x2="946" y2="313" stroke="#e6edf4" stroke-width="1" />
        <text x="56" y="317" text-anchor="end" font-size="12" font-family="Avenir Next, Segoe UI, sans-serif" fill="#6d7887">463.77</text>
      </g><g>
        <line x1="68" y1="432.5" x2="946" y2="432.5" stroke="#e6edf4" stroke-width="1" />
        <text x="56" y="436.5" text-anchor="end" font-size="12" font-family="Avenir Next, Segoe UI, sans-serif" fill="#6d7887">425.92</text>
      </g><g>
        <line x1="68" y1="552" x2="946" y2="552" stroke="#e6edf4" stroke-width="1" />
        <text x="56" y="556" text-anchor="end" font-size="12" font-family="Avenir Next, Segoe UI, sans-serif" fill="#6d7887">388.07</text>
      </g>
  </g>

  <line x1="68" y1="233.52" x2="946" y2="233.52" stroke="#d9a441" stroke-width="1.6" stroke-dasharray="8 6" />
         <text x="946" y="225.52" text-anchor="end" font-size="12" font-family="Avenir Next, Segoe UI, sans-serif" fill="#a87416">Resistance 488.95</text>
  <line x1="68" y1="406.21" x2="946" y2="406.21" stroke="#0f766e" stroke-width="1.6" stroke-dasharray="8 6" opacity="0.8" />
         <text x="946" y="398.21" text-anchor="end" font-size="12" font-family="Avenir Next, Segoe UI, sans-serif" fill="#0f766e">Support 434.25</text>

  <g>
        <line x1="75.32" y1="479.61" x2="75.32" y2="532.49" stroke="#c65b3d" stroke-width="1.4" stroke-linecap="round" />
        <rect x="71.07" y="482.96" width="8.49" height="15.85" rx="1.4" fill="#c65b3d" opacity="0.82" />
      </g><g>
        <line x1="89.95" y1="501.96" x2="89.95" y2="548.59" stroke="#c65b3d" stroke-width="1.4" stroke-linecap="round" />
        <rect x="85.71" y="509.25" width="8.49" height="29.58" rx="1.4" fill="#c65b3d" opacity="0.82" />
      </g><g>
        <line x1="104.58" y1="456.19" x2="104.58" y2="552" stroke="#0f766e" stroke-width="1.4" stroke-linecap="round" />
        <rect x="100.34" y="458.24" width="8.49" height="79.78" rx="1.4" fill="#0f766e" opacity="0.9" />
      </g><g>
        <line x1="119.22" y1="419.18" x2="119.22" y2="456.88" stroke="#c65b3d" stroke-width="1.4" stroke-linecap="round" />
        <rect x="114.97" y="435.95" width="8.49" height="19.04" rx="1.4" fill="#c65b3d" opacity="0.82" />
      </g><g>
        <line x1="133.85" y1="388.44" x2="133.85" y2="446.72" stroke="#0f766e" stroke-width="1.4" stroke-linecap="round" />
        <rect x="129.61" y="392.95" width="8.49" height="44.8" rx="1.4" fill="#0f766e" opacity="0.9" />
      </g><g>
        <line x1="148.48" y1="357.69" x2="148.48" y2="399.17" stroke="#c65b3d" stroke-width="1.4" stroke-linecap="round" />
        <rect x="144.24" y="367.95" width="8.49" height="16.48" rx="1.4" fill="#c65b3d" opacity="0.82" />
      </g><g>
        <line x1="163.12" y1="328.03" x2="163.12" y2="365.39" stroke="#c65b3d" stroke-width="1.4" stroke-linecap="round" />
        <rect x="158.87" y="348.44" width="8.49" height="9.38" rx="1.4" fill="#c65b3d" opacity="0.82" />
      </g><g>
        <line x1="177.75" y1="314.94" x2="177.75" y2="364.6" stroke="#0f766e" stroke-width="1.4" stroke-linecap="round" />
        <rect x="173.51" y="321.92" width="8.49" height="40.63" rx="1.4" fill="#0f766e" opacity="0.9" />
      </g><g>
        <line x1="192.38" y1="260.99" x2="192.38" y2="318.6" stroke="#0f766e" stroke-width="1.4" stroke-linecap="round" />
        <rect x="188.14" y="300.99" width="8.49" height="10.45" rx="1.4" fill="#0f766e" opacity="0.9" />
      </g><g>
        <line x1="207.02" y1="265.82" x2="207.02" y2="290.51" stroke="#0f766e" stroke-width="1.4" stroke-linecap="round" />
        <rect x="202.77" y="270.43" width="8.49" height="20.08" rx="1.4" fill="#0f766e" opacity="0.9" />
      </g><g>
        <line x1="221.65" y1="301.84" x2="221.65" y2="356.08" stroke="#c65b3d" stroke-width="1.4" stroke-linecap="round" />
        <rect x="217.41" y="305.63" width="8.49" height="29.23" rx="1.4" fill="#c65b3d" opacity="0.82" />
      </g><g>
        <line x1="236.28" y1="191.44" x2="236.28" y2="295.9" stroke="#0f766e" stroke-width="1.4" stroke-linecap="round" />
        <rect x="232.04" y="196.05" width="8.49" height="99.26" rx="1.4" fill="#0f766e" opacity="0.9" />
      </g><g>
        <line x1="250.92" y1="195.51" x2="250.92" y2="236.52" stroke="#0f766e" stroke-width="1.4" stroke-linecap="round" />
        <rect x="246.67" y="203.25" width="8.49" height="5.07" rx="1.4" fill="#0f766e" opacity="0.9" />
      </g><g>
        <line x1="265.55" y1="204.95" x2="265.55" y2="264.93" stroke="#c65b3d" stroke-width="1.4" stroke-linecap="round" />
        <rect x="261.31" y="208.11" width="8.49" height="41.39" rx="1.4" fill="#c65b3d" opacity="0.82" />
      </g><g>
        <line x1="280.18" y1="256.66" x2="280.18" y2="287.97" stroke="#0f766e" stroke-width="1.4" stroke-linecap="round" />
        <rect x="275.94" y="257.93" width="8.49" height="3.85" rx="1.4" fill="#0f766e" opacity="0.9" />
      </g><g>
        <line x1="294.82" y1="250.16" x2="294.82" y2="288.23" stroke="#0f766e" stroke-width="1.4" stroke-linecap="round" />
        <rect x="290.57" y="253.57" width="8.49" height="5.05" rx="1.4" fill="#0f766e" opacity="0.9" />
      </g><g>
        <line x1="309.45" y1="205.14" x2="309.45" y2="244.6" stroke="#c65b3d" stroke-width="1.4" stroke-linecap="round" />
        <rect x="305.21" y="226.55" width="8.49" height="6.76" rx="1.4" fill="#c65b3d" opacity="0.82" />
      </g><g>
        <line x1="324.08" y1="197.85" x2="324.08" y2="235.44" stroke="#0f766e" stroke-width="1.4" stroke-linecap="round" />
        <rect x="319.84" y="206.53" width="8.49" height="11.55" rx="1.4" fill="#0f766e" opacity="0.9" />
      </g><g>
        <line x1="338.72" y1="159.05" x2="338.72" y2="198.61" stroke="#0f766e" stroke-width="1.4" stroke-linecap="round" />
        <rect x="334.47" y="190.71" width="8.49" height="2.53" rx="1.4" fill="#0f766e" opacity="0.9" />
      </g><g>
        <line x1="353.35" y1="175.48" x2="353.35" y2="206.5" stroke="#c65b3d" stroke-width="1.4" stroke-linecap="round" />
        <rect x="349.11" y="184.12" width="8.49" height="1.5" rx="1.4" fill="#c65b3d" opacity="0.82" />
      </g><g>
        <line x1="367.98" y1="144.97" x2="367.98" y2="187.62" stroke="#c65b3d" stroke-width="1.4" stroke-linecap="round" />
        <rect x="363.74" y="178.75" width="8.49" height="3.5" rx="1.4" fill="#c65b3d" opacity="0.82" />
      </g><g>
        <line x1="382.62" y1="138.31" x2="382.62" y2="196.78" stroke="#0f766e" stroke-width="1.4" stroke-linecap="round" />
        <rect x="378.37" y="146.61" width="8.49" height="38.23" rx="1.4" fill="#0f766e" opacity="0.9" />
      </g><g>
        <line x1="397.25" y1="136.41" x2="397.25" y2="160.75" stroke="#0f766e" stroke-width="1.4" stroke-linecap="round" />
        <rect x="393.01" y="147.53" width="8.49" height="7.26" rx="1.4" fill="#0f766e" opacity="0.9" />
      </g><g>
        <line x1="411.88" y1="144.43" x2="411.88" y2="172.88" stroke="#0f766e" stroke-width="1.4" stroke-linecap="round" />
        <rect x="407.64" y="156.93" width="8.49" height="6.03" rx="1.4" fill="#0f766e" opacity="0.9" />
      </g><g>
        <line x1="426.52" y1="152.1" x2="426.52" y2="191.47" stroke="#c65b3d" stroke-width="1.4" stroke-linecap="round" />
        <rect x="422.27" y="152.58" width="8.49" height="16.76" rx="1.4" fill="#c65b3d" opacity="0.82" />
      </g><g>
        <line x1="441.15" y1="155.55" x2="441.15" y2="183.99" stroke="#0f766e" stroke-width="1.4" stroke-linecap="round" />
        <rect x="436.91" y="167" width="8.49" height="4.51" rx="1.4" fill="#0f766e" opacity="0.9" />
      </g><g>
        <line x1="455.78" y1="170.23" x2="455.78" y2="226.89" stroke="#0f766e" stroke-width="1.4" stroke-linecap="round" />
        <rect x="451.54" y="191" width="8.49" height="1.5" rx="1.4" fill="#0f766e" opacity="0.9" />
      </g><g>
        <line x1="470.42" y1="192.86" x2="470.42" y2="233.08" stroke="#c65b3d" stroke-width="1.4" stroke-linecap="round" />
        <rect x="466.17" y="201.24" width="8.49" height="2.35" rx="1.4" fill="#c65b3d" opacity="0.82" />
      </g><g>
        <line x1="485.05" y1="195.48" x2="485.05" y2="228.38" stroke="#c65b3d" stroke-width="1.4" stroke-linecap="round" />
        <rect x="480.81" y="216.57" width="8.49" height="1.5" rx="1.4" fill="#c65b3d" opacity="0.82" />
      </g><g>
        <line x1="499.68" y1="201.08" x2="499.68" y2="281.45" stroke="#0f766e" stroke-width="1.4" stroke-linecap="round" />
        <rect x="495.44" y="202.02" width="8.49" height="61.85" rx="1.4" fill="#0f766e" opacity="0.9" />
      </g><g>
        <line x1="514.32" y1="183.71" x2="514.32" y2="234.36" stroke="#0f766e" stroke-width="1.4" stroke-linecap="round" />
        <rect x="510.07" y="186.07" width="8.49" height="40.16" rx="1.4" fill="#0f766e" opacity="0.9" />
      </g><g>
        <line x1="528.95" y1="90.95" x2="528.95" y2="171.77" stroke="#0f766e" stroke-width="1.4" stroke-linecap="round" />
        <rect x="524.71" y="120.53" width="8.49" height="46.53" rx="1.4" fill="#0f766e" opacity="0.9" />
      </g><g>
        <line x1="543.58" y1="74" x2="543.58" y2="122.3" stroke="#0f766e" stroke-width="1.4" stroke-linecap="round" />
        <rect x="539.34" y="89.53" width="8.49" height="14.49" rx="1.4" fill="#0f766e" opacity="0.9" />
      </g><g>
        <line x1="558.22" y1="89.34" x2="558.22" y2="125.55" stroke="#c65b3d" stroke-width="1.4" stroke-linecap="round" />
        <rect x="553.97" y="89.53" width="8.49" height="27.28" rx="1.4" fill="#c65b3d" opacity="0.82" />
      </g><g>
        <line x1="572.85" y1="116.27" x2="572.85" y2="288.01" stroke="#c65b3d" stroke-width="1.4" stroke-linecap="round" />
        <rect x="568.61" y="167.07" width="8.49" height="92.69" rx="1.4" fill="#c65b3d" opacity="0.82" />
      </g><g>
        <line x1="587.48" y1="247.57" x2="587.48" y2="295.34" stroke="#c65b3d" stroke-width="1.4" stroke-linecap="round" />
        <rect x="583.24" y="259.68" width="8.49" height="15.93" rx="1.4" fill="#c65b3d" opacity="0.82" />
      </g><g>
        <line x1="602.12" y1="216.79" x2="602.12" y2="291.01" stroke="#0f766e" stroke-width="1.4" stroke-linecap="round" />
        <rect x="597.87" y="222.98" width="8.49" height="25.95" rx="1.4" fill="#0f766e" opacity="0.9" />
      </g><g>
        <line x1="616.75" y1="171.11" x2="616.75" y2="244" stroke="#0f766e" stroke-width="1.4" stroke-linecap="round" />
        <rect x="612.51" y="172.28" width="8.49" height="71.73" rx="1.4" fill="#0f766e" opacity="0.9" />
      </g><g>
        <line x1="631.38" y1="185.63" x2="631.38" y2="226.42" stroke="#c65b3d" stroke-width="1.4" stroke-linecap="round" />
        <rect x="627.14" y="189.86" width="8.49" height="15.03" rx="1.4" fill="#c65b3d" opacity="0.82" />
      </g><g>
        <line x1="646.02" y1="197.53" x2="646.02" y2="245.99" stroke="#c65b3d" stroke-width="1.4" stroke-linecap="round" />
        <rect x="641.77" y="197.53" width="8.49" height="18.53" rx="1.4" fill="#c65b3d" opacity="0.82" />
      </g><g>
        <line x1="660.65" y1="233.52" x2="660.65" y2="329.56" stroke="#c65b3d" stroke-width="1.4" stroke-linecap="round" />
        <rect x="656.41" y="236.59" width="8.49" height="73.02" rx="1.4" fill="#c65b3d" opacity="0.82" />
      </g><g>
        <line x1="675.28" y1="266.48" x2="675.28" y2="314.25" stroke="#0f766e" stroke-width="1.4" stroke-linecap="round" />
        <rect x="671.04" y="282.36" width="8.49" height="19.57" rx="1.4" fill="#0f766e" opacity="0.9" />
      </g><g>
        <line x1="689.92" y1="237.94" x2="689.92" y2="353.33" stroke="#c65b3d" stroke-width="1.4" stroke-linecap="round" />
        <rect x="685.67" y="275.01" width="8.49" height="33.27" rx="1.4" fill="#c65b3d" opacity="0.82" />
      </g><g>
        <line x1="704.55" y1="285.65" x2="704.55" y2="346.13" stroke="#0f766e" stroke-width="1.4" stroke-linecap="round" />
        <rect x="700.31" y="323.21" width="8.49" height="17.87" rx="1.4" fill="#0f766e" opacity="0.9" />
      </g><g>
        <line x1="719.18" y1="311.11" x2="719.18" y2="372.27" stroke="#c65b3d" stroke-width="1.4" stroke-linecap="round" />
        <rect x="714.94" y="332.01" width="8.49" height="4.62" rx="1.4" fill="#c65b3d" opacity="0.82" />
      </g><g>
        <line x1="733.82" y1="321.48" x2="733.82" y2="372.24" stroke="#c65b3d" stroke-width="1.4" stroke-linecap="round" />
        <rect x="729.57" y="334.12" width="8.49" height="10.09" rx="1.4" fill="#c65b3d" opacity="0.82" />
      </g><g>
        <line x1="748.45" y1="313.87" x2="748.45" y2="346.95" stroke="#c65b3d" stroke-width="1.4" stroke-linecap="round" />
        <rect x="744.21" y="317.66" width="8.49" height="25" rx="1.4" fill="#c65b3d" opacity="0.82" />
      </g><g>
        <line x1="763.08" y1="339.12" x2="763.08" y2="372.84" stroke="#c65b3d" stroke-width="1.4" stroke-linecap="round" />
        <rect x="758.84" y="350.17" width="8.49" height="11.43" rx="1.4" fill="#c65b3d" opacity="0.82" />
      </g><g>
        <line x1="777.72" y1="266.47" x2="777.72" y2="368.55" stroke="#0f766e" stroke-width="1.4" stroke-linecap="round" />
        <rect x="773.47" y="319.42" width="8.49" height="42.27" rx="1.4" fill="#0f766e" opacity="0.9" />
      </g><g>
        <line x1="792.35" y1="305.79" x2="792.35" y2="349.15" stroke="#c65b3d" stroke-width="1.4" stroke-linecap="round" />
        <rect x="788.11" y="318.64" width="8.49" height="20.46" rx="1.4" fill="#c65b3d" opacity="0.82" />
      </g><g>
        <line x1="806.98" y1="295.24" x2="806.98" y2="347.65" stroke="#0f766e" stroke-width="1.4" stroke-linecap="round" />
        <rect x="802.74" y="310.46" width="8.49" height="28.57" rx="1.4" fill="#0f766e" opacity="0.9" />
      </g><g>
        <line x1="821.62" y1="262.41" x2="821.62" y2="320.25" stroke="#c65b3d" stroke-width="1.4" stroke-linecap="round" />
        <rect x="817.37" y="309.13" width="8.49" height="11.05" rx="1.4" fill="#c65b3d" opacity="0.82" />
      </g><g>
        <line x1="836.25" y1="283.34" x2="836.25" y2="330.82" stroke="#0f766e" stroke-width="1.4" stroke-linecap="round" />
        <rect x="832.01" y="312.51" width="8.49" height="11.9" rx="1.4" fill="#0f766e" opacity="0.9" />
      </g><g>
        <line x1="850.88" y1="307.4" x2="850.88" y2="358.6" stroke="#c65b3d" stroke-width="1.4" stroke-linecap="round" />
        <rect x="846.64" y="315" width="8.49" height="25.63" rx="1.4" fill="#c65b3d" opacity="0.82" />
      </g><g>
        <line x1="865.52" y1="331.14" x2="865.52" y2="392.64" stroke="#0f766e" stroke-width="1.4" stroke-linecap="round" />
        <rect x="861.27" y="342.79" width="8.49" height="16.38" rx="1.4" fill="#0f766e" opacity="0.9" />
      </g><g>
        <line x1="880.15" y1="323.91" x2="880.15" y2="392.7" stroke="#c65b3d" stroke-width="1.4" stroke-linecap="round" />
        <rect x="875.91" y="331.45" width="8.49" height="33.69" rx="1.4" fill="#c65b3d" opacity="0.82" />
      </g><g>
        <line x1="894.78" y1="357.85" x2="894.78" y2="383.95" stroke="#0f766e" stroke-width="1.4" stroke-linecap="round" />
        <rect x="890.54" y="368.89" width="8.49" height="12.88" rx="1.4" fill="#0f766e" opacity="0.9" />
      </g><g>
        <line x1="909.42" y1="310.84" x2="909.42" y2="345.72" stroke="#0f766e" stroke-width="1.4" stroke-linecap="round" />
        <rect x="905.17" y="342.19" width="8.49" height="1.67" rx="1.4" fill="#0f766e" opacity="0.9" />
      </g><g>
        <line x1="924.05" y1="345.5" x2="924.05" y2="406.23" stroke="#c65b3d" stroke-width="1.4" stroke-linecap="round" />
        <rect x="919.81" y="352.89" width="8.49" height="44.13" rx="1.4" fill="#c65b3d" opacity="0.82" />
      </g><g>
        <line x1="938.68" y1="377.4" x2="938.68" y2="411.32" stroke="#0f766e" stroke-width="1.4" stroke-linecap="round" />
        <rect x="934.44" y="380.89" width="8.49" height="22.19" rx="1.4" fill="#0f766e" opacity="0.9" />
      </g>
  <polyline fill="none" stroke="#113b52" stroke-width="2.2" stroke-linejoin="round" stroke-linecap="round" points="353.35,314.49 367.98,298.66 382.62,279.05 397.25,263.51 411.88,248.61 426.52,237.43 441.15,226.56 455.78,218.22 470.42,212.3 485.05,208.15 499.68,204.73 514.32,197.29 528.95,193.52 543.58,187.83 558.22,181.2 572.85,181.29 587.48,182.39 602.12,181.87 616.75,180.16 631.38,180.87 646.02,182.44 660.65,188.81 675.28,195.59 689.92,203.63 704.55,211.95 719.18,220.31 733.82,229.17 748.45,236.75 763.08,244.65 777.72,249.73 792.35,256.58 806.98,262.8 821.62,272.78 836.25,283.93 850.88,295.12 865.52,299.27 880.15,303.75 894.78,311.05 909.42,319.54 924.05,329.15 938.68,337.39" />
  <polyline fill="none" stroke="#7a8f27" stroke-width="2.2" stroke-linejoin="round" stroke-linecap="round" points="792.35,264.11 806.98,260.35 821.62,255.97 836.25,253.06 850.88,250.77 865.52,249.77 880.15,249.38 894.78,249.6 909.42,250.01 924.05,251.93 938.68,254.14" />

  <g>
    <text x="75.32" y="576" text-anchor="middle" font-size="12" font-family="Avenir Next, Segoe UI, sans-serif" fill="#6d7887">Apr 9</text><text x="353.35" y="576" text-anchor="middle" font-size="12" font-family="Avenir Next, Segoe UI, sans-serif" fill="#6d7887">May 6</text><text x="646.02" y="576" text-anchor="middle" font-size="12" font-family="Avenir Next, Segoe UI, sans-serif" fill="#6d7887">Jun 4</text><text x="938.68" y="576" text-anchor="middle" font-size="12" font-family="Avenir Next, Segoe UI, sans-serif" fill="#6d7887">Jul 6</text>
  </g>

  <g transform="translate(68, 586)">
    <rect x="0" y="-14" width="12" height="3" rx="2" fill="#113b52" />
    <text x="18" y="-8" font-size="12" font-family="Avenir Next, Segoe UI, sans-serif" fill="#506274">SMA20</text>
    <rect x="88" y="-14" width="12" height="3" rx="2" fill="#7a8f27" />
    <text x="106" y="-8" font-size="12" font-family="Avenir Next, Segoe UI, sans-serif" fill="#506274">SMA50</text>
    <text x="878" y="-8" text-anchor="end" font-size="12" font-family="Avenir Next, Segoe UI, sans-serif" fill="#506274">Last 60 sessions</text>
  </g>
</svg>