<?xml version="1.0" encoding="UTF-8"?>
<svg xmlns="http://www.w3.org/2000/svg" width="980" height="620" viewBox="0 0 980 620" role="img" aria-label="GME chart snapshot">
  <defs>
    <linearGradient id="bg" x1="0%" x2="100%" y1="0%" y2="100%">
      <stop offset="0%" stop-color="#f8fbfe" />
      <stop offset="100%" stop-color="#eef4f8" />
    </linearGradient>
  </defs>
  <rect width="980" height="620" rx="24" fill="url(#bg)" />
  <rect x="18" y="18" width="944" height="584" rx="20" fill="#ffffff" stroke="#d7e0e8" />
  <text x="68" y="44" font-size="28" font-weight="700" font-family="Avenir Next, Segoe UI, sans-serif" fill="#17212b">GME Candlestick Snapshot</text>
  <text x="68" y="66" font-size="15" font-family="Avenir Next, Segoe UI, sans-serif" fill="#5e6a78">Needs More Confirmation | No major pattern | Close 21.89</text>
  <text x="946" y="44" text-anchor="end" font-size="14" font-family="Avenir Next, Segoe UI, sans-serif" fill="#4d6478">Trend: Downtrend</text>
  <text x="946" y="64" text-anchor="end" font-size="14" font-family="Avenir Next, Segoe UI, sans-serif" fill="#4d6478">Scores B 15 / P 44 / RS 37</text>

  <g>
    <g>
        <line x1="68" y1="74" x2="946" y2="74" stroke="#e6edf4" stroke-width="1" />
        <text x="56" y="78" text-anchor="end" font-size="12" font-family="Avenir Next, Segoe UI, sans-serif" fill="#6d7887">26.88</text>
      </g><g>
        <line x1="68" y1="193.5" x2="946" y2="193.5" stroke="#e6edf4" stroke-width="1" />
        <text x="56" y="197.5" text-anchor="end" font-size="12" font-family="Avenir Next, Segoe UI, sans-serif" fill="#6d7887">25.38</text>
      </g><g>
        <line x1="68" y1="313" x2="946" y2="313" stroke="#e6edf4" stroke-width="1" />
        <text x="56" y="317" text-anchor="end" font-size="12" font-family="Avenir Next, Segoe UI, sans-serif" fill="#6d7887">23.88</text>
      </g><g>
        <line x1="68" y1="432.5" x2="946" y2="432.5" stroke="#e6edf4" stroke-width="1" />
        <text x="56" y="436.5" text-anchor="end" font-size="12" font-family="Avenir Next, Segoe UI, sans-serif" fill="#6d7887">22.38</text>
      </g><g>
        <line x1="68" y1="552" x2="946" y2="552" stroke="#e6edf4" stroke-width="1" />
        <text x="56" y="556" text-anchor="end" font-size="12" font-family="Avenir Next, Segoe UI, sans-serif" fill="#6d7887">20.89</text>
      </g>
  </g>

  <line x1="68" y1="374.59" x2="946" y2="374.59" stroke="#d9a441" stroke-width="1.6" stroke-dasharray="8 6" />
         <text x="946" y="366.59" text-anchor="end" font-size="12" font-family="Avenir Next, Segoe UI, sans-serif" fill="#a87416">Resistance 23.11</text>
  <line x1="68" y1="548.41" x2="946" y2="548.41" stroke="#0f766e" stroke-width="1.6" stroke-dasharray="8 6" opacity="0.8" />
         <text x="946" y="540.41" text-anchor="end" font-size="12" font-family="Avenir Next, Segoe UI, sans-serif" fill="#0f766e">Support 20.93</text>

  <g>
        <line x1="75.32" y1="165.29" x2="75.32" y2="247.82" stroke="#0f766e" stroke-width="1.4" stroke-linecap="round" />
        <rect x="71.07" y="171.27" width="8.49" height="75.75" rx="1.4" fill="#0f766e" opacity="0.9" />
      </g><g>
        <line x1="89.95" y1="142.68" x2="89.95" y2="245.43" stroke="#c65b3d" stroke-width="1.4" stroke-linecap="round" />
        <rect x="85.71" y="156.92" width="8.49" height="66.18" rx="1.4" fill="#c65b3d" opacity="0.82" />
      </g><g>
        <line x1="104.58" y1="203.96" x2="104.58" y2="245.43" stroke="#c65b3d" stroke-width="1.4" stroke-linecap="round" />
        <rect x="100.34" y="207.15" width="8.49" height="20.73" rx="1.4" fill="#c65b3d" opacity="0.82" />
      </g><g>
        <line x1="119.22" y1="173.67" x2="119.22" y2="229.99" stroke="#0f766e" stroke-width="1.4" stroke-linecap="round" />
        <rect x="114.97" y="191.21" width="8.49" height="32.69" rx="1.4" fill="#0f766e" opacity="0.9" />
      </g><g>
        <line x1="133.85" y1="190.41" x2="133.85" y2="239.84" stroke="#c65b3d" stroke-width="1.4" stroke-linecap="round" />
        <rect x="129.61" y="199.18" width="8.49" height="17.54" rx="1.4" fill="#c65b3d" opacity="0.82" />
      </g><g>
        <line x1="148.48" y1="220.71" x2="148.48" y2="303.63" stroke="#c65b3d" stroke-width="1.4" stroke-linecap="round" />
        <rect x="144.24" y="224.7" width="8.49" height="37.47" rx="1.4" fill="#c65b3d" opacity="0.82" />
      </g><g>
        <line x1="163.12" y1="217.53" x2="163.12" y2="286.88" stroke="#0f766e" stroke-width="1.4" stroke-linecap="round" />
        <rect x="158.87" y="227.88" width="8.49" height="47.44" rx="1.4" fill="#0f766e" opacity="0.9" />
      </g><g>
        <line x1="177.75" y1="74" x2="177.75" y2="235.86" stroke="#0f766e" stroke-width="1.4" stroke-linecap="round" />
        <rect x="173.51" y="101.91" width="8.49" height="133.95" rx="1.4" fill="#0f766e" opacity="0.9" />
      </g><g>
        <line x1="192.38" y1="132.21" x2="192.38" y2="329.94" stroke="#c65b3d" stroke-width="1.4" stroke-linecap="round" />
        <rect x="188.14" y="215.13" width="8.49" height="101.26" rx="1.4" fill="#c65b3d" opacity="0.82" />
      </g><g>
        <line x1="207.02" y1="245.43" x2="207.02" y2="395.32" stroke="#0f766e" stroke-width="1.4" stroke-linecap="round" />
        <rect x="202.77" y="285.29" width="8.49" height="81.33" rx="1.4" fill="#0f766e" opacity="0.9" />
      </g><g>
        <line x1="221.65" y1="189.01" x2="221.65" y2="306.82" stroke="#0f766e" stroke-width="1.4" stroke-linecap="round" />
        <rect x="217.41" y="210.34" width="8.49" height="69.37" rx="1.4" fill="#0f766e" opacity="0.9" />
      </g><g>
        <line x1="236.28" y1="203.96" x2="236.28" y2="320.38" stroke="#c65b3d" stroke-width="1.4" stroke-linecap="round" />
        <rect x="232.04" y="214.33" width="8.49" height="91.69" rx="1.4" fill="#c65b3d" opacity="0.82" />
      </g><g>
        <line x1="250.92" y1="270.14" x2="250.92" y2="317.98" stroke="#0f766e" stroke-width="1.4" stroke-linecap="round" />
        <rect x="246.67" y="281.31" width="8.49" height="11.16" rx="1.4" fill="#0f766e" opacity="0.9" />
      </g><g>
        <line x1="265.55" y1="274.13" x2="265.55" y2="375.39" stroke="#c65b3d" stroke-width="1.4" stroke-linecap="round" />
        <rect x="261.31" y="287.68" width="8.49" height="82.13" rx="1.4" fill="#c65b3d" opacity="0.82" />
      </g><g>
        <line x1="280.18" y1="368.22" x2="280.18" y2="437.18" stroke="#c65b3d" stroke-width="1.4" stroke-linecap="round" />
        <rect x="275.94" y="399.31" width="8.49" height="34.29" rx="1.4" fill="#c65b3d" opacity="0.82" />
      </g><g>
        <line x1="294.82" y1="425.22" x2="294.82" y2="465.09" stroke="#c65b3d" stroke-width="1.4" stroke-linecap="round" />
        <rect x="290.57" y="436.79" width="8.49" height="19.93" rx="1.4" fill="#c65b3d" opacity="0.82" />
      </g><g>
        <line x1="309.45" y1="435.19" x2="309.45" y2="494.19" stroke="#c65b3d" stroke-width="1.4" stroke-linecap="round" />
        <rect x="305.21" y="456.72" width="8.49" height="37.47" rx="1.4" fill="#c65b3d" opacity="0.82" />
      </g><g>
        <line x1="324.08" y1="462.3" x2="324.08" y2="506.15" stroke="#0f766e" stroke-width="1.4" stroke-linecap="round" />
        <rect x="319.84" y="495.79" width="8.49" height="3.99" rx="1.4" fill="#0f766e" opacity="0.9" />
      </g><g>
        <line x1="338.72" y1="455.92" x2="338.72" y2="509.33" stroke="#0f766e" stroke-width="1.4" stroke-linecap="round" />
        <rect x="334.47" y="470.27" width="8.49" height="23.12" rx="1.4" fill="#0f766e" opacity="0.9" />
      </g><g>
        <line x1="353.35" y1="447.95" x2="353.35" y2="494.99" stroke="#0f766e" stroke-width="1.4" stroke-linecap="round" />
        <rect x="349.11" y="455.12" width="8.49" height="17.54" rx="1.4" fill="#0f766e" opacity="0.9" />
      </g><g>
        <line x1="367.98" y1="404.89" x2="367.98" y2="471.07" stroke="#0f766e" stroke-width="1.4" stroke-linecap="round" />
        <rect x="363.74" y="419.24" width="8.49" height="39.87" rx="1.4" fill="#0f766e" opacity="0.9" />
      </g><g>
        <line x1="382.62" y1="413.66" x2="382.62" y2="446.35" stroke="#0f766e" stroke-width="1.4" stroke-linecap="round" />
        <rect x="378.37" y="424.03" width="8.49" height="3.99" rx="1.4" fill="#0f766e" opacity="0.9" />
      </g><g>
        <line x1="397.25" y1="416.85" x2="397.25" y2="479.44" stroke="#c65b3d" stroke-width="1.4" stroke-linecap="round" />
        <rect x="393.01" y="431.2" width="8.49" height="35.08" rx="1.4" fill="#c65b3d" opacity="0.82" />
      </g><g>
        <line x1="411.88" y1="448.75" x2="411.88" y2="475.06" stroke="#c65b3d" stroke-width="1.4" stroke-linecap="round" />
        <rect x="407.64" y="467.48" width="8.49" height="2.79" rx="1.4" fill="#c65b3d" opacity="0.82" />
      </g><g>
        <line x1="426.52" y1="472.67" x2="426.52" y2="503.76" stroke="#c65b3d" stroke-width="1.4" stroke-linecap="round" />
        <rect x="422.27" y="479.04" width="8.49" height="9.57" rx="1.4" fill="#c65b3d" opacity="0.82" />
      </g><g>
        <line x1="441.15" y1="463.89" x2="441.15" y2="491.8" stroke="#0f766e" stroke-width="1.4" stroke-linecap="round" />
        <rect x="436.91" y="488.61" width="8.49" height="2.39" rx="1.4" fill="#0f766e" opacity="0.9" />
      </g><g>
        <line x1="455.78" y1="492.6" x2="455.78" y2="531.67" stroke="#c65b3d" stroke-width="1.4" stroke-linecap="round" />
        <rect x="451.54" y="494.99" width="8.49" height="33.49" rx="1.4" fill="#c65b3d" opacity="0.82" />
      </g><g>
        <line x1="470.42" y1="498.18" x2="470.42" y2="551.6" stroke="#0f766e" stroke-width="1.4" stroke-linecap="round" />
        <rect x="466.17" y="514.13" width="8.49" height="27.11" rx="1.4" fill="#0f766e" opacity="0.9" />
      </g><g>
        <line x1="485.05" y1="523.69" x2="485.05" y2="552" stroke="#c65b3d" stroke-width="1.4" stroke-linecap="round" />
        <rect x="480.81" y="531.67" width="8.49" height="17.54" rx="1.4" fill="#c65b3d" opacity="0.82" />
      </g><g>
        <line x1="499.68" y1="329.15" x2="499.68" y2="453.53" stroke="#c65b3d" stroke-width="1.4" stroke-linecap="round" />
        <rect x="495.44" y="361.04" width="8.49" height="87.71" rx="1.4" fill="#c65b3d" opacity="0.82" />
      </g><g>
        <line x1="514.32" y1="378.18" x2="514.32" y2="447.15" stroke="#c65b3d" stroke-width="1.4" stroke-linecap="round" />
        <rect x="510.07" y="436.79" width="8.49" height="4.78" rx="1.4" fill="#c65b3d" opacity="0.82" />
      </g><g>
        <line x1="528.95" y1="435.15" x2="528.95" y2="516.52" stroke="#c65b3d" stroke-width="1.4" stroke-linecap="round" />
        <rect x="524.71" y="442.37" width="8.49" height="36.68" rx="1.4" fill="#c65b3d" opacity="0.82" />
      </g><g>
        <line x1="543.58" y1="441.57" x2="543.58" y2="491" stroke="#0f766e" stroke-width="1.4" stroke-linecap="round" />
        <rect x="539.34" y="442.37" width="8.49" height="39.07" rx="1.4" fill="#0f766e" opacity="0.9" />
      </g><g>
        <line x1="558.22" y1="426.42" x2="558.22" y2="469.48" stroke="#0f766e" stroke-width="1.4" stroke-linecap="round" />
        <rect x="553.97" y="440.77" width="8.49" height="1.5" rx="1.4" fill="#0f766e" opacity="0.9" />
      </g><g>
        <line x1="572.85" y1="411.27" x2="572.85" y2="471.47" stroke="#0f766e" stroke-width="1.4" stroke-linecap="round" />
        <rect x="568.61" y="429.61" width="8.49" height="31.89" rx="1.4" fill="#0f766e" opacity="0.9" />
      </g><g>
        <line x1="587.48" y1="428.41" x2="587.48" y2="467.88" stroke="#c65b3d" stroke-width="1.4" stroke-linecap="round" />
        <rect x="583.24" y="432" width="8.49" height="16.74" rx="1.4" fill="#c65b3d" opacity="0.82" />
      </g><g>
        <line x1="602.12" y1="450.34" x2="602.12" y2="502.96" stroke="#c65b3d" stroke-width="1.4" stroke-linecap="round" />
        <rect x="597.87" y="458.31" width="8.49" height="23.12" rx="1.4" fill="#c65b3d" opacity="0.82" />
      </g><g>
        <line x1="616.75" y1="460.62" x2="616.75" y2="491.4" stroke="#0f766e" stroke-width="1.4" stroke-linecap="round" />
        <rect x="612.51" y="483.83" width="8.49" height="3.19" rx="1.4" fill="#0f766e" opacity="0.9" />
      </g><g>
        <line x1="631.38" y1="487.02" x2="631.38" y2="532.47" stroke="#c65b3d" stroke-width="1.4" stroke-linecap="round" />
        <rect x="627.14" y="491.8" width="8.49" height="14.35" rx="1.4" fill="#c65b3d" opacity="0.82" />
      </g><g>
        <line x1="646.02" y1="468.68" x2="646.02" y2="524.49" stroke="#0f766e" stroke-width="1.4" stroke-linecap="round" />
        <rect x="641.77" y="502.17" width="8.49" height="5.58" rx="1.4" fill="#0f766e" opacity="0.9" />
      </g><g>
        <line x1="660.65" y1="489.81" x2="660.65" y2="514.92" stroke="#0f766e" stroke-width="1.4" stroke-linecap="round" />
        <rect x="656.41" y="501.37" width="8.49" height="5.58" rx="1.4" fill="#0f766e" opacity="0.9" />
      </g><g>
        <line x1="675.28" y1="494.19" x2="675.28" y2="534.46" stroke="#c65b3d" stroke-width="1.4" stroke-linecap="round" />
        <rect x="671.04" y="520.51" width="8.49" height="11.16" rx="1.4" fill="#c65b3d" opacity="0.82" />
      </g><g>
        <line x1="689.92" y1="503.76" x2="689.92" y2="548.34" stroke="#0f766e" stroke-width="1.4" stroke-linecap="round" />
        <rect x="685.67" y="536.45" width="8.49" height="6.38" rx="1.4" fill="#0f766e" opacity="0.9" />
      </g><g>
        <line x1="704.55" y1="491" x2="704.55" y2="529.46" stroke="#0f766e" stroke-width="1.4" stroke-linecap="round" />
        <rect x="700.31" y="507.75" width="8.49" height="20.73" rx="1.4" fill="#0f766e" opacity="0.9" />
      </g><g>
        <line x1="719.18" y1="510.54" x2="719.18" y2="548.41" stroke="#c65b3d" stroke-width="1.4" stroke-linecap="round" />
        <rect x="714.94" y="514.13" width="8.49" height="27.91" rx="1.4" fill="#c65b3d" opacity="0.82" />
      </g><g>
        <line x1="733.82" y1="475.46" x2="733.82" y2="547.61" stroke="#0f766e" stroke-width="1.4" stroke-linecap="round" />
        <rect x="729.57" y="482.23" width="8.49" height="65.38" rx="1.4" fill="#0f766e" opacity="0.9" />
      </g><g>
        <line x1="748.45" y1="451.54" x2="748.45" y2="472.67" stroke="#c65b3d" stroke-width="1.4" stroke-linecap="round" />
        <rect x="744.21" y="459.11" width="8.49" height="1.59" rx="1.4" fill="#c65b3d" opacity="0.82" />
      </g><g>
        <line x1="763.08" y1="448.75" x2="763.08" y2="487.02" stroke="#0f766e" stroke-width="1.4" stroke-linecap="round" />
        <rect x="758.84" y="456.72" width="8.49" height="18.34" rx="1.4" fill="#0f766e" opacity="0.9" />
      </g><g>
        <line x1="777.72" y1="403.7" x2="777.72" y2="470.27" stroke="#0f766e" stroke-width="1.4" stroke-linecap="round" />
        <rect x="773.47" y="412.07" width="8.49" height="55.02" rx="1.4" fill="#0f766e" opacity="0.9" />
      </g><g>
        <line x1="792.35" y1="374.99" x2="792.35" y2="415.26" stroke="#0f766e" stroke-width="1.4" stroke-linecap="round" />
        <rect x="788.11" y="397.72" width="8.49" height="5.58" rx="1.4" fill="#0f766e" opacity="0.9" />
      </g><g>
        <line x1="806.98" y1="392.14" x2="806.98" y2="436.79" stroke="#0f766e" stroke-width="1.4" stroke-linecap="round" />
        <rect x="802.74" y="402.5" width="8.49" height="12.76" rx="1.4" fill="#0f766e" opacity="0.9" />
      </g><g>
        <line x1="821.62" y1="392.37" x2="821.62" y2="467.08" stroke="#c65b3d" stroke-width="1.4" stroke-linecap="round" />
        <rect x="817.37" y="400.11" width="8.49" height="47.04" rx="1.4" fill="#c65b3d" opacity="0.82" />
      </g><g>
        <line x1="836.25" y1="454.33" x2="836.25" y2="492.6" stroke="#c65b3d" stroke-width="1.4" stroke-linecap="round" />
        <rect x="832.01" y="463.1" width="8.49" height="23.92" rx="1.4" fill="#c65b3d" opacity="0.82" />
      </g><g>
        <line x1="850.88" y1="464.29" x2="850.88" y2="500.57" stroke="#0f766e" stroke-width="1.4" stroke-linecap="round" />
        <rect x="846.64" y="467.08" width="8.49" height="19.93" rx="1.4" fill="#0f766e" opacity="0.9" />
      </g><g>
        <line x1="865.52" y1="461.4" x2="865.52" y2="490.21" stroke="#c65b3d" stroke-width="1.4" stroke-linecap="round" />
        <rect x="861.27" y="467.88" width="8.49" height="20.73" rx="1.4" fill="#c65b3d" opacity="0.82" />
      </g><g>
        <line x1="880.15" y1="435.19" x2="880.15" y2="485.02" stroke="#0f766e" stroke-width="1.4" stroke-linecap="round" />
        <rect x="875.91" y="460.71" width="8.49" height="22.33" rx="1.4" fill="#0f766e" opacity="0.9" />
      </g><g>
        <line x1="894.78" y1="420.84" x2="894.78" y2="459.11" stroke="#0f766e" stroke-width="1.4" stroke-linecap="round" />
        <rect x="890.54" y="428.81" width="8.49" height="30.3" rx="1.4" fill="#0f766e" opacity="0.9" />
      </g><g>
        <line x1="909.42" y1="413.66" x2="909.42" y2="450.74" stroke="#c65b3d" stroke-width="1.4" stroke-linecap="round" />
        <rect x="905.17" y="424.03" width="8.49" height="18.34" rx="1.4" fill="#c65b3d" opacity="0.82" />
      </g><g>
        <line x1="924.05" y1="422.43" x2="924.05" y2="474.26" stroke="#c65b3d" stroke-width="1.4" stroke-linecap="round" />
        <rect x="919.81" y="439.18" width="8.49" height="30.3" rx="1.4" fill="#c65b3d" opacity="0.82" />
      </g><g>
        <line x1="938.68" y1="457.52" x2="938.68" y2="489.81" stroke="#0f766e" stroke-width="1.4" stroke-linecap="round" />
        <rect x="934.44" y="471.87" width="8.49" height="2.39" rx="1.4" fill="#0f766e" opacity="0.9" />
      </g>
  <polyline fill="none" stroke="#113b52" stroke-width="2.2" stroke-linejoin="round" stroke-linecap="round" points="353.35,309.85 367.98,322.25 382.62,332.3 397.25,344.22 411.88,358.17 426.52,371.76 441.15,383.09 455.78,398.12 470.42,418.73 485.05,430.37 499.68,438.54 514.32,450.1 528.95,458.75 543.58,466.81 558.22,470.35 572.85,470.15 587.48,469.76 602.12,469.12 616.75,468.52 631.38,470.31 646.02,472.67 660.65,476.77 675.28,482.15 689.92,485.66 704.55,487.54 719.18,490.21 733.82,489.89 748.45,486.5 763.08,483.63 777.72,476.77 792.35,474.22 806.98,472.27 821.62,470.67 836.25,472.9 850.88,474.22 865.52,477.17 880.15,477.77 894.78,475.14 909.42,473.06 924.05,471.23 938.68,469.72" />
  <polyline fill="none" stroke="#7a8f27" stroke-width="2.2" stroke-linejoin="round" stroke-linecap="round" points="792.35,409.58 806.98,414.21 821.62,418.69 836.25,423.87 850.88,429.39 865.52,434.82 880.15,438.79 894.78,442.81 909.42,449.62 924.05,452.68 938.68,456.42" />

  <g>
    <text x="75.32" y="576" text-anchor="middle" font-size="12" font-family="Avenir Next, Segoe UI, sans-serif" fill="#6d7887">Apr 22</text><text x="353.35" y="576" text-anchor="middle" font-size="12" font-family="Avenir Next, Segoe UI, sans-serif" fill="#6d7887">May 19</text><text x="646.02" y="576" text-anchor="middle" font-size="12" font-family="Avenir Next, Segoe UI, sans-serif" fill="#6d7887">Jun 17</text><text x="938.68" y="576" text-anchor="middle" font-size="12" font-family="Avenir Next, Segoe UI, sans-serif" fill="#6d7887">Jul 17</text>
  </g>

  <g transform="translate(68, 586)">
    <rect x="0" y="-14" width="12" height="3" rx="2" fill="#113b52" />
    <text x="18" y="-8" font-size="12" font-family="Avenir Next, Segoe UI, sans-serif" fill="#506274">SMA20</text>
    <rect x="88" y="-14" width="12" height="3" rx="2" fill="#7a8f27" />
    <text x="106" y="-8" font-size="12" font-family="Avenir Next, Segoe UI, sans-serif" fill="#506274">SMA50</text>
    <text x="878" y="-8" text-anchor="end" font-size="12" font-family="Avenir Next, Segoe UI, sans-serif" fill="#506274">Last 60 sessions</text>
  </g>
</svg>