<?xml version="1.0" encoding="UTF-8"?>
<svg xmlns="http://www.w3.org/2000/svg" width="1600" height="1000" viewBox="0 0 1600 1000">
  <defs>
    <linearGradient id="bg" x1="0" y1="0" x2="0" y2="1">
      <stop offset="0%" stop-color="#0b1220"/>
      <stop offset="100%" stop-color="#05080f"/>
    </linearGradient>
    <filter id="glow" x="-20%" y="-20%" width="140%" height="140%">
      <feGaussianBlur stdDeviation="3.5" result="blur"/>
      <feMerge>
        <feMergeNode in="blur"/>
        <feMergeNode in="SourceGraphic"/>
      </feMerge>
    </filter>
  </defs>
  <rect x="0" y="0" width="1600" height="1000" fill="url(#bg)"/>
  <text x="800" y="64" text-anchor="middle" fill="#f5f7ff" font-family="Arial, Helvetica, sans-serif" font-size="40" font-weight="700">Sebring International Raceway</text>
  <g filter="url(#glow)">
    <path d="M 90.00 822.07 L 1229.15 822.07 L 1229.15 177.93 L 90.00 177.93 L 90.00 822.07" fill="none" stroke="#3ec8ff" stroke-opacity="0.35" stroke-width="10" stroke-linecap="round" stroke-linejoin="round"/>
    <path d="M 1338.84 809.64 L 1336.60 809.08 L 1334.47 808.29 L 1323.63 802.23 L 1320.89 800.38 L 1319.02 798.74 L 1318.08 797.34 L 1317.18 795.38 L 1316.84 793.59 L 1316.78 791.92 L 1317.04 790.53 L 1317.47 789.20 L 1319.61 785.34 L 1321.15 783.17 L 1322.18 781.90 L 1322.80 781.19 L 1323.52 780.59 L 1324.96 779.71 L 1326.67 779.03 L 1328.56 778.35 L 1331.80 777.67 L 1336.58 777.31 L 1342.93 776.87" fill="none" stroke="#3ec8ff" stroke-opacity="0.35" stroke-width="10" stroke-linecap="round" stroke-linejoin="round"/>
    <path d="M 1355.54 694.64 L 1357.43 693.90 L 1359.42 692.97 L 1361.16 692.09 L 1363.08 690.92 L 1365.45 689.19 L 1372.82 682.59 L 1385.53 671.34 L 1396.65 661.47" fill="none" stroke="#3ec8ff" stroke-opacity="0.35" stroke-width="10" stroke-linecap="round" stroke-linejoin="round"/>
    <path d="M 1342.93 776.87 L 1357.20 776.83 L 1375.57 776.79 L 1408.27 776.63 L 1441.73 776.55 L 1453.25 776.51 L 1455.53 776.33 L 1457.80 776.15 L 1460.50 775.59 L 1462.75 774.59 L 1465.10 772.91 L 1466.94 770.96 L 1468.20 768.88 L 1469.19 766.04 L 1469.69 762.84 L 1469.73 760.41 L 1469.42 755.37 L 1469.21 754.08 L 1468.97 752.58 L 1468.16 749.02 L 1465.77 737.55 L 1465.04 734.89 L 1464.47 731.16 L 1463.84 727.80 L 1463.48 725.42 L 1463.30 719.57 L 1463.30 709.02 L 1462.66 706.78 L 1461.63 705.50 L 1458.39 704.06 L 1453.07 704.02 L 1451.45 703.90 L 1448.84 703.18 L 1445.96 701.55 L 1443.21 699.79 L 1439.83 697.79 L 1438.44 697.15 L 1437.09 696.79 L 1435.96 696.55 L 1434.66 696.55 L 1433.08 696.59 L 1431.05 697.15 L 1429.57 697.75 L 1427.81 699.59 L 1426.78 700.99 L 1425.56 703.62 L 1423.35 708.34" fill="none" stroke="#3ec8ff" stroke-opacity="0.35" stroke-width="10" stroke-linecap="round" stroke-linejoin="round"/>
    <path d="M 1353.76 778.79 L 1419.64 778.48 L 1442.44 778.37 L 1444.66 778.36" fill="none" stroke="#3ec8ff" stroke-opacity="0.35" stroke-width="10" stroke-linecap="round" stroke-linejoin="round"/>
    <path d="M 1498.04 794.36 L 1496.99 801.66 L 1496.37 802.67 L 1494.82 804.07 L 1491.69 806.15 L 1490.22 806.58 L 1485.62 806.95 L 1412.65 807.18" fill="none" stroke="#3ec8ff" stroke-opacity="0.35" stroke-width="10" stroke-linecap="round" stroke-linejoin="round"/>
    <path d="M 1326.67 779.03 L 1339.96 778.79 L 1353.76 778.79" fill="none" stroke="#3ec8ff" stroke-opacity="0.35" stroke-width="10" stroke-linecap="round" stroke-linejoin="round"/>
    <path d="M 1444.66 778.36 L 1450.82 779.03 L 1458.56 779.03 L 1461.57 778.41 L 1465.17 775.70 L 1468.15 771.57 L 1469.34 767.76 L 1469.69 762.84" fill="none" stroke="#3ec8ff" stroke-opacity="0.35" stroke-width="10" stroke-linecap="round" stroke-linejoin="round"/>
    <path d="M 1508.78 778.27 L 1507.55 779.55 L 1505.96 781.20 L 1504.39 782.49 L 1498.96 786.06 L 1498.32 788.13 L 1498.04 794.36" fill="none" stroke="#3ec8ff" stroke-opacity="0.35" stroke-width="10" stroke-linecap="round" stroke-linejoin="round"/>
    <path d="M 1412.65 807.18 L 1408.08 807.36 L 1386.58 808.69 L 1385.58 808.76 L 1384.61 808.78 L 1365.18 808.84 L 1357.00 809.48" fill="none" stroke="#3ec8ff" stroke-opacity="0.35" stroke-width="10" stroke-linecap="round" stroke-linejoin="round"/>
    <path d="M 1479.79 700.07 L 1479.40 701.95 L 1478.68 703.02 L 1476.53 703.86 L 1470.67 703.97 L 1458.39 704.06" fill="none" stroke="#3ec8ff" stroke-opacity="0.35" stroke-width="10" stroke-linecap="round" stroke-linejoin="round"/>
    <path d="M 1492.21 809.00 L 1357.00 809.48 L 1338.84 809.64" fill="none" stroke="#3ec8ff" stroke-opacity="0.35" stroke-width="10" stroke-linecap="round" stroke-linejoin="round"/>
    <path d="M 1500.37 802.79 L 1500.12 803.87 L 1499.54 805.10 L 1498.77 806.19 L 1497.72 807.14 L 1496.60 807.89 L 1495.56 808.41 L 1494.11 808.84 L 1492.21 809.00" fill="none" stroke="#3ec8ff" stroke-opacity="0.35" stroke-width="10" stroke-linecap="round" stroke-linejoin="round"/>
    <path d="M 1503.88 785.28 L 1503.28 786.34 L 1502.85 787.43 L 1502.47 788.81 L 1500.37 802.79" fill="none" stroke="#3ec8ff" stroke-opacity="0.35" stroke-width="10" stroke-linecap="round" stroke-linejoin="round"/>
    <path d="M 1506.88 767.05 L 1507.87 768.16 L 1508.65 769.20 L 1509.16 770.19 L 1509.53 771.13 L 1509.87 772.29 L 1510.00 773.59 L 1509.97 774.84 L 1509.76 776.13 L 1509.45 777.08 L 1508.78 778.27 L 1506.73 781.28 L 1505.80 782.56 L 1504.68 784.07 L 1503.88 785.28" fill="none" stroke="#3ec8ff" stroke-opacity="0.35" stroke-width="10" stroke-linecap="round" stroke-linejoin="round"/>
    <path d="M 1480.23 733.62 L 1487.78 749.35 L 1488.41 750.43 L 1489.08 751.24 L 1489.90 752.08 L 1506.88 767.05" fill="none" stroke="#3ec8ff" stroke-opacity="0.35" stroke-width="10" stroke-linecap="round" stroke-linejoin="round"/>
    <path d="M 1463.48 725.42 L 1466.81 725.03 L 1469.38 724.44 L 1471.01 724.03 L 1474.53 723.14 L 1479.65 721.66" fill="none" stroke="#3ec8ff" stroke-opacity="0.35" stroke-width="10" stroke-linecap="round" stroke-linejoin="round"/>
    <path d="M 1479.65 721.66 L 1479.48 723.24 L 1479.11 725.34 L 1478.88 726.48 L 1478.69 727.78 L 1478.72 729.13 L 1478.85 730.07 L 1479.11 731.02 L 1479.50 731.98 L 1480.23 733.62" fill="none" stroke="#3ec8ff" stroke-opacity="0.35" stroke-width="10" stroke-linecap="round" stroke-linejoin="round"/>
    <path d="M 1479.61 671.38 L 1479.79 700.07 L 1479.77 718.96 L 1479.71 720.25 L 1479.65 721.66" fill="none" stroke="#3ec8ff" stroke-opacity="0.35" stroke-width="10" stroke-linecap="round" stroke-linejoin="round"/>
    <path d="M 1471.78 664.25 L 1473.46 664.43 L 1474.84 664.77 L 1475.82 665.09 L 1476.85 665.54 L 1477.84 666.22 L 1478.52 667.01 L 1479.01 668.10 L 1479.29 669.11 L 1479.45 670.15 L 1479.61 671.38" fill="none" stroke="#3ec8ff" stroke-opacity="0.35" stroke-width="10" stroke-linecap="round" stroke-linejoin="round"/>
    <path d="M 1438.21 670.58 L 1449.56 665.30 L 1451.54 664.78 L 1453.61 664.62 L 1467.33 664.38 L 1471.78 664.25" fill="none" stroke="#3ec8ff" stroke-opacity="0.35" stroke-width="10" stroke-linecap="round" stroke-linejoin="round"/>
    <path d="M 1396.65 661.47 L 1398.68 659.67 L 1399.89 659.03 L 1400.97 658.83 L 1402.41 659.03 L 1403.36 659.35 L 1404.35 659.83 L 1406.65 661.79" fill="none" stroke="#3ec8ff" stroke-opacity="0.35" stroke-width="10" stroke-linecap="round" stroke-linejoin="round"/>
    <path d="M 1406.65 661.79 L 1408.13 663.43 L 1411.87 667.94 L 1412.95 668.86 L 1415.79 670.26 L 1422.14 672.34" fill="none" stroke="#3ec8ff" stroke-opacity="0.35" stroke-width="10" stroke-linecap="round" stroke-linejoin="round"/>
    <path d="M 1422.14 672.34 L 1426.50 673.26 L 1427.95 673.29 L 1431.50 672.66 L 1435.24 671.54 L 1438.21 670.58" fill="none" stroke="#3ec8ff" stroke-opacity="0.35" stroke-width="10" stroke-linecap="round" stroke-linejoin="round"/>
    <path d="M 1314.06 736.54 L 1310.06 736.59 L 1308.34 736.51 L 1307.17 736.03 L 1306.32 735.35 L 1305.64 734.35 L 1305.37 733.31 L 1305.33 732.51 L 1305.55 731.52 L 1305.87 730.84 L 1306.59 730.16 L 1307.76 729.24 L 1308.88 728.04 L 1309.38 727.16 L 1309.70 726.32 L 1309.78 725.48 L 1309.88 724.00 L 1309.92 722.72 L 1311.14 719.25 L 1312.40 717.45 L 1314.74 714.69" fill="none" stroke="#3ec8ff" stroke-opacity="0.35" stroke-width="10" stroke-linecap="round" stroke-linejoin="round"/>
    <path d="M 1314.74 714.69 L 1323.04 707.07 L 1324.70 705.64 L 1326.90 704.27 L 1328.59 703.47 L 1330.39 702.63 L 1332.66 701.76 L 1333.86 701.35 L 1355.54 694.64" fill="none" stroke="#3ec8ff" stroke-opacity="0.35" stroke-width="10" stroke-linecap="round" stroke-linejoin="round"/>
    <path d="M 1423.35 708.34 L 1422.36 710.10 L 1421.06 711.89 L 1419.88 713.29 L 1417.59 715.89 L 1413.52 720.13 L 1411.82 721.72 L 1404.17 727.56 L 1400.75 729.60 L 1393.59 732.63 L 1387.19 734.59 L 1381.52 735.63 L 1373.05 736.35" fill="none" stroke="#3ec8ff" stroke-opacity="0.35" stroke-width="10" stroke-linecap="round" stroke-linejoin="round"/>
    <path d="M 1373.05 736.35 L 1364.77 736.39 L 1350.54 736.35 L 1339.56 736.42 L 1330.36 736.47 L 1314.06 736.54" fill="none" stroke="#3ec8ff" stroke-opacity="0.35" stroke-width="10" stroke-linecap="round" stroke-linejoin="round"/>
    <path d="M 90.00 822.07 L 1229.15 822.07 L 1229.15 177.93 L 90.00 177.93 L 90.00 822.07" fill="none" stroke="#f5f8ff" stroke-width="4" stroke-linecap="round" stroke-linejoin="round"/>
    <path d="M 1338.84 809.64 L 1336.60 809.08 L 1334.47 808.29 L 1323.63 802.23 L 1320.89 800.38 L 1319.02 798.74 L 1318.08 797.34 L 1317.18 795.38 L 1316.84 793.59 L 1316.78 791.92 L 1317.04 790.53 L 1317.47 789.20 L 1319.61 785.34 L 1321.15 783.17 L 1322.18 781.90 L 1322.80 781.19 L 1323.52 780.59 L 1324.96 779.71 L 1326.67 779.03 L 1328.56 778.35 L 1331.80 777.67 L 1336.58 777.31 L 1342.93 776.87" fill="none" stroke="#f5f8ff" stroke-width="4" stroke-linecap="round" stroke-linejoin="round"/>
    <path d="M 1355.54 694.64 L 1357.43 693.90 L 1359.42 692.97 L 1361.16 692.09 L 1363.08 690.92 L 1365.45 689.19 L 1372.82 682.59 L 1385.53 671.34 L 1396.65 661.47" fill="none" stroke="#f5f8ff" stroke-width="4" stroke-linecap="round" stroke-linejoin="round"/>
    <path d="M 1342.93 776.87 L 1357.20 776.83 L 1375.57 776.79 L 1408.27 776.63 L 1441.73 776.55 L 1453.25 776.51 L 1455.53 776.33 L 1457.80 776.15 L 1460.50 775.59 L 1462.75 774.59 L 1465.10 772.91 L 1466.94 770.96 L 1468.20 768.88 L 1469.19 766.04 L 1469.69 762.84 L 1469.73 760.41 L 1469.42 755.37 L 1469.21 754.08 L 1468.97 752.58 L 1468.16 749.02 L 1465.77 737.55 L 1465.04 734.89 L 1464.47 731.16 L 1463.84 727.80 L 1463.48 725.42 L 1463.30 719.57 L 1463.30 709.02 L 1462.66 706.78 L 1461.63 705.50 L 1458.39 704.06 L 1453.07 704.02 L 1451.45 703.90 L 1448.84 703.18 L 1445.96 701.55 L 1443.21 699.79 L 1439.83 697.79 L 1438.44 697.15 L 1437.09 696.79 L 1435.96 696.55 L 1434.66 696.55 L 1433.08 696.59 L 1431.05 697.15 L 1429.57 697.75 L 1427.81 699.59 L 1426.78 700.99 L 1425.56 703.62 L 1423.35 708.34" fill="none" stroke="#f5f8ff" stroke-width="4" stroke-linecap="round" stroke-linejoin="round"/>
    <path d="M 1353.76 778.79 L 1419.64 778.48 L 1442.44 778.37 L 1444.66 778.36" fill="none" stroke="#f5f8ff" stroke-width="4" stroke-linecap="round" stroke-linejoin="round"/>
    <path d="M 1498.04 794.36 L 1496.99 801.66 L 1496.37 802.67 L 1494.82 804.07 L 1491.69 806.15 L 1490.22 806.58 L 1485.62 806.95 L 1412.65 807.18" fill="none" stroke="#f5f8ff" stroke-width="4" stroke-linecap="round" stroke-linejoin="round"/>
    <path d="M 1326.67 779.03 L 1339.96 778.79 L 1353.76 778.79" fill="none" stroke="#f5f8ff" stroke-width="4" stroke-linecap="round" stroke-linejoin="round"/>
    <path d="M 1444.66 778.36 L 1450.82 779.03 L 1458.56 779.03 L 1461.57 778.41 L 1465.17 775.70 L 1468.15 771.57 L 1469.34 767.76 L 1469.69 762.84" fill="none" stroke="#f5f8ff" stroke-width="4" stroke-linecap="round" stroke-linejoin="round"/>
    <path d="M 1508.78 778.27 L 1507.55 779.55 L 1505.96 781.20 L 1504.39 782.49 L 1498.96 786.06 L 1498.32 788.13 L 1498.04 794.36" fill="none" stroke="#f5f8ff" stroke-width="4" stroke-linecap="round" stroke-linejoin="round"/>
    <path d="M 1412.65 807.18 L 1408.08 807.36 L 1386.58 808.69 L 1385.58 808.76 L 1384.61 808.78 L 1365.18 808.84 L 1357.00 809.48" fill="none" stroke="#f5f8ff" stroke-width="4" stroke-linecap="round" stroke-linejoin="round"/>
    <path d="M 1479.79 700.07 L 1479.40 701.95 L 1478.68 703.02 L 1476.53 703.86 L 1470.67 703.97 L 1458.39 704.06" fill="none" stroke="#f5f8ff" stroke-width="4" stroke-linecap="round" stroke-linejoin="round"/>
    <path d="M 1492.21 809.00 L 1357.00 809.48 L 1338.84 809.64" fill="none" stroke="#f5f8ff" stroke-width="4" stroke-linecap="round" stroke-linejoin="round"/>
    <path d="M 1500.37 802.79 L 1500.12 803.87 L 1499.54 805.10 L 1498.77 806.19 L 1497.72 807.14 L 1496.60 807.89 L 1495.56 808.41 L 1494.11 808.84 L 1492.21 809.00" fill="none" stroke="#f5f8ff" stroke-width="4" stroke-linecap="round" stroke-linejoin="round"/>
    <path d="M 1503.88 785.28 L 1503.28 786.34 L 1502.85 787.43 L 1502.47 788.81 L 1500.37 802.79" fill="none" stroke="#f5f8ff" stroke-width="4" stroke-linecap="round" stroke-linejoin="round"/>
    <path d="M 1506.88 767.05 L 1507.87 768.16 L 1508.65 769.20 L 1509.16 770.19 L 1509.53 771.13 L 1509.87 772.29 L 1510.00 773.59 L 1509.97 774.84 L 1509.76 776.13 L 1509.45 777.08 L 1508.78 778.27 L 1506.73 781.28 L 1505.80 782.56 L 1504.68 784.07 L 1503.88 785.28" fill="none" stroke="#f5f8ff" stroke-width="4" stroke-linecap="round" stroke-linejoin="round"/>
    <path d="M 1480.23 733.62 L 1487.78 749.35 L 1488.41 750.43 L 1489.08 751.24 L 1489.90 752.08 L 1506.88 767.05" fill="none" stroke="#f5f8ff" stroke-width="4" stroke-linecap="round" stroke-linejoin="round"/>
    <path d="M 1463.48 725.42 L 1466.81 725.03 L 1469.38 724.44 L 1471.01 724.03 L 1474.53 723.14 L 1479.65 721.66" fill="none" stroke="#f5f8ff" stroke-width="4" stroke-linecap="round" stroke-linejoin="round"/>
    <path d="M 1479.65 721.66 L 1479.48 723.24 L 1479.11 725.34 L 1478.88 726.48 L 1478.69 727.78 L 1478.72 729.13 L 1478.85 730.07 L 1479.11 731.02 L 1479.50 731.98 L 1480.23 733.62" fill="none" stroke="#f5f8ff" stroke-width="4" stroke-linecap="round" stroke-linejoin="round"/>
    <path d="M 1479.61 671.38 L 1479.79 700.07 L 1479.77 718.96 L 1479.71 720.25 L 1479.65 721.66" fill="none" stroke="#f5f8ff" stroke-width="4" stroke-linecap="round" stroke-linejoin="round"/>
    <path d="M 1471.78 664.25 L 1473.46 664.43 L 1474.84 664.77 L 1475.82 665.09 L 1476.85 665.54 L 1477.84 666.22 L 1478.52 667.01 L 1479.01 668.10 L 1479.29 669.11 L 1479.45 670.15 L 1479.61 671.38" fill="none" stroke="#f5f8ff" stroke-width="4" stroke-linecap="round" stroke-linejoin="round"/>
    <path d="M 1438.21 670.58 L 1449.56 665.30 L 1451.54 664.78 L 1453.61 664.62 L 1467.33 664.38 L 1471.78 664.25" fill="none" stroke="#f5f8ff" stroke-width="4" stroke-linecap="round" stroke-linejoin="round"/>
    <path d="M 1396.65 661.47 L 1398.68 659.67 L 1399.89 659.03 L 1400.97 658.83 L 1402.41 659.03 L 1403.36 659.35 L 1404.35 659.83 L 1406.65 661.79" fill="none" stroke="#f5f8ff" stroke-width="4" stroke-linecap="round" stroke-linejoin="round"/>
    <path d="M 1406.65 661.79 L 1408.13 663.43 L 1411.87 667.94 L 1412.95 668.86 L 1415.79 670.26 L 1422.14 672.34" fill="none" stroke="#f5f8ff" stroke-width="4" stroke-linecap="round" stroke-linejoin="round"/>
    <path d="M 1422.14 672.34 L 1426.50 673.26 L 1427.95 673.29 L 1431.50 672.66 L 1435.24 671.54 L 1438.21 670.58" fill="none" stroke="#f5f8ff" stroke-width="4" stroke-linecap="round" stroke-linejoin="round"/>
    <path d="M 1314.06 736.54 L 1310.06 736.59 L 1308.34 736.51 L 1307.17 736.03 L 1306.32 735.35 L 1305.64 734.35 L 1305.37 733.31 L 1305.33 732.51 L 1305.55 731.52 L 1305.87 730.84 L 1306.59 730.16 L 1307.76 729.24 L 1308.88 728.04 L 1309.38 727.16 L 1309.70 726.32 L 1309.78 725.48 L 1309.88 724.00 L 1309.92 722.72 L 1311.14 719.25 L 1312.40 717.45 L 1314.74 714.69" fill="none" stroke="#f5f8ff" stroke-width="4" stroke-linecap="round" stroke-linejoin="round"/>
    <path d="M 1314.74 714.69 L 1323.04 707.07 L 1324.70 705.64 L 1326.90 704.27 L 1328.59 703.47 L 1330.39 702.63 L 1332.66 701.76 L 1333.86 701.35 L 1355.54 694.64" fill="none" stroke="#f5f8ff" stroke-width="4" stroke-linecap="round" stroke-linejoin="round"/>
    <path d="M 1423.35 708.34 L 1422.36 710.10 L 1421.06 711.89 L 1419.88 713.29 L 1417.59 715.89 L 1413.52 720.13 L 1411.82 721.72 L 1404.17 727.56 L 1400.75 729.60 L 1393.59 732.63 L 1387.19 734.59 L 1381.52 735.63 L 1373.05 736.35" fill="none" stroke="#f5f8ff" stroke-width="4" stroke-linecap="round" stroke-linejoin="round"/>
    <path d="M 1373.05 736.35 L 1364.77 736.39 L 1350.54 736.35 L 1339.56 736.42 L 1330.36 736.47 L 1314.06 736.54" fill="none" stroke="#f5f8ff" stroke-width="4" stroke-linecap="round" stroke-linejoin="round"/>
  </g>
</svg>